%TF.GenerationSoftware,KiCad,Pcbnew,(5.1.8)-1*%
%TF.CreationDate,2021-03-12T16:58:38+08:00*%
%TF.ProjectId,DoubleCam,446f7562-6c65-4436-916d-2e6b69636164,rev?*%
%TF.SameCoordinates,Original*%
%TF.FileFunction,Copper,L1,Top*%
%TF.FilePolarity,Positive*%
%FSLAX46Y46*%
G04 Gerber Fmt 4.6, Leading zero omitted, Abs format (unit mm)*
G04 Created by KiCad (PCBNEW (5.1.8)-1) date 2021-03-12 16:58:38*
%MOMM*%
%LPD*%
G01*
G04 APERTURE LIST*
%TA.AperFunction,SMDPad,CuDef*%
%ADD10C,0.100000*%
%TD*%
%TA.AperFunction,SMDPad,CuDef*%
%ADD11R,0.900000X1.300000*%
%TD*%
%TA.AperFunction,ComponentPad*%
%ADD12O,1.700000X1.700000*%
%TD*%
%TA.AperFunction,ComponentPad*%
%ADD13R,1.700000X1.700000*%
%TD*%
%TA.AperFunction,SMDPad,CuDef*%
%ADD14R,1.400000X1.200000*%
%TD*%
%TA.AperFunction,SMDPad,CuDef*%
%ADD15R,2.300000X3.100000*%
%TD*%
%TA.AperFunction,SMDPad,CuDef*%
%ADD16R,0.300000X1.100000*%
%TD*%
%TA.AperFunction,ViaPad*%
%ADD17C,0.304800*%
%TD*%
%TA.AperFunction,ViaPad*%
%ADD18C,0.800000*%
%TD*%
%TA.AperFunction,Conductor*%
%ADD19C,0.508000*%
%TD*%
%TA.AperFunction,Conductor*%
%ADD20C,0.250000*%
%TD*%
%TA.AperFunction,Conductor*%
%ADD21C,0.200000*%
%TD*%
%TA.AperFunction,Conductor*%
%ADD22C,0.100000*%
%TD*%
G04 APERTURE END LIST*
%TA.AperFunction,SMDPad,CuDef*%
D10*
%TO.P,U1,2*%
%TO.N,+3V3*%
G36*
X158346500Y-73900000D02*
G01*
X158346500Y-77025000D01*
X157930000Y-77025000D01*
X157930000Y-78500000D01*
X157030000Y-78500000D01*
X157030000Y-77025000D01*
X156613500Y-77025000D01*
X156613500Y-73900000D01*
X158346500Y-73900000D01*
G37*
%TD.AperFunction*%
D11*
%TO.P,U1,3*%
%TO.N,+2V8*%
X158980000Y-77850000D03*
%TO.P,U1,1*%
%TO.N,GND*%
X155980000Y-77850000D03*
%TD*%
%TO.P,U2,1*%
%TO.N,GND*%
X171220000Y-77850000D03*
%TO.P,U2,3*%
%TO.N,+3V3*%
X174220000Y-77850000D03*
%TA.AperFunction,SMDPad,CuDef*%
D10*
%TO.P,U2,2*%
%TO.N,+1V5*%
G36*
X173586500Y-73900000D02*
G01*
X173586500Y-77025000D01*
X173170000Y-77025000D01*
X173170000Y-78500000D01*
X172270000Y-78500000D01*
X172270000Y-77025000D01*
X171853500Y-77025000D01*
X171853500Y-73900000D01*
X173586500Y-73900000D01*
G37*
%TD.AperFunction*%
%TD*%
D12*
%TO.P,J3,40*%
%TO.N,+3V3*%
X140970000Y-92964000D03*
%TO.P,J3,39*%
X140970000Y-95504000D03*
%TO.P,J3,38*%
%TO.N,GND*%
X143510000Y-92964000D03*
%TO.P,J3,37*%
X143510000Y-95504000D03*
%TO.P,J3,36*%
%TO.N,/OV2_SCL*%
X146050000Y-92964000D03*
%TO.P,J3,35*%
%TO.N,/OV2_SDA*%
X146050000Y-95504000D03*
%TO.P,J3,34*%
%TO.N,/OV2_VSYNC*%
X148590000Y-92964000D03*
%TO.P,J3,33*%
%TO.N,/OV2_RESET*%
X148590000Y-95504000D03*
%TO.P,J3,32*%
%TO.N,/OV2_HREF*%
X151130000Y-92964000D03*
%TO.P,J3,31*%
%TO.N,/OV2_PWDN*%
X151130000Y-95504000D03*
%TO.P,J3,30*%
%TO.N,/OV2_XCLK*%
X153670000Y-92964000D03*
%TO.P,J3,29*%
%TO.N,/OV2_D7*%
X153670000Y-95504000D03*
%TO.P,J3,28*%
%TO.N,/OV2_D5*%
X156210000Y-92964000D03*
%TO.P,J3,27*%
%TO.N,/OV2_D6*%
X156210000Y-95504000D03*
%TO.P,J3,26*%
%TO.N,/OV2_D4*%
X158750000Y-92964000D03*
%TO.P,J3,25*%
%TO.N,/OV2_PCLK*%
X158750000Y-95504000D03*
%TO.P,J3,24*%
%TO.N,/OV2_D3*%
X161290000Y-92964000D03*
%TO.P,J3,23*%
%TO.N,/OV2_D0*%
X161290000Y-95504000D03*
%TO.P,J3,22*%
%TO.N,/OV2_D2*%
X163830000Y-92964000D03*
%TO.P,J3,21*%
%TO.N,/OV2_D1*%
X163830000Y-95504000D03*
%TO.P,J3,20*%
%TO.N,N/C*%
X166370000Y-92964000D03*
%TO.P,J3,19*%
X166370000Y-95504000D03*
%TO.P,J3,18*%
%TO.N,/OV1_SDA*%
X168910000Y-92964000D03*
%TO.P,J3,17*%
%TO.N,/OV1_SCL*%
X168910000Y-95504000D03*
%TO.P,J3,16*%
%TO.N,/OV1_RESET*%
X171450000Y-92964000D03*
%TO.P,J3,15*%
%TO.N,/OV1_VSYNC*%
X171450000Y-95504000D03*
%TO.P,J3,14*%
%TO.N,/OV1_PWDN*%
X173990000Y-92964000D03*
%TO.P,J3,13*%
%TO.N,/OV1_HREF*%
X173990000Y-95504000D03*
%TO.P,J3,12*%
%TO.N,/OV1_D7*%
X176530000Y-92964000D03*
%TO.P,J3,11*%
%TO.N,/OV1_XCLK*%
X176530000Y-95504000D03*
%TO.P,J3,10*%
%TO.N,/OV1_D6*%
X179070000Y-92964000D03*
%TO.P,J3,9*%
%TO.N,/OV1_D5*%
X179070000Y-95504000D03*
%TO.P,J3,8*%
%TO.N,/OV1_PCLK*%
X181610000Y-92964000D03*
%TO.P,J3,7*%
%TO.N,/OV1_D4*%
X181610000Y-95504000D03*
%TO.P,J3,6*%
%TO.N,/OV1_D0*%
X184150000Y-92964000D03*
%TO.P,J3,5*%
%TO.N,/OV1_D3*%
X184150000Y-95504000D03*
%TO.P,J3,4*%
%TO.N,/OV1_D1*%
X186690000Y-92964000D03*
%TO.P,J3,3*%
%TO.N,/OV1_D2*%
X186690000Y-95504000D03*
%TO.P,J3,2*%
%TO.N,Net-(J3-Pad2)*%
X189230000Y-92964000D03*
D13*
%TO.P,J3,1*%
%TO.N,Net-(J3-Pad1)*%
X189230000Y-95504000D03*
%TD*%
%TO.P,C4,2*%
%TO.N,GND*%
%TA.AperFunction,SMDPad,CuDef*%
G36*
G01*
X171595000Y-79440000D02*
X171595000Y-79940000D01*
G75*
G02*
X171370000Y-80165000I-225000J0D01*
G01*
X170920000Y-80165000D01*
G75*
G02*
X170695000Y-79940000I0J225000D01*
G01*
X170695000Y-79440000D01*
G75*
G02*
X170920000Y-79215000I225000J0D01*
G01*
X171370000Y-79215000D01*
G75*
G02*
X171595000Y-79440000I0J-225000D01*
G01*
G37*
%TD.AperFunction*%
%TO.P,C4,1*%
%TO.N,+1V5*%
%TA.AperFunction,SMDPad,CuDef*%
G36*
G01*
X173145000Y-79440000D02*
X173145000Y-79940000D01*
G75*
G02*
X172920000Y-80165000I-225000J0D01*
G01*
X172470000Y-80165000D01*
G75*
G02*
X172245000Y-79940000I0J225000D01*
G01*
X172245000Y-79440000D01*
G75*
G02*
X172470000Y-79215000I225000J0D01*
G01*
X172920000Y-79215000D01*
G75*
G02*
X173145000Y-79440000I0J-225000D01*
G01*
G37*
%TD.AperFunction*%
%TD*%
%TO.P,C3,2*%
%TO.N,GND*%
%TA.AperFunction,SMDPad,CuDef*%
G36*
G01*
X171595000Y-80964000D02*
X171595000Y-81464000D01*
G75*
G02*
X171370000Y-81689000I-225000J0D01*
G01*
X170920000Y-81689000D01*
G75*
G02*
X170695000Y-81464000I0J225000D01*
G01*
X170695000Y-80964000D01*
G75*
G02*
X170920000Y-80739000I225000J0D01*
G01*
X171370000Y-80739000D01*
G75*
G02*
X171595000Y-80964000I0J-225000D01*
G01*
G37*
%TD.AperFunction*%
%TO.P,C3,1*%
%TO.N,+1V5*%
%TA.AperFunction,SMDPad,CuDef*%
G36*
G01*
X173145000Y-80964000D02*
X173145000Y-81464000D01*
G75*
G02*
X172920000Y-81689000I-225000J0D01*
G01*
X172470000Y-81689000D01*
G75*
G02*
X172245000Y-81464000I0J225000D01*
G01*
X172245000Y-80964000D01*
G75*
G02*
X172470000Y-80739000I225000J0D01*
G01*
X172920000Y-80739000D01*
G75*
G02*
X173145000Y-80964000I0J-225000D01*
G01*
G37*
%TD.AperFunction*%
%TD*%
%TO.P,C2,2*%
%TO.N,GND*%
%TA.AperFunction,SMDPad,CuDef*%
G36*
G01*
X156455000Y-79440000D02*
X156455000Y-79940000D01*
G75*
G02*
X156230000Y-80165000I-225000J0D01*
G01*
X155780000Y-80165000D01*
G75*
G02*
X155555000Y-79940000I0J225000D01*
G01*
X155555000Y-79440000D01*
G75*
G02*
X155780000Y-79215000I225000J0D01*
G01*
X156230000Y-79215000D01*
G75*
G02*
X156455000Y-79440000I0J-225000D01*
G01*
G37*
%TD.AperFunction*%
%TO.P,C2,1*%
%TO.N,+2V8*%
%TA.AperFunction,SMDPad,CuDef*%
G36*
G01*
X158005000Y-79440000D02*
X158005000Y-79940000D01*
G75*
G02*
X157780000Y-80165000I-225000J0D01*
G01*
X157330000Y-80165000D01*
G75*
G02*
X157105000Y-79940000I0J225000D01*
G01*
X157105000Y-79440000D01*
G75*
G02*
X157330000Y-79215000I225000J0D01*
G01*
X157780000Y-79215000D01*
G75*
G02*
X158005000Y-79440000I0J-225000D01*
G01*
G37*
%TD.AperFunction*%
%TD*%
%TO.P,C1,2*%
%TO.N,GND*%
%TA.AperFunction,SMDPad,CuDef*%
G36*
G01*
X156455000Y-80964000D02*
X156455000Y-81464000D01*
G75*
G02*
X156230000Y-81689000I-225000J0D01*
G01*
X155780000Y-81689000D01*
G75*
G02*
X155555000Y-81464000I0J225000D01*
G01*
X155555000Y-80964000D01*
G75*
G02*
X155780000Y-80739000I225000J0D01*
G01*
X156230000Y-80739000D01*
G75*
G02*
X156455000Y-80964000I0J-225000D01*
G01*
G37*
%TD.AperFunction*%
%TO.P,C1,1*%
%TO.N,+2V8*%
%TA.AperFunction,SMDPad,CuDef*%
G36*
G01*
X158005000Y-80964000D02*
X158005000Y-81464000D01*
G75*
G02*
X157780000Y-81689000I-225000J0D01*
G01*
X157330000Y-81689000D01*
G75*
G02*
X157105000Y-81464000I0J225000D01*
G01*
X157105000Y-80964000D01*
G75*
G02*
X157330000Y-80739000I225000J0D01*
G01*
X157780000Y-80739000D01*
G75*
G02*
X158005000Y-80964000I0J-225000D01*
G01*
G37*
%TD.AperFunction*%
%TD*%
D14*
%TO.P,X1,4*%
%TO.N,+2V8*%
X166300000Y-77150000D03*
%TO.P,X1,3*%
%TO.N,Net-(R10-Pad2)*%
X163900000Y-77150000D03*
%TO.P,X1,2*%
%TO.N,GND*%
X163900000Y-75250000D03*
%TO.P,X1,1*%
%TO.N,Net-(X1-Pad1)*%
X166300000Y-75250000D03*
%TD*%
%TO.P,R11,2*%
%TO.N,Net-(R10-Pad2)*%
%TA.AperFunction,SMDPad,CuDef*%
G36*
G01*
X164025000Y-79325000D02*
X163475000Y-79325000D01*
G75*
G02*
X163275000Y-79125000I0J200000D01*
G01*
X163275000Y-78725000D01*
G75*
G02*
X163475000Y-78525000I200000J0D01*
G01*
X164025000Y-78525000D01*
G75*
G02*
X164225000Y-78725000I0J-200000D01*
G01*
X164225000Y-79125000D01*
G75*
G02*
X164025000Y-79325000I-200000J0D01*
G01*
G37*
%TD.AperFunction*%
%TO.P,R11,1*%
%TO.N,/OV2_XCLK*%
%TA.AperFunction,SMDPad,CuDef*%
G36*
G01*
X164025000Y-80975000D02*
X163475000Y-80975000D01*
G75*
G02*
X163275000Y-80775000I0J200000D01*
G01*
X163275000Y-80375000D01*
G75*
G02*
X163475000Y-80175000I200000J0D01*
G01*
X164025000Y-80175000D01*
G75*
G02*
X164225000Y-80375000I0J-200000D01*
G01*
X164225000Y-80775000D01*
G75*
G02*
X164025000Y-80975000I-200000J0D01*
G01*
G37*
%TD.AperFunction*%
%TD*%
%TO.P,R10,2*%
%TO.N,Net-(R10-Pad2)*%
%TA.AperFunction,SMDPad,CuDef*%
G36*
G01*
X166775000Y-79331000D02*
X166225000Y-79331000D01*
G75*
G02*
X166025000Y-79131000I0J200000D01*
G01*
X166025000Y-78731000D01*
G75*
G02*
X166225000Y-78531000I200000J0D01*
G01*
X166775000Y-78531000D01*
G75*
G02*
X166975000Y-78731000I0J-200000D01*
G01*
X166975000Y-79131000D01*
G75*
G02*
X166775000Y-79331000I-200000J0D01*
G01*
G37*
%TD.AperFunction*%
%TO.P,R10,1*%
%TO.N,/OV1_XCLK*%
%TA.AperFunction,SMDPad,CuDef*%
G36*
G01*
X166775000Y-80981000D02*
X166225000Y-80981000D01*
G75*
G02*
X166025000Y-80781000I0J200000D01*
G01*
X166025000Y-80381000D01*
G75*
G02*
X166225000Y-80181000I200000J0D01*
G01*
X166775000Y-80181000D01*
G75*
G02*
X166975000Y-80381000I0J-200000D01*
G01*
X166975000Y-80781000D01*
G75*
G02*
X166775000Y-80981000I-200000J0D01*
G01*
G37*
%TD.AperFunction*%
%TD*%
%TO.P,R9,2*%
%TO.N,Net-(D1-Pad2)*%
%TA.AperFunction,SMDPad,CuDef*%
G36*
G01*
X164825000Y-86531000D02*
X165375000Y-86531000D01*
G75*
G02*
X165575000Y-86731000I0J-200000D01*
G01*
X165575000Y-87131000D01*
G75*
G02*
X165375000Y-87331000I-200000J0D01*
G01*
X164825000Y-87331000D01*
G75*
G02*
X164625000Y-87131000I0J200000D01*
G01*
X164625000Y-86731000D01*
G75*
G02*
X164825000Y-86531000I200000J0D01*
G01*
G37*
%TD.AperFunction*%
%TO.P,R9,1*%
%TO.N,+3V3*%
%TA.AperFunction,SMDPad,CuDef*%
G36*
G01*
X164825000Y-84881000D02*
X165375000Y-84881000D01*
G75*
G02*
X165575000Y-85081000I0J-200000D01*
G01*
X165575000Y-85481000D01*
G75*
G02*
X165375000Y-85681000I-200000J0D01*
G01*
X164825000Y-85681000D01*
G75*
G02*
X164625000Y-85481000I0J200000D01*
G01*
X164625000Y-85081000D01*
G75*
G02*
X164825000Y-84881000I200000J0D01*
G01*
G37*
%TD.AperFunction*%
%TD*%
%TO.P,R8,2*%
%TO.N,GND*%
%TA.AperFunction,SMDPad,CuDef*%
G36*
G01*
X153705000Y-74233000D02*
X153705000Y-73683000D01*
G75*
G02*
X153905000Y-73483000I200000J0D01*
G01*
X154305000Y-73483000D01*
G75*
G02*
X154505000Y-73683000I0J-200000D01*
G01*
X154505000Y-74233000D01*
G75*
G02*
X154305000Y-74433000I-200000J0D01*
G01*
X153905000Y-74433000D01*
G75*
G02*
X153705000Y-74233000I0J200000D01*
G01*
G37*
%TD.AperFunction*%
%TO.P,R8,1*%
%TO.N,/OV2_PWDN*%
%TA.AperFunction,SMDPad,CuDef*%
G36*
G01*
X152055000Y-74233000D02*
X152055000Y-73683000D01*
G75*
G02*
X152255000Y-73483000I200000J0D01*
G01*
X152655000Y-73483000D01*
G75*
G02*
X152855000Y-73683000I0J-200000D01*
G01*
X152855000Y-74233000D01*
G75*
G02*
X152655000Y-74433000I-200000J0D01*
G01*
X152255000Y-74433000D01*
G75*
G02*
X152055000Y-74233000I0J200000D01*
G01*
G37*
%TD.AperFunction*%
%TD*%
%TO.P,R7,2*%
%TO.N,/OV2_RESET*%
%TA.AperFunction,SMDPad,CuDef*%
G36*
G01*
X152855000Y-72159000D02*
X152855000Y-72709000D01*
G75*
G02*
X152655000Y-72909000I-200000J0D01*
G01*
X152255000Y-72909000D01*
G75*
G02*
X152055000Y-72709000I0J200000D01*
G01*
X152055000Y-72159000D01*
G75*
G02*
X152255000Y-71959000I200000J0D01*
G01*
X152655000Y-71959000D01*
G75*
G02*
X152855000Y-72159000I0J-200000D01*
G01*
G37*
%TD.AperFunction*%
%TO.P,R7,1*%
%TO.N,+2V8*%
%TA.AperFunction,SMDPad,CuDef*%
G36*
G01*
X154505000Y-72159000D02*
X154505000Y-72709000D01*
G75*
G02*
X154305000Y-72909000I-200000J0D01*
G01*
X153905000Y-72909000D01*
G75*
G02*
X153705000Y-72709000I0J200000D01*
G01*
X153705000Y-72159000D01*
G75*
G02*
X153905000Y-71959000I200000J0D01*
G01*
X154305000Y-71959000D01*
G75*
G02*
X154505000Y-72159000I0J-200000D01*
G01*
G37*
%TD.AperFunction*%
%TD*%
%TO.P,R6,2*%
%TO.N,/OV2_SCL*%
%TA.AperFunction,SMDPad,CuDef*%
G36*
G01*
X152855000Y-70635000D02*
X152855000Y-71185000D01*
G75*
G02*
X152655000Y-71385000I-200000J0D01*
G01*
X152255000Y-71385000D01*
G75*
G02*
X152055000Y-71185000I0J200000D01*
G01*
X152055000Y-70635000D01*
G75*
G02*
X152255000Y-70435000I200000J0D01*
G01*
X152655000Y-70435000D01*
G75*
G02*
X152855000Y-70635000I0J-200000D01*
G01*
G37*
%TD.AperFunction*%
%TO.P,R6,1*%
%TO.N,+2V8*%
%TA.AperFunction,SMDPad,CuDef*%
G36*
G01*
X154505000Y-70635000D02*
X154505000Y-71185000D01*
G75*
G02*
X154305000Y-71385000I-200000J0D01*
G01*
X153905000Y-71385000D01*
G75*
G02*
X153705000Y-71185000I0J200000D01*
G01*
X153705000Y-70635000D01*
G75*
G02*
X153905000Y-70435000I200000J0D01*
G01*
X154305000Y-70435000D01*
G75*
G02*
X154505000Y-70635000I0J-200000D01*
G01*
G37*
%TD.AperFunction*%
%TD*%
%TO.P,R5,2*%
%TO.N,/OV2_SDA*%
%TA.AperFunction,SMDPad,CuDef*%
G36*
G01*
X152825000Y-68875000D02*
X152825000Y-69425000D01*
G75*
G02*
X152625000Y-69625000I-200000J0D01*
G01*
X152225000Y-69625000D01*
G75*
G02*
X152025000Y-69425000I0J200000D01*
G01*
X152025000Y-68875000D01*
G75*
G02*
X152225000Y-68675000I200000J0D01*
G01*
X152625000Y-68675000D01*
G75*
G02*
X152825000Y-68875000I0J-200000D01*
G01*
G37*
%TD.AperFunction*%
%TO.P,R5,1*%
%TO.N,+2V8*%
%TA.AperFunction,SMDPad,CuDef*%
G36*
G01*
X154475000Y-68875000D02*
X154475000Y-69425000D01*
G75*
G02*
X154275000Y-69625000I-200000J0D01*
G01*
X153875000Y-69625000D01*
G75*
G02*
X153675000Y-69425000I0J200000D01*
G01*
X153675000Y-68875000D01*
G75*
G02*
X153875000Y-68675000I200000J0D01*
G01*
X154275000Y-68675000D01*
G75*
G02*
X154475000Y-68875000I0J-200000D01*
G01*
G37*
%TD.AperFunction*%
%TD*%
%TO.P,R4,2*%
%TO.N,GND*%
%TA.AperFunction,SMDPad,CuDef*%
G36*
G01*
X177987000Y-68870000D02*
X177987000Y-69420000D01*
G75*
G02*
X177787000Y-69620000I-200000J0D01*
G01*
X177387000Y-69620000D01*
G75*
G02*
X177187000Y-69420000I0J200000D01*
G01*
X177187000Y-68870000D01*
G75*
G02*
X177387000Y-68670000I200000J0D01*
G01*
X177787000Y-68670000D01*
G75*
G02*
X177987000Y-68870000I0J-200000D01*
G01*
G37*
%TD.AperFunction*%
%TO.P,R4,1*%
%TO.N,/OV1_PWDN*%
%TA.AperFunction,SMDPad,CuDef*%
G36*
G01*
X179637000Y-68870000D02*
X179637000Y-69420000D01*
G75*
G02*
X179437000Y-69620000I-200000J0D01*
G01*
X179037000Y-69620000D01*
G75*
G02*
X178837000Y-69420000I0J200000D01*
G01*
X178837000Y-68870000D01*
G75*
G02*
X179037000Y-68670000I200000J0D01*
G01*
X179437000Y-68670000D01*
G75*
G02*
X179637000Y-68870000I0J-200000D01*
G01*
G37*
%TD.AperFunction*%
%TD*%
%TO.P,R3,2*%
%TO.N,/OV1_RESET*%
%TA.AperFunction,SMDPad,CuDef*%
G36*
G01*
X178837000Y-70944000D02*
X178837000Y-70394000D01*
G75*
G02*
X179037000Y-70194000I200000J0D01*
G01*
X179437000Y-70194000D01*
G75*
G02*
X179637000Y-70394000I0J-200000D01*
G01*
X179637000Y-70944000D01*
G75*
G02*
X179437000Y-71144000I-200000J0D01*
G01*
X179037000Y-71144000D01*
G75*
G02*
X178837000Y-70944000I0J200000D01*
G01*
G37*
%TD.AperFunction*%
%TO.P,R3,1*%
%TO.N,+2V8*%
%TA.AperFunction,SMDPad,CuDef*%
G36*
G01*
X177187000Y-70944000D02*
X177187000Y-70394000D01*
G75*
G02*
X177387000Y-70194000I200000J0D01*
G01*
X177787000Y-70194000D01*
G75*
G02*
X177987000Y-70394000I0J-200000D01*
G01*
X177987000Y-70944000D01*
G75*
G02*
X177787000Y-71144000I-200000J0D01*
G01*
X177387000Y-71144000D01*
G75*
G02*
X177187000Y-70944000I0J200000D01*
G01*
G37*
%TD.AperFunction*%
%TD*%
%TO.P,R2,2*%
%TO.N,/OV1_SCL*%
%TA.AperFunction,SMDPad,CuDef*%
G36*
G01*
X178837000Y-72468000D02*
X178837000Y-71918000D01*
G75*
G02*
X179037000Y-71718000I200000J0D01*
G01*
X179437000Y-71718000D01*
G75*
G02*
X179637000Y-71918000I0J-200000D01*
G01*
X179637000Y-72468000D01*
G75*
G02*
X179437000Y-72668000I-200000J0D01*
G01*
X179037000Y-72668000D01*
G75*
G02*
X178837000Y-72468000I0J200000D01*
G01*
G37*
%TD.AperFunction*%
%TO.P,R2,1*%
%TO.N,+2V8*%
%TA.AperFunction,SMDPad,CuDef*%
G36*
G01*
X177187000Y-72468000D02*
X177187000Y-71918000D01*
G75*
G02*
X177387000Y-71718000I200000J0D01*
G01*
X177787000Y-71718000D01*
G75*
G02*
X177987000Y-71918000I0J-200000D01*
G01*
X177987000Y-72468000D01*
G75*
G02*
X177787000Y-72668000I-200000J0D01*
G01*
X177387000Y-72668000D01*
G75*
G02*
X177187000Y-72468000I0J200000D01*
G01*
G37*
%TD.AperFunction*%
%TD*%
%TO.P,R1,2*%
%TO.N,/OV1_SDA*%
%TA.AperFunction,SMDPad,CuDef*%
G36*
G01*
X178837000Y-74328000D02*
X178837000Y-73778000D01*
G75*
G02*
X179037000Y-73578000I200000J0D01*
G01*
X179437000Y-73578000D01*
G75*
G02*
X179637000Y-73778000I0J-200000D01*
G01*
X179637000Y-74328000D01*
G75*
G02*
X179437000Y-74528000I-200000J0D01*
G01*
X179037000Y-74528000D01*
G75*
G02*
X178837000Y-74328000I0J200000D01*
G01*
G37*
%TD.AperFunction*%
%TO.P,R1,1*%
%TO.N,+2V8*%
%TA.AperFunction,SMDPad,CuDef*%
G36*
G01*
X177187000Y-74328000D02*
X177187000Y-73778000D01*
G75*
G02*
X177387000Y-73578000I200000J0D01*
G01*
X177787000Y-73578000D01*
G75*
G02*
X177987000Y-73778000I0J-200000D01*
G01*
X177987000Y-74328000D01*
G75*
G02*
X177787000Y-74528000I-200000J0D01*
G01*
X177387000Y-74528000D01*
G75*
G02*
X177187000Y-74328000I0J200000D01*
G01*
G37*
%TD.AperFunction*%
%TD*%
D15*
%TO.P,J2,MP*%
%TO.N,GND*%
X138122000Y-78898000D03*
X152962000Y-78898000D03*
D16*
%TO.P,J2,24*%
%TO.N,Net-(J2-Pad24)*%
X139792000Y-80598000D03*
%TO.P,J2,23*%
%TO.N,GND*%
X140292000Y-80598000D03*
%TO.P,J2,22*%
%TO.N,/OV2_SDA*%
X140792000Y-80598000D03*
%TO.P,J2,21*%
%TO.N,+2V8*%
X141292000Y-80598000D03*
%TO.P,J2,20*%
%TO.N,/OV2_SCL*%
X141792000Y-80598000D03*
%TO.P,J2,19*%
%TO.N,/OV2_RESET*%
X142292000Y-80598000D03*
%TO.P,J2,18*%
%TO.N,/OV2_VSYNC*%
X142792000Y-80598000D03*
%TO.P,J2,17*%
%TO.N,/OV2_PWDN*%
X143292000Y-80598000D03*
%TO.P,J2,16*%
%TO.N,/OV2_HREF*%
X143792000Y-80598000D03*
%TO.P,J2,15*%
%TO.N,+1V5*%
X144292000Y-80598000D03*
%TO.P,J2,14*%
%TO.N,+2V8*%
X144792000Y-80598000D03*
%TO.P,J2,13*%
%TO.N,/OV2_D7*%
X145292000Y-80598000D03*
%TO.P,J2,12*%
%TO.N,/OV2_XCLK*%
X145792000Y-80598000D03*
%TO.P,J2,11*%
%TO.N,/OV2_D6*%
X146292000Y-80598000D03*
%TO.P,J2,10*%
%TO.N,GND*%
X146792000Y-80598000D03*
%TO.P,J2,9*%
%TO.N,/OV2_D5*%
X147292000Y-80598000D03*
%TO.P,J2,8*%
%TO.N,/OV2_PCLK*%
X147792000Y-80598000D03*
%TO.P,J2,7*%
%TO.N,/OV2_D4*%
X148292000Y-80598000D03*
%TO.P,J2,6*%
%TO.N,/OV2_D0*%
X148792000Y-80598000D03*
%TO.P,J2,5*%
%TO.N,/OV2_D3*%
X149292000Y-80598000D03*
%TO.P,J2,4*%
%TO.N,/OV2_D1*%
X149792000Y-80598000D03*
%TO.P,J2,3*%
%TO.N,/OV2_D2*%
X150292000Y-80598000D03*
%TO.P,J2,2*%
%TO.N,+2V8*%
X150792000Y-80598000D03*
%TO.P,J2,1*%
%TO.N,GND*%
X151292000Y-80598000D03*
%TD*%
D15*
%TO.P,J1,MP*%
%TO.N,GND*%
X177238000Y-78898000D03*
X192078000Y-78898000D03*
D16*
%TO.P,J1,24*%
%TO.N,Net-(J1-Pad24)*%
X178908000Y-80598000D03*
%TO.P,J1,23*%
%TO.N,GND*%
X179408000Y-80598000D03*
%TO.P,J1,22*%
%TO.N,/OV1_SDA*%
X179908000Y-80598000D03*
%TO.P,J1,21*%
%TO.N,+2V8*%
X180408000Y-80598000D03*
%TO.P,J1,20*%
%TO.N,/OV1_SCL*%
X180908000Y-80598000D03*
%TO.P,J1,19*%
%TO.N,/OV1_RESET*%
X181408000Y-80598000D03*
%TO.P,J1,18*%
%TO.N,/OV1_VSYNC*%
X181908000Y-80598000D03*
%TO.P,J1,17*%
%TO.N,/OV1_PWDN*%
X182408000Y-80598000D03*
%TO.P,J1,16*%
%TO.N,/OV1_HREF*%
X182908000Y-80598000D03*
%TO.P,J1,15*%
%TO.N,+1V5*%
X183408000Y-80598000D03*
%TO.P,J1,14*%
%TO.N,+2V8*%
X183908000Y-80598000D03*
%TO.P,J1,13*%
%TO.N,/OV1_D7*%
X184408000Y-80598000D03*
%TO.P,J1,12*%
%TO.N,/OV1_XCLK*%
X184908000Y-80598000D03*
%TO.P,J1,11*%
%TO.N,/OV1_D6*%
X185408000Y-80598000D03*
%TO.P,J1,10*%
%TO.N,GND*%
X185908000Y-80598000D03*
%TO.P,J1,9*%
%TO.N,/OV1_D5*%
X186408000Y-80598000D03*
%TO.P,J1,8*%
%TO.N,/OV1_PCLK*%
X186908000Y-80598000D03*
%TO.P,J1,7*%
%TO.N,/OV1_D4*%
X187408000Y-80598000D03*
%TO.P,J1,6*%
%TO.N,/OV1_D0*%
X187908000Y-80598000D03*
%TO.P,J1,5*%
%TO.N,/OV1_D3*%
X188408000Y-80598000D03*
%TO.P,J1,4*%
%TO.N,/OV1_D1*%
X188908000Y-80598000D03*
%TO.P,J1,3*%
%TO.N,/OV1_D2*%
X189408000Y-80598000D03*
%TO.P,J1,2*%
%TO.N,+2V8*%
X189908000Y-80598000D03*
%TO.P,J1,1*%
%TO.N,GND*%
X190408000Y-80598000D03*
%TD*%
%TO.P,D1,2*%
%TO.N,Net-(D1-Pad2)*%
%TA.AperFunction,SMDPad,CuDef*%
G36*
G01*
X165356250Y-88804000D02*
X164843750Y-88804000D01*
G75*
G02*
X164625000Y-88585250I0J218750D01*
G01*
X164625000Y-88147750D01*
G75*
G02*
X164843750Y-87929000I218750J0D01*
G01*
X165356250Y-87929000D01*
G75*
G02*
X165575000Y-88147750I0J-218750D01*
G01*
X165575000Y-88585250D01*
G75*
G02*
X165356250Y-88804000I-218750J0D01*
G01*
G37*
%TD.AperFunction*%
%TO.P,D1,1*%
%TO.N,GND*%
%TA.AperFunction,SMDPad,CuDef*%
G36*
G01*
X165356250Y-90379000D02*
X164843750Y-90379000D01*
G75*
G02*
X164625000Y-90160250I0J218750D01*
G01*
X164625000Y-89722750D01*
G75*
G02*
X164843750Y-89504000I218750J0D01*
G01*
X165356250Y-89504000D01*
G75*
G02*
X165575000Y-89722750I0J-218750D01*
G01*
X165575000Y-90160250D01*
G75*
G02*
X165356250Y-90379000I-218750J0D01*
G01*
G37*
%TD.AperFunction*%
%TD*%
D17*
%TO.N,GND*%
X142233000Y-58992000D03*
X144011000Y-58103000D03*
X145789000Y-58103000D03*
X149345000Y-58103000D03*
X148456000Y-58103000D03*
X149345000Y-59881000D03*
X144011000Y-58992000D03*
X148456000Y-59881000D03*
X146678000Y-58103000D03*
X144011000Y-59881000D03*
X144900000Y-58992000D03*
X147567000Y-58103000D03*
X143122000Y-58103000D03*
X142233000Y-59881000D03*
X147567000Y-58992000D03*
X143122000Y-58992000D03*
X144900000Y-58103000D03*
X145789000Y-59881000D03*
X142233000Y-58103000D03*
X143122000Y-59881000D03*
X146678000Y-58992000D03*
X144900000Y-59881000D03*
X147567000Y-59881000D03*
X146678000Y-59881000D03*
X148456000Y-58992000D03*
X149345000Y-58992000D03*
X145789000Y-58992000D03*
X182746000Y-59119000D03*
X184524000Y-59119000D03*
X188080000Y-59119000D03*
X187191000Y-59119000D03*
X185413000Y-59119000D03*
X186302000Y-59119000D03*
X181857000Y-59119000D03*
X183635000Y-59119000D03*
X180968000Y-59119000D03*
X182746000Y-60008000D03*
X184524000Y-60008000D03*
X188080000Y-60008000D03*
X187191000Y-60008000D03*
X185413000Y-60008000D03*
X186302000Y-60008000D03*
X181857000Y-60008000D03*
X183635000Y-60008000D03*
X180968000Y-60008000D03*
X166871000Y-70168000D03*
X163315000Y-70168000D03*
X164204000Y-70168000D03*
X165982000Y-70168000D03*
X162426000Y-70168000D03*
X165093000Y-70168000D03*
X166871000Y-71057000D03*
X163315000Y-71057000D03*
X164204000Y-71057000D03*
X165982000Y-71057000D03*
X162426000Y-71057000D03*
X165093000Y-71057000D03*
D18*
X147821000Y-75248000D03*
D17*
X162426000Y-69279000D03*
X163315000Y-69279000D03*
X164204000Y-69279000D03*
X165093000Y-69279000D03*
X165982000Y-69279000D03*
X166871000Y-69279000D03*
X180968000Y-58230000D03*
X181857000Y-58230000D03*
X182746000Y-58230000D03*
X183635000Y-58230000D03*
X184524000Y-58230000D03*
X185413000Y-58230000D03*
X186302000Y-58230000D03*
X187191000Y-58230000D03*
X188080000Y-58230000D03*
D18*
X149980000Y-76645000D03*
X187191000Y-78677000D03*
%TO.N,+3V3*%
X174700000Y-75600000D03*
X157473000Y-72708000D03*
%TO.N,+1V5*%
X144300000Y-78900000D03*
X183143027Y-79454040D03*
X174110000Y-79565996D03*
%TO.N,/OV1_XCLK*%
X169350000Y-80550000D03*
X184905000Y-79438986D03*
%TO.N,/OV2_XCLK*%
X160950000Y-80550000D03*
X147186000Y-78677000D03*
%TD*%
D19*
%TO.N,GND*%
X165100000Y-89941500D02*
X166370000Y-91211500D01*
%TO.N,+3V3*%
X174220000Y-76080000D02*
X174700000Y-75600000D01*
X174220000Y-77850000D02*
X174220000Y-76080000D01*
X157473000Y-72708000D02*
X157473000Y-75100990D01*
X157480000Y-75809000D02*
X157480000Y-77762500D01*
X157480000Y-76630000D02*
X157480000Y-77762500D01*
D20*
X174220000Y-77850000D02*
X174299000Y-77850000D01*
X174299000Y-77850000D02*
X174999000Y-78550000D01*
X174999000Y-78550000D02*
X174999000Y-80709000D01*
X170427000Y-85281000D02*
X165100000Y-85281000D01*
X174999000Y-80709000D02*
X170427000Y-85281000D01*
%TO.N,+2V8*%
X148490010Y-70109990D02*
X153304990Y-70109990D01*
X141292000Y-80598000D02*
X141292000Y-77308000D01*
X141292000Y-77308000D02*
X148490010Y-70109990D01*
D19*
X154075000Y-72404000D02*
X154105000Y-72434000D01*
X154075000Y-69150000D02*
X154075000Y-72404000D01*
D20*
X150792000Y-80598000D02*
X150792000Y-75692000D01*
D19*
X157480000Y-81139000D02*
X157555000Y-81214000D01*
D20*
X144792000Y-80598000D02*
X144792000Y-79743998D01*
X144792000Y-79743998D02*
X148885998Y-75650000D01*
X160654999Y-76175001D02*
X158980000Y-77850000D01*
X165131001Y-76175001D02*
X160654999Y-76175001D01*
X166106000Y-77150000D02*
X165131001Y-76175001D01*
X166300000Y-77150000D02*
X166106000Y-77150000D01*
D19*
X158980000Y-78265000D02*
X157555000Y-79690000D01*
X158980000Y-77850000D02*
X158980000Y-78265000D01*
X157555000Y-79690000D02*
X157555000Y-81214000D01*
X154105000Y-70910000D02*
X157453000Y-70910000D01*
X158980000Y-72437000D02*
X158980000Y-77850000D01*
X157453000Y-70910000D02*
X158980000Y-72437000D01*
D20*
X150750000Y-75650000D02*
X150792000Y-75692000D01*
X148885998Y-75650000D02*
X150750000Y-75650000D01*
X189908000Y-79798000D02*
X187771000Y-77661000D01*
X189908000Y-80598000D02*
X189908000Y-79798000D01*
X184016000Y-77661000D02*
X183908000Y-77553000D01*
X187771000Y-77661000D02*
X184016000Y-77661000D01*
D19*
X177587000Y-73799000D02*
X177587000Y-70415000D01*
X177587000Y-70415000D02*
X177587000Y-70290910D01*
D20*
X183982266Y-77627266D02*
X183908000Y-77553000D01*
X183908000Y-80598000D02*
X183908000Y-79904309D01*
X183908000Y-79904309D02*
X183982266Y-79830043D01*
X183982266Y-79830043D02*
X183982266Y-77627266D01*
X178737000Y-73089000D02*
X177587000Y-71939000D01*
X179744478Y-73089000D02*
X178737000Y-73089000D01*
X180408000Y-73752522D02*
X179744478Y-73089000D01*
X180408000Y-80598000D02*
X180408000Y-73752522D01*
X182873000Y-76518000D02*
X183908000Y-77553000D01*
X182873000Y-71184000D02*
X182873000Y-76518000D01*
X179952000Y-68263000D02*
X182873000Y-71184000D01*
X178428000Y-69660000D02*
X178428000Y-68263000D01*
X177673000Y-70415000D02*
X178428000Y-69660000D01*
X178428000Y-68263000D02*
X179952000Y-68263000D01*
X177587000Y-70415000D02*
X177673000Y-70415000D01*
X155201500Y-68263000D02*
X179190000Y-68263000D01*
X154314500Y-69150000D02*
X155201500Y-68263000D01*
X154075000Y-69150000D02*
X154314500Y-69150000D01*
X154075000Y-69339980D02*
X154075000Y-69150000D01*
X153304990Y-70109990D02*
X154075000Y-69339980D01*
X153282000Y-73257000D02*
X154105000Y-72434000D01*
X153282000Y-74613000D02*
X153282000Y-73257000D01*
X152245000Y-75650000D02*
X153282000Y-74613000D01*
X150750000Y-75650000D02*
X152245000Y-75650000D01*
%TO.N,+1V5*%
X144292000Y-80598000D02*
X144292000Y-78908000D01*
X144292000Y-78908000D02*
X144300000Y-78900000D01*
D19*
X172720000Y-81189000D02*
X172695000Y-81214000D01*
X172720000Y-77762500D02*
X172720000Y-81189000D01*
D20*
X183408000Y-80598000D02*
X183408000Y-79719013D01*
X183408000Y-79719013D02*
X183143027Y-79454040D01*
X172720000Y-78175996D02*
X174110000Y-79565996D01*
X172720000Y-77762500D02*
X172720000Y-78175996D01*
D19*
%TO.N,Net-(D1-Pad2)*%
X165100000Y-88366500D02*
X165100000Y-86931000D01*
D20*
%TO.N,/OV1_D2*%
X189408000Y-80598000D02*
X189419009Y-80609009D01*
X187865001Y-90958409D02*
X187865001Y-94328999D01*
X189419009Y-80609009D02*
X189419009Y-89404401D01*
X189419009Y-89404401D02*
X187865001Y-90958409D01*
X187865001Y-94328999D02*
X186690000Y-95504000D01*
%TO.N,/OV1_D1*%
X186690000Y-92964000D02*
X186690000Y-91497000D01*
X188908000Y-89279000D02*
X188908000Y-80598000D01*
X186690000Y-91497000D02*
X188908000Y-89279000D01*
%TO.N,/OV1_D3*%
X188408000Y-80598000D02*
X188408000Y-88890000D01*
X185325001Y-94328999D02*
X184150000Y-95504000D01*
X185325001Y-91972999D02*
X185325001Y-94328999D01*
X188408000Y-88890000D02*
X185325001Y-91972999D01*
%TO.N,/OV1_D0*%
X184150000Y-92964000D02*
X184150000Y-92259000D01*
X187908000Y-88501000D02*
X187908000Y-80598000D01*
X184150000Y-92259000D02*
X187908000Y-88501000D01*
%TO.N,/OV1_D4*%
X187408000Y-80598000D02*
X187408000Y-87478410D01*
X187408000Y-87478410D02*
X182785001Y-92101409D01*
X182785001Y-92101409D02*
X182785001Y-94328999D01*
X182785001Y-94328999D02*
X181610000Y-95504000D01*
%TO.N,/OV1_PCLK*%
X181610000Y-92964000D02*
X181610000Y-92640000D01*
X186908000Y-87342000D02*
X186908000Y-80598000D01*
X181610000Y-92640000D02*
X186908000Y-87342000D01*
%TO.N,/OV1_D5*%
X186408000Y-80598000D02*
X186408000Y-86699000D01*
X186408000Y-86699000D02*
X181476000Y-91631000D01*
X180245001Y-92589997D02*
X180245001Y-94328999D01*
X181203998Y-91631000D02*
X180245001Y-92589997D01*
X180245001Y-94328999D02*
X179070000Y-95504000D01*
X181476000Y-91631000D02*
X181203998Y-91631000D01*
%TO.N,/OV1_D6*%
X185408000Y-86626000D02*
X185408000Y-80598000D01*
X179070000Y-92964000D02*
X185408000Y-86626000D01*
%TO.N,/OV1_XCLK*%
X166500000Y-80581000D02*
X169319000Y-80581000D01*
X169319000Y-80581000D02*
X169350000Y-80550000D01*
X184908000Y-80598000D02*
X184908000Y-79441986D01*
X184908000Y-79441986D02*
X184905000Y-79438986D01*
X184908000Y-80598000D02*
X184908000Y-84897000D01*
X177705001Y-94328999D02*
X176530000Y-95504000D01*
X177705001Y-92099999D02*
X177705001Y-94328999D01*
X184908000Y-84897000D02*
X177705001Y-92099999D01*
%TO.N,/OV1_D7*%
X184408000Y-84760590D02*
X176530000Y-92638590D01*
X184408000Y-80598000D02*
X184408000Y-84760590D01*
X176530000Y-92638590D02*
X176530000Y-92964000D01*
%TO.N,/OV1_HREF*%
X175165001Y-92609409D02*
X175165001Y-94328999D01*
X182908000Y-80598000D02*
X182908000Y-84425590D01*
X182908000Y-84425590D02*
X182942009Y-84459599D01*
X175165001Y-94328999D02*
X173990000Y-95504000D01*
X182942009Y-84459599D02*
X182942009Y-84832401D01*
X182942009Y-84832401D02*
X175165001Y-92609409D01*
%TO.N,/OV1_PWDN*%
X182408000Y-72062000D02*
X182408000Y-80598000D01*
X179237000Y-68891000D02*
X182408000Y-72062000D01*
X182408000Y-84546000D02*
X182408000Y-80598000D01*
X173990000Y-92964000D02*
X182408000Y-84546000D01*
%TO.N,/OV1_VSYNC*%
X181908000Y-80598000D02*
X181908000Y-83072410D01*
X181908000Y-83072410D02*
X172625001Y-92355409D01*
X172625001Y-92355409D02*
X172625001Y-94328999D01*
X172625001Y-94328999D02*
X171450000Y-95504000D01*
%TO.N,/OV1_RESET*%
X181408000Y-72586000D02*
X181408000Y-80598000D01*
X179237000Y-70415000D02*
X181408000Y-72586000D01*
X171450000Y-92964000D02*
X171450000Y-92894000D01*
X181408000Y-82936000D02*
X181408000Y-80598000D01*
X171450000Y-92894000D02*
X181408000Y-82936000D01*
%TO.N,/OV1_SCL*%
X180908000Y-73610000D02*
X180908000Y-80598000D01*
X179237000Y-71939000D02*
X180908000Y-73610000D01*
X180908000Y-80598000D02*
X180908000Y-81659410D01*
X180908000Y-81659410D02*
X170085001Y-92482409D01*
X170085001Y-92482409D02*
X170085001Y-94328999D01*
X170085001Y-94328999D02*
X168910000Y-95504000D01*
%TO.N,/OV1_SDA*%
X179908000Y-74470000D02*
X179908000Y-80598000D01*
X179237000Y-73799000D02*
X179908000Y-74470000D01*
X168910000Y-92964000D02*
X179895000Y-81979000D01*
X179895000Y-80611000D02*
X179908000Y-80598000D01*
X179895000Y-81979000D02*
X179895000Y-80611000D01*
%TO.N,/OV2_D2*%
X150292000Y-81270770D02*
X158032197Y-89010967D01*
X158032197Y-89010967D02*
X159876967Y-89010967D01*
X150292000Y-80598000D02*
X150292000Y-81270770D01*
X159876967Y-89010967D02*
X163830000Y-92964000D01*
%TO.N,/OV2_D1*%
X157845798Y-89460978D02*
X149792000Y-81407180D01*
X162654999Y-92494999D02*
X159620978Y-89460978D01*
X149792000Y-81407180D02*
X149792000Y-80598000D01*
X159620978Y-89460978D02*
X157845798Y-89460978D01*
X162654999Y-94328999D02*
X162654999Y-92494999D01*
X163830000Y-95504000D02*
X162654999Y-94328999D01*
%TO.N,/OV2_D3*%
X149292000Y-81543590D02*
X149292000Y-80598000D01*
X157659399Y-89910989D02*
X149292000Y-81543590D01*
X161290000Y-92964000D02*
X161290000Y-92906589D01*
X161290000Y-92906589D02*
X158294400Y-89910989D01*
X158294400Y-89910989D02*
X157659399Y-89910989D01*
%TO.N,/OV2_D0*%
X160114999Y-94328999D02*
X161290000Y-95504000D01*
X160114999Y-92589997D02*
X160114999Y-92672001D01*
X160114999Y-92672001D02*
X160114999Y-94328999D01*
X160114999Y-94328999D02*
X160114999Y-92589997D01*
X148792000Y-81553000D02*
X148792000Y-80598000D01*
X148841990Y-81602990D02*
X148792000Y-81553000D01*
X148841991Y-81729991D02*
X148841990Y-81602990D01*
X157473000Y-90361000D02*
X148841991Y-81729991D01*
X158108000Y-90361000D02*
X157473000Y-90361000D01*
X160114999Y-92367999D02*
X158108000Y-90361000D01*
X160114999Y-92589997D02*
X160114999Y-92367999D01*
%TO.N,/OV2_D4*%
X148292000Y-82506000D02*
X148292000Y-80598000D01*
X158750000Y-92964000D02*
X148292000Y-82506000D01*
%TO.N,/OV2_PCLK*%
X147792000Y-80598000D02*
X147792000Y-82710590D01*
X157574999Y-94328999D02*
X158750000Y-95504000D01*
X147792000Y-82710590D02*
X157574999Y-92493589D01*
X157574999Y-92493589D02*
X157574999Y-94328999D01*
%TO.N,/OV2_D5*%
X147292000Y-80598000D02*
X147292000Y-82847000D01*
X156210000Y-91765000D02*
X156210000Y-92964000D01*
X147292000Y-82847000D02*
X156210000Y-91765000D01*
%TO.N,/OV2_D6*%
X155034999Y-94328999D02*
X155034999Y-91605999D01*
X156210000Y-95504000D02*
X155034999Y-94328999D01*
X155034999Y-91605999D02*
X146308020Y-82879020D01*
X146308020Y-82879020D02*
X146308020Y-80614020D01*
X146308020Y-80614020D02*
X146292000Y-80598000D01*
%TO.N,/OV2_XCLK*%
X163750000Y-80575000D02*
X160975000Y-80575000D01*
X160975000Y-80575000D02*
X160950000Y-80550000D01*
X145792000Y-80598000D02*
X145792000Y-79505313D01*
X146620315Y-78677000D02*
X147186000Y-78677000D01*
X145792000Y-79505313D02*
X146620315Y-78677000D01*
X153670000Y-91761919D02*
X145792000Y-83883919D01*
X153670000Y-92964000D02*
X153670000Y-91761919D01*
X145792000Y-83883919D02*
X145792000Y-80598000D01*
%TO.N,/OV2_D7*%
X145292000Y-80598000D02*
X145292000Y-84276000D01*
X152494999Y-94328999D02*
X153670000Y-95504000D01*
X152494999Y-91478999D02*
X152494999Y-94328999D01*
X145292000Y-84276000D02*
X152494999Y-91478999D01*
%TO.N,/OV2_HREF*%
X151130000Y-92964000D02*
X151130000Y-91003000D01*
X143792000Y-83665000D02*
X143792000Y-80598000D01*
X151130000Y-91003000D02*
X143792000Y-83665000D01*
%TO.N,/OV2_PWDN*%
X152455000Y-73958000D02*
X147642000Y-73958000D01*
X143292000Y-78308000D02*
X143292000Y-80598000D01*
X147642000Y-73958000D02*
X143292000Y-78308000D01*
X143292000Y-85192768D02*
X149954999Y-91855767D01*
X149954999Y-91855767D02*
X149954999Y-94328999D01*
X143292000Y-80598000D02*
X143292000Y-85192768D01*
X149954999Y-94328999D02*
X151130000Y-95504000D01*
%TO.N,/OV2_VSYNC*%
X142821031Y-85358210D02*
X148590000Y-91127179D01*
X142821031Y-84848799D02*
X142821031Y-85358210D01*
X142792000Y-80598000D02*
X142792000Y-84819768D01*
X142792000Y-84819768D02*
X142821031Y-84848799D01*
X148590000Y-91127179D02*
X148590000Y-92964000D01*
%TO.N,/OV2_RESET*%
X142292000Y-80598000D02*
X142292000Y-78158000D01*
X148016000Y-72434000D02*
X152455000Y-72434000D01*
X142292000Y-78158000D02*
X148016000Y-72434000D01*
X147414999Y-90588589D02*
X147414999Y-94328999D01*
X142292000Y-80598000D02*
X142292000Y-84956179D01*
X142371020Y-85544610D02*
X147414999Y-90588589D01*
X147414999Y-94328999D02*
X148590000Y-95504000D01*
X142371020Y-85035199D02*
X142371020Y-85544610D01*
X142292000Y-84956179D02*
X142371020Y-85035199D01*
%TO.N,/OV2_SCL*%
X152455000Y-70910000D02*
X148626410Y-70910000D01*
X148626410Y-70910000D02*
X141792000Y-77744410D01*
X141792000Y-77744410D02*
X141792000Y-80598000D01*
X146050000Y-91761919D02*
X141792000Y-87503919D01*
X146050000Y-92964000D02*
X146050000Y-91761919D01*
X141792000Y-87503919D02*
X141792000Y-80598000D01*
%TO.N,/OV2_SDA*%
X140792000Y-80598000D02*
X140792000Y-76921590D01*
X148327590Y-69386000D02*
X152055000Y-69386000D01*
X152055000Y-69386000D02*
X152455000Y-69386000D01*
X140792000Y-76921590D02*
X148327590Y-69386000D01*
X140792000Y-80598000D02*
X140792000Y-87650000D01*
X144874999Y-91732999D02*
X144874999Y-94328999D01*
X144874999Y-94328999D02*
X146050000Y-95504000D01*
X140792000Y-87650000D02*
X144874999Y-91732999D01*
D19*
%TO.N,Net-(R10-Pad2)*%
X163900000Y-78775000D02*
X163750000Y-78925000D01*
X163900000Y-77150000D02*
X163900000Y-78775000D01*
X166494000Y-78925000D02*
X166500000Y-78931000D01*
X163750000Y-78925000D02*
X166494000Y-78925000D01*
%TD*%
D21*
%TO.N,GND*%
X149564636Y-54471400D02*
X150050055Y-54617956D01*
X150497754Y-54856001D01*
X150890699Y-55176480D01*
X151213907Y-55567171D01*
X151455076Y-56013205D01*
X151605017Y-56497583D01*
X151660000Y-57020713D01*
X151660001Y-57021107D01*
X151660000Y-64039647D01*
X151660068Y-64040338D01*
X151660075Y-64042338D01*
X151661841Y-64059724D01*
X151661719Y-64077197D01*
X151662264Y-64082755D01*
X151723465Y-64665045D01*
X151730750Y-64700534D01*
X151737548Y-64736170D01*
X151739163Y-64741517D01*
X151912299Y-65300830D01*
X151926340Y-65334231D01*
X151939929Y-65367865D01*
X151942551Y-65372797D01*
X152221028Y-65887829D01*
X152241301Y-65917885D01*
X152261152Y-65948220D01*
X152264678Y-65952543D01*
X152264682Y-65952549D01*
X152264687Y-65952554D01*
X152637892Y-66403683D01*
X152663618Y-66429231D01*
X152688982Y-66455131D01*
X152693285Y-66458691D01*
X153147013Y-66828742D01*
X153177221Y-66848812D01*
X153207123Y-66869286D01*
X153212036Y-66871943D01*
X153728999Y-67146818D01*
X153762523Y-67160636D01*
X153795840Y-67174915D01*
X153801175Y-67176567D01*
X154361683Y-67345794D01*
X154397261Y-67352838D01*
X154432708Y-67360373D01*
X154438263Y-67360957D01*
X155020965Y-67418092D01*
X155020982Y-67418092D01*
X155040354Y-67420000D01*
X175079647Y-67420000D01*
X175080327Y-67419933D01*
X175082338Y-67419926D01*
X175099724Y-67418160D01*
X175117197Y-67418282D01*
X175122755Y-67417737D01*
X175705045Y-67356536D01*
X175740564Y-67349245D01*
X175776171Y-67342452D01*
X175781518Y-67340838D01*
X176340831Y-67167701D01*
X176374236Y-67153659D01*
X176407865Y-67140072D01*
X176412796Y-67137450D01*
X176927828Y-66858974D01*
X176957861Y-66838716D01*
X176988221Y-66818849D01*
X176992549Y-66815319D01*
X177443682Y-66442109D01*
X177469212Y-66416399D01*
X177495130Y-66391019D01*
X177498690Y-66386716D01*
X177868742Y-65932988D01*
X177888801Y-65902796D01*
X177909287Y-65872877D01*
X177911943Y-65867964D01*
X178186817Y-65351000D01*
X178200624Y-65317502D01*
X178214914Y-65284160D01*
X178216566Y-65278825D01*
X178385793Y-64718317D01*
X178392837Y-64682739D01*
X178400372Y-64647292D01*
X178400956Y-64641737D01*
X178458091Y-64059035D01*
X178458091Y-64059031D01*
X178460000Y-64039648D01*
X178460000Y-57039554D01*
X178511398Y-56515364D01*
X178657954Y-56029945D01*
X178895999Y-55582246D01*
X179216478Y-55189301D01*
X179607169Y-54866093D01*
X180053203Y-54624924D01*
X180537581Y-54474983D01*
X181060711Y-54420000D01*
X188040426Y-54420000D01*
X188564636Y-54471400D01*
X189050053Y-54617955D01*
X189497753Y-54856002D01*
X189890700Y-55176481D01*
X190213907Y-55567173D01*
X190455076Y-56013204D01*
X190605015Y-56497580D01*
X190659999Y-57020712D01*
X190660001Y-57021393D01*
X190660000Y-64039646D01*
X190660068Y-64040337D01*
X190660075Y-64042339D01*
X190661841Y-64059725D01*
X190661719Y-64077198D01*
X190662264Y-64082756D01*
X190723465Y-64665046D01*
X190730750Y-64700535D01*
X190737548Y-64736171D01*
X190739163Y-64741518D01*
X190912299Y-65300830D01*
X190926345Y-65334243D01*
X190939929Y-65367865D01*
X190942551Y-65372797D01*
X191221028Y-65887829D01*
X191241301Y-65917885D01*
X191261152Y-65948220D01*
X191264678Y-65952543D01*
X191264682Y-65952549D01*
X191264687Y-65952554D01*
X191637892Y-66403683D01*
X191663618Y-66429231D01*
X191688982Y-66455131D01*
X191693285Y-66458691D01*
X192147013Y-66828742D01*
X192177187Y-66848789D01*
X192207123Y-66869287D01*
X192212036Y-66871943D01*
X192729000Y-67146817D01*
X192762498Y-67160624D01*
X192795840Y-67174914D01*
X192801175Y-67176566D01*
X193361683Y-67345793D01*
X193397261Y-67352837D01*
X193432708Y-67360372D01*
X193438263Y-67360956D01*
X194020965Y-67418091D01*
X194020969Y-67418091D01*
X194040352Y-67420000D01*
X196040435Y-67420000D01*
X196564636Y-67471399D01*
X197050051Y-67617954D01*
X197497753Y-67856000D01*
X197890698Y-68176479D01*
X198213907Y-68567171D01*
X198455076Y-69013205D01*
X198605017Y-69497583D01*
X198660000Y-70020713D01*
X198660001Y-70021107D01*
X198659999Y-80270436D01*
X198608600Y-80794637D01*
X198462045Y-81280053D01*
X198223997Y-81727757D01*
X197903521Y-82120698D01*
X197512829Y-82443907D01*
X197066794Y-82685077D01*
X196582418Y-82835016D01*
X196059287Y-82890000D01*
X191079647Y-82890000D01*
X191060000Y-82888065D01*
X191040354Y-82890000D01*
X191040353Y-82890000D01*
X190981586Y-82895788D01*
X190906186Y-82918660D01*
X190836697Y-82955803D01*
X190775789Y-83005789D01*
X190725803Y-83066697D01*
X190688660Y-83136186D01*
X190665788Y-83211586D01*
X190658065Y-83290000D01*
X190660001Y-83309657D01*
X190660000Y-96890001D01*
X139460000Y-96889999D01*
X139460000Y-95390735D01*
X139820000Y-95390735D01*
X139820000Y-95617265D01*
X139864194Y-95839443D01*
X139950884Y-96048729D01*
X140076737Y-96237082D01*
X140236918Y-96397263D01*
X140425271Y-96523116D01*
X140634557Y-96609806D01*
X140856735Y-96654000D01*
X141083265Y-96654000D01*
X141305443Y-96609806D01*
X141514729Y-96523116D01*
X141703082Y-96397263D01*
X141863263Y-96237082D01*
X141989116Y-96048729D01*
X142075806Y-95839443D01*
X142120000Y-95617265D01*
X142120000Y-95390735D01*
X142075806Y-95168557D01*
X141989116Y-94959271D01*
X141863263Y-94770918D01*
X141703082Y-94610737D01*
X141514729Y-94484884D01*
X141305443Y-94398194D01*
X141083265Y-94354000D01*
X140856735Y-94354000D01*
X140634557Y-94398194D01*
X140425271Y-94484884D01*
X140236918Y-94610737D01*
X140076737Y-94770918D01*
X139950884Y-94959271D01*
X139864194Y-95168557D01*
X139820000Y-95390735D01*
X139460000Y-95390735D01*
X139460000Y-92850735D01*
X139820000Y-92850735D01*
X139820000Y-93077265D01*
X139864194Y-93299443D01*
X139950884Y-93508729D01*
X140076737Y-93697082D01*
X140236918Y-93857263D01*
X140425271Y-93983116D01*
X140634557Y-94069806D01*
X140856735Y-94114000D01*
X141083265Y-94114000D01*
X141305443Y-94069806D01*
X141514729Y-93983116D01*
X141703082Y-93857263D01*
X141863263Y-93697082D01*
X141989116Y-93508729D01*
X142075806Y-93299443D01*
X142120000Y-93077265D01*
X142120000Y-92850735D01*
X142075806Y-92628557D01*
X141989116Y-92419271D01*
X141863263Y-92230918D01*
X141703082Y-92070737D01*
X141514729Y-91944884D01*
X141305443Y-91858194D01*
X141083265Y-91814000D01*
X140856735Y-91814000D01*
X140634557Y-91858194D01*
X140425271Y-91944884D01*
X140236918Y-92070737D01*
X140076737Y-92230918D01*
X139950884Y-92419271D01*
X139864194Y-92628557D01*
X139820000Y-92850735D01*
X139460000Y-92850735D01*
X139460000Y-83309647D01*
X139461935Y-83290000D01*
X139459745Y-83267759D01*
X139454212Y-83211586D01*
X139431340Y-83136186D01*
X139394197Y-83066697D01*
X139344211Y-83005789D01*
X139283303Y-82955803D01*
X139213814Y-82918660D01*
X139138414Y-82895788D01*
X139104969Y-82892494D01*
X139079647Y-82890000D01*
X139060000Y-82888065D01*
X139040354Y-82890000D01*
X134079554Y-82890000D01*
X133555364Y-82838602D01*
X133069949Y-82692047D01*
X132622242Y-82453997D01*
X132229302Y-82133523D01*
X131906093Y-81742830D01*
X131664923Y-81296795D01*
X131514984Y-80812419D01*
X131488644Y-80561807D01*
X132149246Y-80561807D01*
X132149246Y-80938193D01*
X132222676Y-81307347D01*
X132366712Y-81655082D01*
X132575821Y-81968035D01*
X132841966Y-82234180D01*
X133154919Y-82443289D01*
X133502654Y-82587325D01*
X133871808Y-82660755D01*
X134248194Y-82660755D01*
X134617348Y-82587325D01*
X134965083Y-82443289D01*
X135278036Y-82234180D01*
X135544181Y-81968035D01*
X135753290Y-81655082D01*
X135897326Y-81307347D01*
X135970756Y-80938193D01*
X135970756Y-80561807D01*
X135897326Y-80192653D01*
X135837409Y-80048000D01*
X139340549Y-80048000D01*
X139340549Y-81148000D01*
X139346341Y-81206810D01*
X139363496Y-81263360D01*
X139391353Y-81315477D01*
X139428842Y-81361158D01*
X139474523Y-81398647D01*
X139526640Y-81426504D01*
X139583190Y-81443659D01*
X139642000Y-81449451D01*
X139942000Y-81449451D01*
X140000810Y-81443659D01*
X140057360Y-81426504D01*
X140109477Y-81398647D01*
X140155158Y-81361158D01*
X140192647Y-81315477D01*
X140220504Y-81263360D01*
X140237659Y-81206810D01*
X140243451Y-81148000D01*
X140243451Y-80048000D01*
X140340549Y-80048000D01*
X140340549Y-81148000D01*
X140346341Y-81206810D01*
X140363496Y-81263360D01*
X140367000Y-81269916D01*
X140367001Y-87629123D01*
X140364945Y-87650000D01*
X140373150Y-87733314D01*
X140397453Y-87813427D01*
X140436917Y-87887260D01*
X140490027Y-87951974D01*
X140506239Y-87965279D01*
X144449999Y-91909039D01*
X144450000Y-94308122D01*
X144447944Y-94328999D01*
X144456149Y-94412313D01*
X144464804Y-94440842D01*
X144480452Y-94492426D01*
X144519916Y-94566259D01*
X144543659Y-94595190D01*
X144556419Y-94610737D01*
X144573026Y-94630973D01*
X144589238Y-94644278D01*
X144993788Y-95048828D01*
X144944194Y-95168557D01*
X144900000Y-95390735D01*
X144900000Y-95617265D01*
X144944194Y-95839443D01*
X145030884Y-96048729D01*
X145156737Y-96237082D01*
X145316918Y-96397263D01*
X145505271Y-96523116D01*
X145714557Y-96609806D01*
X145936735Y-96654000D01*
X146163265Y-96654000D01*
X146385443Y-96609806D01*
X146594729Y-96523116D01*
X146783082Y-96397263D01*
X146943263Y-96237082D01*
X147069116Y-96048729D01*
X147155806Y-95839443D01*
X147200000Y-95617265D01*
X147200000Y-95390735D01*
X147155806Y-95168557D01*
X147069116Y-94959271D01*
X146943263Y-94770918D01*
X146783082Y-94610737D01*
X146594729Y-94484884D01*
X146385443Y-94398194D01*
X146163265Y-94354000D01*
X145936735Y-94354000D01*
X145714557Y-94398194D01*
X145594828Y-94447788D01*
X145299999Y-94152959D01*
X145299999Y-93840344D01*
X145316918Y-93857263D01*
X145505271Y-93983116D01*
X145714557Y-94069806D01*
X145936735Y-94114000D01*
X146163265Y-94114000D01*
X146385443Y-94069806D01*
X146594729Y-93983116D01*
X146783082Y-93857263D01*
X146943263Y-93697082D01*
X146990000Y-93627135D01*
X146990000Y-94308122D01*
X146987944Y-94328999D01*
X146996149Y-94412313D01*
X147004804Y-94440842D01*
X147020452Y-94492426D01*
X147059916Y-94566259D01*
X147083659Y-94595190D01*
X147096419Y-94610737D01*
X147113026Y-94630973D01*
X147129238Y-94644278D01*
X147533788Y-95048828D01*
X147484194Y-95168557D01*
X147440000Y-95390735D01*
X147440000Y-95617265D01*
X147484194Y-95839443D01*
X147570884Y-96048729D01*
X147696737Y-96237082D01*
X147856918Y-96397263D01*
X148045271Y-96523116D01*
X148254557Y-96609806D01*
X148476735Y-96654000D01*
X148703265Y-96654000D01*
X148925443Y-96609806D01*
X149134729Y-96523116D01*
X149323082Y-96397263D01*
X149483263Y-96237082D01*
X149609116Y-96048729D01*
X149695806Y-95839443D01*
X149740000Y-95617265D01*
X149740000Y-95390735D01*
X149695806Y-95168557D01*
X149609116Y-94959271D01*
X149483263Y-94770918D01*
X149323082Y-94610737D01*
X149134729Y-94484884D01*
X148925443Y-94398194D01*
X148703265Y-94354000D01*
X148476735Y-94354000D01*
X148254557Y-94398194D01*
X148134828Y-94447788D01*
X147839999Y-94152959D01*
X147839999Y-93840344D01*
X147856918Y-93857263D01*
X148045271Y-93983116D01*
X148254557Y-94069806D01*
X148476735Y-94114000D01*
X148703265Y-94114000D01*
X148925443Y-94069806D01*
X149134729Y-93983116D01*
X149323082Y-93857263D01*
X149483263Y-93697082D01*
X149530000Y-93627135D01*
X149530000Y-94308122D01*
X149527944Y-94328999D01*
X149536149Y-94412313D01*
X149544804Y-94440842D01*
X149560452Y-94492426D01*
X149599916Y-94566259D01*
X149623659Y-94595190D01*
X149636419Y-94610737D01*
X149653026Y-94630973D01*
X149669238Y-94644278D01*
X150073788Y-95048828D01*
X150024194Y-95168557D01*
X149980000Y-95390735D01*
X149980000Y-95617265D01*
X150024194Y-95839443D01*
X150110884Y-96048729D01*
X150236737Y-96237082D01*
X150396918Y-96397263D01*
X150585271Y-96523116D01*
X150794557Y-96609806D01*
X151016735Y-96654000D01*
X151243265Y-96654000D01*
X151465443Y-96609806D01*
X151674729Y-96523116D01*
X151863082Y-96397263D01*
X152023263Y-96237082D01*
X152149116Y-96048729D01*
X152235806Y-95839443D01*
X152280000Y-95617265D01*
X152280000Y-95390735D01*
X152235806Y-95168557D01*
X152149116Y-94959271D01*
X152023263Y-94770918D01*
X151863082Y-94610737D01*
X151674729Y-94484884D01*
X151465443Y-94398194D01*
X151243265Y-94354000D01*
X151016735Y-94354000D01*
X150794557Y-94398194D01*
X150674828Y-94447788D01*
X150379999Y-94152959D01*
X150379999Y-93840344D01*
X150396918Y-93857263D01*
X150585271Y-93983116D01*
X150794557Y-94069806D01*
X151016735Y-94114000D01*
X151243265Y-94114000D01*
X151465443Y-94069806D01*
X151674729Y-93983116D01*
X151863082Y-93857263D01*
X152023263Y-93697082D01*
X152070000Y-93627135D01*
X152070000Y-94308122D01*
X152067944Y-94328999D01*
X152076149Y-94412313D01*
X152084804Y-94440842D01*
X152100452Y-94492426D01*
X152139916Y-94566259D01*
X152163659Y-94595190D01*
X152176419Y-94610737D01*
X152193026Y-94630973D01*
X152209238Y-94644278D01*
X152613788Y-95048828D01*
X152564194Y-95168557D01*
X152520000Y-95390735D01*
X152520000Y-95617265D01*
X152564194Y-95839443D01*
X152650884Y-96048729D01*
X152776737Y-96237082D01*
X152936918Y-96397263D01*
X153125271Y-96523116D01*
X153334557Y-96609806D01*
X153556735Y-96654000D01*
X153783265Y-96654000D01*
X154005443Y-96609806D01*
X154214729Y-96523116D01*
X154403082Y-96397263D01*
X154563263Y-96237082D01*
X154689116Y-96048729D01*
X154775806Y-95839443D01*
X154820000Y-95617265D01*
X154820000Y-95390735D01*
X154775806Y-95168557D01*
X154689116Y-94959271D01*
X154563263Y-94770918D01*
X154403082Y-94610737D01*
X154214729Y-94484884D01*
X154005443Y-94398194D01*
X153783265Y-94354000D01*
X153556735Y-94354000D01*
X153334557Y-94398194D01*
X153214828Y-94447788D01*
X152919999Y-94152959D01*
X152919999Y-93840344D01*
X152936918Y-93857263D01*
X153125271Y-93983116D01*
X153334557Y-94069806D01*
X153556735Y-94114000D01*
X153783265Y-94114000D01*
X154005443Y-94069806D01*
X154214729Y-93983116D01*
X154403082Y-93857263D01*
X154563263Y-93697082D01*
X154609999Y-93627136D01*
X154609999Y-94308132D01*
X154607944Y-94328999D01*
X154609999Y-94349866D01*
X154609999Y-94349872D01*
X154615267Y-94403353D01*
X154616149Y-94412313D01*
X154623521Y-94436615D01*
X154640451Y-94492425D01*
X154679915Y-94566258D01*
X154733025Y-94630973D01*
X154749242Y-94644282D01*
X155153788Y-95048828D01*
X155104194Y-95168557D01*
X155060000Y-95390735D01*
X155060000Y-95617265D01*
X155104194Y-95839443D01*
X155190884Y-96048729D01*
X155316737Y-96237082D01*
X155476918Y-96397263D01*
X155665271Y-96523116D01*
X155874557Y-96609806D01*
X156096735Y-96654000D01*
X156323265Y-96654000D01*
X156545443Y-96609806D01*
X156754729Y-96523116D01*
X156943082Y-96397263D01*
X157103263Y-96237082D01*
X157229116Y-96048729D01*
X157315806Y-95839443D01*
X157360000Y-95617265D01*
X157360000Y-95390735D01*
X157315806Y-95168557D01*
X157229116Y-94959271D01*
X157103263Y-94770918D01*
X156943082Y-94610737D01*
X156754729Y-94484884D01*
X156545443Y-94398194D01*
X156323265Y-94354000D01*
X156096735Y-94354000D01*
X155874557Y-94398194D01*
X155754828Y-94447788D01*
X155459999Y-94152959D01*
X155459999Y-93840344D01*
X155476918Y-93857263D01*
X155665271Y-93983116D01*
X155874557Y-94069806D01*
X156096735Y-94114000D01*
X156323265Y-94114000D01*
X156545443Y-94069806D01*
X156754729Y-93983116D01*
X156943082Y-93857263D01*
X157103263Y-93697082D01*
X157150000Y-93627135D01*
X157150000Y-94308122D01*
X157147944Y-94328999D01*
X157156149Y-94412313D01*
X157164804Y-94440842D01*
X157180452Y-94492426D01*
X157219916Y-94566259D01*
X157243659Y-94595190D01*
X157256419Y-94610737D01*
X157273026Y-94630973D01*
X157289238Y-94644278D01*
X157693788Y-95048828D01*
X157644194Y-95168557D01*
X157600000Y-95390735D01*
X157600000Y-95617265D01*
X157644194Y-95839443D01*
X157730884Y-96048729D01*
X157856737Y-96237082D01*
X158016918Y-96397263D01*
X158205271Y-96523116D01*
X158414557Y-96609806D01*
X158636735Y-96654000D01*
X158863265Y-96654000D01*
X159085443Y-96609806D01*
X159294729Y-96523116D01*
X159483082Y-96397263D01*
X159643263Y-96237082D01*
X159769116Y-96048729D01*
X159855806Y-95839443D01*
X159900000Y-95617265D01*
X159900000Y-95390735D01*
X159855806Y-95168557D01*
X159769116Y-94959271D01*
X159643263Y-94770918D01*
X159483082Y-94610737D01*
X159294729Y-94484884D01*
X159085443Y-94398194D01*
X158863265Y-94354000D01*
X158636735Y-94354000D01*
X158414557Y-94398194D01*
X158294828Y-94447788D01*
X157999999Y-94152959D01*
X157999999Y-93840344D01*
X158016918Y-93857263D01*
X158205271Y-93983116D01*
X158414557Y-94069806D01*
X158636735Y-94114000D01*
X158863265Y-94114000D01*
X159085443Y-94069806D01*
X159294729Y-93983116D01*
X159483082Y-93857263D01*
X159643263Y-93697082D01*
X159689999Y-93627136D01*
X159689999Y-94308132D01*
X159687944Y-94328999D01*
X159689999Y-94349866D01*
X159689999Y-94349872D01*
X159695267Y-94403353D01*
X159696149Y-94412313D01*
X159703521Y-94436615D01*
X159720451Y-94492425D01*
X159759915Y-94566258D01*
X159813025Y-94630973D01*
X159829242Y-94644282D01*
X160233788Y-95048828D01*
X160184194Y-95168557D01*
X160140000Y-95390735D01*
X160140000Y-95617265D01*
X160184194Y-95839443D01*
X160270884Y-96048729D01*
X160396737Y-96237082D01*
X160556918Y-96397263D01*
X160745271Y-96523116D01*
X160954557Y-96609806D01*
X161176735Y-96654000D01*
X161403265Y-96654000D01*
X161625443Y-96609806D01*
X161834729Y-96523116D01*
X162023082Y-96397263D01*
X162183263Y-96237082D01*
X162309116Y-96048729D01*
X162395806Y-95839443D01*
X162440000Y-95617265D01*
X162440000Y-95390735D01*
X162395806Y-95168557D01*
X162309116Y-94959271D01*
X162183263Y-94770918D01*
X162023082Y-94610737D01*
X161834729Y-94484884D01*
X161625443Y-94398194D01*
X161403265Y-94354000D01*
X161176735Y-94354000D01*
X160954557Y-94398194D01*
X160834828Y-94447788D01*
X160539999Y-94152959D01*
X160539999Y-93840344D01*
X160556918Y-93857263D01*
X160745271Y-93983116D01*
X160954557Y-94069806D01*
X161176735Y-94114000D01*
X161403265Y-94114000D01*
X161625443Y-94069806D01*
X161834729Y-93983116D01*
X162023082Y-93857263D01*
X162183263Y-93697082D01*
X162229999Y-93627136D01*
X162229999Y-94308132D01*
X162227944Y-94328999D01*
X162229999Y-94349866D01*
X162229999Y-94349872D01*
X162235267Y-94403353D01*
X162236149Y-94412313D01*
X162243521Y-94436615D01*
X162260451Y-94492425D01*
X162299915Y-94566258D01*
X162353025Y-94630973D01*
X162369242Y-94644282D01*
X162773788Y-95048828D01*
X162724194Y-95168557D01*
X162680000Y-95390735D01*
X162680000Y-95617265D01*
X162724194Y-95839443D01*
X162810884Y-96048729D01*
X162936737Y-96237082D01*
X163096918Y-96397263D01*
X163285271Y-96523116D01*
X163494557Y-96609806D01*
X163716735Y-96654000D01*
X163943265Y-96654000D01*
X164165443Y-96609806D01*
X164374729Y-96523116D01*
X164563082Y-96397263D01*
X164723263Y-96237082D01*
X164849116Y-96048729D01*
X164935806Y-95839443D01*
X164980000Y-95617265D01*
X164980000Y-95390735D01*
X165220000Y-95390735D01*
X165220000Y-95617265D01*
X165264194Y-95839443D01*
X165350884Y-96048729D01*
X165476737Y-96237082D01*
X165636918Y-96397263D01*
X165825271Y-96523116D01*
X166034557Y-96609806D01*
X166256735Y-96654000D01*
X166483265Y-96654000D01*
X166705443Y-96609806D01*
X166914729Y-96523116D01*
X167103082Y-96397263D01*
X167263263Y-96237082D01*
X167389116Y-96048729D01*
X167475806Y-95839443D01*
X167520000Y-95617265D01*
X167520000Y-95390735D01*
X167475806Y-95168557D01*
X167389116Y-94959271D01*
X167263263Y-94770918D01*
X167103082Y-94610737D01*
X166914729Y-94484884D01*
X166705443Y-94398194D01*
X166483265Y-94354000D01*
X166256735Y-94354000D01*
X166034557Y-94398194D01*
X165825271Y-94484884D01*
X165636918Y-94610737D01*
X165476737Y-94770918D01*
X165350884Y-94959271D01*
X165264194Y-95168557D01*
X165220000Y-95390735D01*
X164980000Y-95390735D01*
X164935806Y-95168557D01*
X164849116Y-94959271D01*
X164723263Y-94770918D01*
X164563082Y-94610737D01*
X164374729Y-94484884D01*
X164165443Y-94398194D01*
X163943265Y-94354000D01*
X163716735Y-94354000D01*
X163494557Y-94398194D01*
X163374828Y-94447788D01*
X163079999Y-94152959D01*
X163079999Y-93840344D01*
X163096918Y-93857263D01*
X163285271Y-93983116D01*
X163494557Y-94069806D01*
X163716735Y-94114000D01*
X163943265Y-94114000D01*
X164165443Y-94069806D01*
X164374729Y-93983116D01*
X164563082Y-93857263D01*
X164723263Y-93697082D01*
X164849116Y-93508729D01*
X164935806Y-93299443D01*
X164980000Y-93077265D01*
X164980000Y-92850735D01*
X165220000Y-92850735D01*
X165220000Y-93077265D01*
X165264194Y-93299443D01*
X165350884Y-93508729D01*
X165476737Y-93697082D01*
X165636918Y-93857263D01*
X165825271Y-93983116D01*
X166034557Y-94069806D01*
X166256735Y-94114000D01*
X166483265Y-94114000D01*
X166705443Y-94069806D01*
X166914729Y-93983116D01*
X167103082Y-93857263D01*
X167263263Y-93697082D01*
X167389116Y-93508729D01*
X167475806Y-93299443D01*
X167520000Y-93077265D01*
X167520000Y-92850735D01*
X167475806Y-92628557D01*
X167389116Y-92419271D01*
X167263263Y-92230918D01*
X167103082Y-92070737D01*
X166914729Y-91944884D01*
X166705443Y-91858194D01*
X166483265Y-91814000D01*
X166256735Y-91814000D01*
X166034557Y-91858194D01*
X165825271Y-91944884D01*
X165636918Y-92070737D01*
X165476737Y-92230918D01*
X165350884Y-92419271D01*
X165264194Y-92628557D01*
X165220000Y-92850735D01*
X164980000Y-92850735D01*
X164935806Y-92628557D01*
X164849116Y-92419271D01*
X164723263Y-92230918D01*
X164563082Y-92070737D01*
X164374729Y-91944884D01*
X164165443Y-91858194D01*
X163943265Y-91814000D01*
X163716735Y-91814000D01*
X163494557Y-91858194D01*
X163374828Y-91907788D01*
X160192251Y-88725210D01*
X160178941Y-88708993D01*
X160114227Y-88655883D01*
X160040394Y-88616419D01*
X159960281Y-88592117D01*
X159897841Y-88585967D01*
X159897834Y-88585967D01*
X159876967Y-88583912D01*
X159856100Y-88585967D01*
X158208237Y-88585967D01*
X156353270Y-86731000D01*
X164323549Y-86731000D01*
X164323549Y-87131000D01*
X164333184Y-87228828D01*
X164361720Y-87322897D01*
X164408059Y-87409591D01*
X164470421Y-87485579D01*
X164546001Y-87547606D01*
X164546000Y-87722393D01*
X164475912Y-87779912D01*
X164411219Y-87858742D01*
X164363147Y-87948678D01*
X164333545Y-88046264D01*
X164323549Y-88147750D01*
X164323549Y-88585250D01*
X164333545Y-88686736D01*
X164363147Y-88784322D01*
X164411219Y-88874258D01*
X164475912Y-88953088D01*
X164554742Y-89017781D01*
X164644678Y-89065853D01*
X164742264Y-89095455D01*
X164843750Y-89105451D01*
X165356250Y-89105451D01*
X165457736Y-89095455D01*
X165555322Y-89065853D01*
X165645258Y-89017781D01*
X165724088Y-88953088D01*
X165788781Y-88874258D01*
X165836853Y-88784322D01*
X165866455Y-88686736D01*
X165876451Y-88585250D01*
X165876451Y-88147750D01*
X165866455Y-88046264D01*
X165836853Y-87948678D01*
X165788781Y-87858742D01*
X165724088Y-87779912D01*
X165654000Y-87722393D01*
X165654000Y-87547605D01*
X165729579Y-87485579D01*
X165791941Y-87409591D01*
X165838280Y-87322897D01*
X165866816Y-87228828D01*
X165876451Y-87131000D01*
X165876451Y-86731000D01*
X165866816Y-86633172D01*
X165838280Y-86539103D01*
X165791941Y-86452409D01*
X165729579Y-86376421D01*
X165653591Y-86314059D01*
X165566897Y-86267720D01*
X165472828Y-86239184D01*
X165375000Y-86229549D01*
X164825000Y-86229549D01*
X164727172Y-86239184D01*
X164633103Y-86267720D01*
X164546409Y-86314059D01*
X164470421Y-86376421D01*
X164408059Y-86452409D01*
X164361720Y-86539103D01*
X164333184Y-86633172D01*
X164323549Y-86731000D01*
X156353270Y-86731000D01*
X154703270Y-85081000D01*
X164323549Y-85081000D01*
X164323549Y-85481000D01*
X164333184Y-85578828D01*
X164361720Y-85672897D01*
X164408059Y-85759591D01*
X164470421Y-85835579D01*
X164546409Y-85897941D01*
X164633103Y-85944280D01*
X164727172Y-85972816D01*
X164825000Y-85982451D01*
X165375000Y-85982451D01*
X165472828Y-85972816D01*
X165566897Y-85944280D01*
X165653591Y-85897941D01*
X165729579Y-85835579D01*
X165791941Y-85759591D01*
X165820586Y-85706000D01*
X170406133Y-85706000D01*
X170427000Y-85708055D01*
X170447867Y-85706000D01*
X170447874Y-85706000D01*
X170510314Y-85699850D01*
X170590427Y-85675548D01*
X170664260Y-85636084D01*
X170728974Y-85582974D01*
X170742284Y-85566756D01*
X175284762Y-81024279D01*
X175300974Y-81010974D01*
X175315028Y-80993850D01*
X175337147Y-80966897D01*
X175354084Y-80946260D01*
X175393548Y-80872427D01*
X175410478Y-80816617D01*
X175417850Y-80792315D01*
X175421319Y-80757090D01*
X175424000Y-80729874D01*
X175424000Y-80729868D01*
X175426055Y-80709001D01*
X175424000Y-80688134D01*
X175424000Y-80048000D01*
X178456549Y-80048000D01*
X178456549Y-81148000D01*
X178462341Y-81206810D01*
X178479496Y-81263360D01*
X178507353Y-81315477D01*
X178544842Y-81361158D01*
X178590523Y-81398647D01*
X178642640Y-81426504D01*
X178699190Y-81443659D01*
X178758000Y-81449451D01*
X179058000Y-81449451D01*
X179116810Y-81443659D01*
X179173360Y-81426504D01*
X179225477Y-81398647D01*
X179271158Y-81361158D01*
X179308647Y-81315477D01*
X179336504Y-81263360D01*
X179353659Y-81206810D01*
X179359451Y-81148000D01*
X179359451Y-80048000D01*
X179353659Y-79989190D01*
X179336504Y-79932640D01*
X179308647Y-79880523D01*
X179271158Y-79834842D01*
X179225477Y-79797353D01*
X179173360Y-79769496D01*
X179116810Y-79752341D01*
X179058000Y-79746549D01*
X178758000Y-79746549D01*
X178699190Y-79752341D01*
X178642640Y-79769496D01*
X178590523Y-79797353D01*
X178544842Y-79834842D01*
X178507353Y-79880523D01*
X178479496Y-79932640D01*
X178462341Y-79989190D01*
X178456549Y-80048000D01*
X175424000Y-80048000D01*
X175424000Y-78570866D01*
X175426055Y-78549999D01*
X175424000Y-78529132D01*
X175424000Y-78529126D01*
X175418499Y-78473280D01*
X175417850Y-78466685D01*
X175401642Y-78413255D01*
X175393548Y-78386573D01*
X175354084Y-78312740D01*
X175300974Y-78248026D01*
X175284763Y-78234722D01*
X174971451Y-77921410D01*
X174971451Y-77200000D01*
X174965659Y-77141190D01*
X174948504Y-77084640D01*
X174920647Y-77032523D01*
X174883158Y-76986842D01*
X174837477Y-76949353D01*
X174785360Y-76921496D01*
X174774000Y-76918050D01*
X174774000Y-76309474D01*
X174787082Y-76296392D01*
X174904182Y-76273099D01*
X175031574Y-76220332D01*
X175146224Y-76143726D01*
X175243726Y-76046224D01*
X175320332Y-75931574D01*
X175373099Y-75804182D01*
X175400000Y-75668944D01*
X175400000Y-75531056D01*
X175373099Y-75395818D01*
X175320332Y-75268426D01*
X175243726Y-75153776D01*
X175146224Y-75056274D01*
X175031574Y-74979668D01*
X174904182Y-74926901D01*
X174768944Y-74900000D01*
X174631056Y-74900000D01*
X174495818Y-74926901D01*
X174368426Y-74979668D01*
X174253776Y-75056274D01*
X174156274Y-75153776D01*
X174079668Y-75268426D01*
X174026901Y-75395818D01*
X174003608Y-75512918D01*
X173887952Y-75628575D01*
X173887952Y-73900000D01*
X173882160Y-73841190D01*
X173865005Y-73784639D01*
X173837148Y-73732522D01*
X173799659Y-73686841D01*
X173753978Y-73649352D01*
X173701861Y-73621495D01*
X173645310Y-73604340D01*
X173586500Y-73598548D01*
X171853500Y-73598548D01*
X171794690Y-73604340D01*
X171738139Y-73621495D01*
X171686022Y-73649352D01*
X171640341Y-73686841D01*
X171602852Y-73732522D01*
X171574995Y-73784639D01*
X171557840Y-73841190D01*
X171552048Y-73900000D01*
X171552048Y-77025000D01*
X171557840Y-77083810D01*
X171574995Y-77140361D01*
X171602852Y-77192478D01*
X171640341Y-77238159D01*
X171686022Y-77275648D01*
X171738139Y-77303505D01*
X171794690Y-77320660D01*
X171853500Y-77326452D01*
X171968548Y-77326452D01*
X171968548Y-78500000D01*
X171974340Y-78558810D01*
X171991495Y-78615361D01*
X172019352Y-78667478D01*
X172056841Y-78713159D01*
X172102522Y-78750648D01*
X172154639Y-78778505D01*
X172166000Y-78781952D01*
X172166000Y-79011725D01*
X172097743Y-79067743D01*
X172032272Y-79147519D01*
X171983623Y-79238536D01*
X171953665Y-79337295D01*
X171943549Y-79440000D01*
X171943549Y-79940000D01*
X171953665Y-80042705D01*
X171983623Y-80141464D01*
X172032272Y-80232481D01*
X172097743Y-80312257D01*
X172166001Y-80368275D01*
X172166001Y-80535725D01*
X172097743Y-80591743D01*
X172032272Y-80671519D01*
X171983623Y-80762536D01*
X171953665Y-80861295D01*
X171943549Y-80964000D01*
X171943549Y-81464000D01*
X171953665Y-81566705D01*
X171983623Y-81665464D01*
X172032272Y-81756481D01*
X172097743Y-81836257D01*
X172177519Y-81901728D01*
X172268536Y-81950377D01*
X172367295Y-81980335D01*
X172470000Y-81990451D01*
X172920000Y-81990451D01*
X173022705Y-81980335D01*
X173121464Y-81950377D01*
X173196907Y-81910052D01*
X170250960Y-84856000D01*
X165820586Y-84856000D01*
X165791941Y-84802409D01*
X165729579Y-84726421D01*
X165653591Y-84664059D01*
X165566897Y-84617720D01*
X165472828Y-84589184D01*
X165375000Y-84579549D01*
X164825000Y-84579549D01*
X164727172Y-84589184D01*
X164633103Y-84617720D01*
X164546409Y-84664059D01*
X164470421Y-84726421D01*
X164408059Y-84802409D01*
X164361720Y-84889103D01*
X164333184Y-84983172D01*
X164323549Y-85081000D01*
X154703270Y-85081000D01*
X151050772Y-81428502D01*
X151057360Y-81426504D01*
X151109477Y-81398647D01*
X151155158Y-81361158D01*
X151192647Y-81315477D01*
X151220504Y-81263360D01*
X151237659Y-81206810D01*
X151243451Y-81148000D01*
X151243451Y-80048000D01*
X151237659Y-79989190D01*
X151220504Y-79932640D01*
X151217000Y-79926084D01*
X151217000Y-76075000D01*
X152224133Y-76075000D01*
X152245000Y-76077055D01*
X152265867Y-76075000D01*
X152265874Y-76075000D01*
X152328314Y-76068850D01*
X152408427Y-76044548D01*
X152482260Y-76005084D01*
X152546974Y-75951974D01*
X152560283Y-75935757D01*
X153567763Y-74928278D01*
X153583974Y-74914974D01*
X153637084Y-74850260D01*
X153676548Y-74776427D01*
X153700850Y-74696314D01*
X153707000Y-74633874D01*
X153707000Y-74633868D01*
X153709055Y-74613001D01*
X153707000Y-74592134D01*
X153707000Y-73433040D01*
X153929589Y-73210451D01*
X154305000Y-73210451D01*
X154402828Y-73200816D01*
X154496897Y-73172280D01*
X154583591Y-73125941D01*
X154659579Y-73063579D01*
X154721941Y-72987591D01*
X154768280Y-72900897D01*
X154796816Y-72806828D01*
X154806451Y-72709000D01*
X154806451Y-72159000D01*
X154796816Y-72061172D01*
X154768280Y-71967103D01*
X154721941Y-71880409D01*
X154659579Y-71804421D01*
X154629000Y-71779325D01*
X154629000Y-71564675D01*
X154659579Y-71539579D01*
X154721605Y-71464000D01*
X157223527Y-71464000D01*
X158426000Y-72666474D01*
X158426000Y-73610616D01*
X158405310Y-73604340D01*
X158346500Y-73598548D01*
X158027000Y-73598548D01*
X158027000Y-73138848D01*
X158093332Y-73039574D01*
X158146099Y-72912182D01*
X158173000Y-72776944D01*
X158173000Y-72639056D01*
X158146099Y-72503818D01*
X158093332Y-72376426D01*
X158016726Y-72261776D01*
X157919224Y-72164274D01*
X157804574Y-72087668D01*
X157677182Y-72034901D01*
X157541944Y-72008000D01*
X157404056Y-72008000D01*
X157268818Y-72034901D01*
X157141426Y-72087668D01*
X157026776Y-72164274D01*
X156929274Y-72261776D01*
X156852668Y-72376426D01*
X156799901Y-72503818D01*
X156773000Y-72639056D01*
X156773000Y-72776944D01*
X156799901Y-72912182D01*
X156852668Y-73039574D01*
X156919000Y-73138848D01*
X156919000Y-73598548D01*
X156613500Y-73598548D01*
X156554690Y-73604340D01*
X156498139Y-73621495D01*
X156446022Y-73649352D01*
X156400341Y-73686841D01*
X156362852Y-73732522D01*
X156334995Y-73784639D01*
X156317840Y-73841190D01*
X156312048Y-73900000D01*
X156312048Y-77025000D01*
X156317840Y-77083810D01*
X156334995Y-77140361D01*
X156362852Y-77192478D01*
X156400341Y-77238159D01*
X156446022Y-77275648D01*
X156498139Y-77303505D01*
X156554690Y-77320660D01*
X156613500Y-77326452D01*
X156728548Y-77326452D01*
X156728548Y-78500000D01*
X156734340Y-78558810D01*
X156751495Y-78615361D01*
X156779352Y-78667478D01*
X156816841Y-78713159D01*
X156862522Y-78750648D01*
X156914639Y-78778505D01*
X156971190Y-78795660D01*
X157030000Y-78801452D01*
X157660075Y-78801452D01*
X157547978Y-78913549D01*
X157330000Y-78913549D01*
X157227295Y-78923665D01*
X157128536Y-78953623D01*
X157037519Y-79002272D01*
X156957743Y-79067743D01*
X156892272Y-79147519D01*
X156843623Y-79238536D01*
X156813665Y-79337295D01*
X156803549Y-79440000D01*
X156803549Y-79940000D01*
X156813665Y-80042705D01*
X156843623Y-80141464D01*
X156892272Y-80232481D01*
X156957743Y-80312257D01*
X157001000Y-80347758D01*
X157001001Y-80556242D01*
X156957743Y-80591743D01*
X156892272Y-80671519D01*
X156843623Y-80762536D01*
X156813665Y-80861295D01*
X156803549Y-80964000D01*
X156803549Y-81464000D01*
X156813665Y-81566705D01*
X156843623Y-81665464D01*
X156892272Y-81756481D01*
X156957743Y-81836257D01*
X157037519Y-81901728D01*
X157128536Y-81950377D01*
X157227295Y-81980335D01*
X157330000Y-81990451D01*
X157780000Y-81990451D01*
X157882705Y-81980335D01*
X157981464Y-81950377D01*
X158072481Y-81901728D01*
X158152257Y-81836257D01*
X158217728Y-81756481D01*
X158266377Y-81665464D01*
X158296335Y-81566705D01*
X158306451Y-81464000D01*
X158306451Y-80964000D01*
X158296335Y-80861295D01*
X158266377Y-80762536D01*
X158217728Y-80671519D01*
X158152257Y-80591743D01*
X158109000Y-80556243D01*
X158109000Y-80481056D01*
X160250000Y-80481056D01*
X160250000Y-80618944D01*
X160276901Y-80754182D01*
X160329668Y-80881574D01*
X160406274Y-80996224D01*
X160503776Y-81093726D01*
X160618426Y-81170332D01*
X160745818Y-81223099D01*
X160881056Y-81250000D01*
X161018944Y-81250000D01*
X161154182Y-81223099D01*
X161281574Y-81170332D01*
X161396224Y-81093726D01*
X161489950Y-81000000D01*
X163029414Y-81000000D01*
X163058059Y-81053591D01*
X163120421Y-81129579D01*
X163196409Y-81191941D01*
X163283103Y-81238280D01*
X163377172Y-81266816D01*
X163475000Y-81276451D01*
X164025000Y-81276451D01*
X164122828Y-81266816D01*
X164216897Y-81238280D01*
X164303591Y-81191941D01*
X164379579Y-81129579D01*
X164441941Y-81053591D01*
X164488280Y-80966897D01*
X164516816Y-80872828D01*
X164526451Y-80775000D01*
X164526451Y-80381000D01*
X165723549Y-80381000D01*
X165723549Y-80781000D01*
X165733184Y-80878828D01*
X165761720Y-80972897D01*
X165808059Y-81059591D01*
X165870421Y-81135579D01*
X165946409Y-81197941D01*
X166033103Y-81244280D01*
X166127172Y-81272816D01*
X166225000Y-81282451D01*
X166775000Y-81282451D01*
X166872828Y-81272816D01*
X166966897Y-81244280D01*
X167053591Y-81197941D01*
X167129579Y-81135579D01*
X167191941Y-81059591D01*
X167220586Y-81006000D01*
X168816050Y-81006000D01*
X168903776Y-81093726D01*
X169018426Y-81170332D01*
X169145818Y-81223099D01*
X169281056Y-81250000D01*
X169418944Y-81250000D01*
X169554182Y-81223099D01*
X169681574Y-81170332D01*
X169796224Y-81093726D01*
X169893726Y-80996224D01*
X169970332Y-80881574D01*
X170023099Y-80754182D01*
X170050000Y-80618944D01*
X170050000Y-80481056D01*
X170023099Y-80345818D01*
X169970332Y-80218426D01*
X169893726Y-80103776D01*
X169796224Y-80006274D01*
X169681574Y-79929668D01*
X169554182Y-79876901D01*
X169418944Y-79850000D01*
X169281056Y-79850000D01*
X169145818Y-79876901D01*
X169018426Y-79929668D01*
X168903776Y-80006274D01*
X168806274Y-80103776D01*
X168771379Y-80156000D01*
X167220586Y-80156000D01*
X167191941Y-80102409D01*
X167129579Y-80026421D01*
X167053591Y-79964059D01*
X166966897Y-79917720D01*
X166872828Y-79889184D01*
X166775000Y-79879549D01*
X166225000Y-79879549D01*
X166127172Y-79889184D01*
X166033103Y-79917720D01*
X165946409Y-79964059D01*
X165870421Y-80026421D01*
X165808059Y-80102409D01*
X165761720Y-80189103D01*
X165733184Y-80283172D01*
X165723549Y-80381000D01*
X164526451Y-80381000D01*
X164526451Y-80375000D01*
X164516816Y-80277172D01*
X164488280Y-80183103D01*
X164441941Y-80096409D01*
X164379579Y-80020421D01*
X164303591Y-79958059D01*
X164216897Y-79911720D01*
X164122828Y-79883184D01*
X164025000Y-79873549D01*
X163475000Y-79873549D01*
X163377172Y-79883184D01*
X163283103Y-79911720D01*
X163196409Y-79958059D01*
X163120421Y-80020421D01*
X163058059Y-80096409D01*
X163029414Y-80150000D01*
X161524612Y-80150000D01*
X161493726Y-80103776D01*
X161396224Y-80006274D01*
X161281574Y-79929668D01*
X161154182Y-79876901D01*
X161018944Y-79850000D01*
X160881056Y-79850000D01*
X160745818Y-79876901D01*
X160618426Y-79929668D01*
X160503776Y-80006274D01*
X160406274Y-80103776D01*
X160329668Y-80218426D01*
X160276901Y-80345818D01*
X160250000Y-80481056D01*
X158109000Y-80481056D01*
X158109000Y-80347757D01*
X158152257Y-80312257D01*
X158217728Y-80232481D01*
X158266377Y-80141464D01*
X158296335Y-80042705D01*
X158306451Y-79940000D01*
X158306451Y-79722022D01*
X159227023Y-78801451D01*
X159430000Y-78801451D01*
X159488810Y-78795659D01*
X159545360Y-78778504D01*
X159597477Y-78750647D01*
X159643158Y-78713158D01*
X159680647Y-78667477D01*
X159708504Y-78615360D01*
X159725659Y-78558810D01*
X159731451Y-78500000D01*
X159731451Y-77699589D01*
X160831040Y-76600001D01*
X162898549Y-76600001D01*
X162898549Y-77750000D01*
X162904341Y-77808810D01*
X162921496Y-77865360D01*
X162949353Y-77917477D01*
X162986842Y-77963158D01*
X163032523Y-78000647D01*
X163084640Y-78028504D01*
X163141190Y-78045659D01*
X163200000Y-78051451D01*
X163346001Y-78051451D01*
X163346001Y-78242640D01*
X163283103Y-78261720D01*
X163196409Y-78308059D01*
X163120421Y-78370421D01*
X163058059Y-78446409D01*
X163011720Y-78533103D01*
X162983184Y-78627172D01*
X162973549Y-78725000D01*
X162973549Y-79125000D01*
X162983184Y-79222828D01*
X163011720Y-79316897D01*
X163058059Y-79403591D01*
X163120421Y-79479579D01*
X163196409Y-79541941D01*
X163283103Y-79588280D01*
X163377172Y-79616816D01*
X163475000Y-79626451D01*
X164025000Y-79626451D01*
X164122828Y-79616816D01*
X164216897Y-79588280D01*
X164303591Y-79541941D01*
X164379579Y-79479579D01*
X164380054Y-79479000D01*
X165865022Y-79479000D01*
X165870421Y-79485579D01*
X165946409Y-79547941D01*
X166033103Y-79594280D01*
X166127172Y-79622816D01*
X166225000Y-79632451D01*
X166775000Y-79632451D01*
X166872828Y-79622816D01*
X166966897Y-79594280D01*
X167053591Y-79547941D01*
X167129579Y-79485579D01*
X167191941Y-79409591D01*
X167238280Y-79322897D01*
X167266816Y-79228828D01*
X167276451Y-79131000D01*
X167276451Y-78731000D01*
X167266816Y-78633172D01*
X167238280Y-78539103D01*
X167191941Y-78452409D01*
X167129579Y-78376421D01*
X167053591Y-78314059D01*
X166966897Y-78267720D01*
X166872828Y-78239184D01*
X166775000Y-78229549D01*
X166225000Y-78229549D01*
X166127172Y-78239184D01*
X166033103Y-78267720D01*
X165946409Y-78314059D01*
X165877026Y-78371000D01*
X164454000Y-78371000D01*
X164454000Y-78051451D01*
X164600000Y-78051451D01*
X164658810Y-78045659D01*
X164715360Y-78028504D01*
X164767477Y-78000647D01*
X164813158Y-77963158D01*
X164850647Y-77917477D01*
X164878504Y-77865360D01*
X164895659Y-77808810D01*
X164901451Y-77750000D01*
X164901451Y-76600001D01*
X164954961Y-76600001D01*
X165298549Y-76943589D01*
X165298549Y-77750000D01*
X165304341Y-77808810D01*
X165321496Y-77865360D01*
X165349353Y-77917477D01*
X165386842Y-77963158D01*
X165432523Y-78000647D01*
X165484640Y-78028504D01*
X165541190Y-78045659D01*
X165600000Y-78051451D01*
X167000000Y-78051451D01*
X167058810Y-78045659D01*
X167115360Y-78028504D01*
X167167477Y-78000647D01*
X167213158Y-77963158D01*
X167250647Y-77917477D01*
X167278504Y-77865360D01*
X167295659Y-77808810D01*
X167301451Y-77750000D01*
X167301451Y-76550000D01*
X167295659Y-76491190D01*
X167278504Y-76434640D01*
X167250647Y-76382523D01*
X167213158Y-76336842D01*
X167167477Y-76299353D01*
X167115360Y-76271496D01*
X167058810Y-76254341D01*
X167000000Y-76248549D01*
X165805589Y-76248549D01*
X165708491Y-76151451D01*
X167000000Y-76151451D01*
X167058810Y-76145659D01*
X167115360Y-76128504D01*
X167167477Y-76100647D01*
X167213158Y-76063158D01*
X167250647Y-76017477D01*
X167278504Y-75965360D01*
X167295659Y-75908810D01*
X167301451Y-75850000D01*
X167301451Y-74650000D01*
X167295659Y-74591190D01*
X167278504Y-74534640D01*
X167250647Y-74482523D01*
X167213158Y-74436842D01*
X167167477Y-74399353D01*
X167115360Y-74371496D01*
X167058810Y-74354341D01*
X167000000Y-74348549D01*
X165600000Y-74348549D01*
X165541190Y-74354341D01*
X165484640Y-74371496D01*
X165432523Y-74399353D01*
X165386842Y-74436842D01*
X165349353Y-74482523D01*
X165321496Y-74534640D01*
X165304341Y-74591190D01*
X165298549Y-74650000D01*
X165298549Y-75782656D01*
X165294428Y-75780453D01*
X165214315Y-75756151D01*
X165151875Y-75750001D01*
X165151868Y-75750001D01*
X165131001Y-75747946D01*
X165110134Y-75750001D01*
X160675865Y-75750001D01*
X160654998Y-75747946D01*
X160634131Y-75750001D01*
X160634125Y-75750001D01*
X160580097Y-75755322D01*
X160571684Y-75756151D01*
X160547382Y-75763523D01*
X160491572Y-75780453D01*
X160417739Y-75819917D01*
X160353025Y-75873027D01*
X160339720Y-75889239D01*
X159534000Y-76694959D01*
X159534000Y-72464201D01*
X159536679Y-72436999D01*
X159534000Y-72409797D01*
X159534000Y-72409788D01*
X159525984Y-72328397D01*
X159494305Y-72223968D01*
X159442863Y-72127725D01*
X159373632Y-72043368D01*
X159352495Y-72026021D01*
X157863983Y-70537510D01*
X157846632Y-70516368D01*
X157762275Y-70447137D01*
X157666032Y-70395695D01*
X157561603Y-70364016D01*
X157480212Y-70356000D01*
X157480204Y-70356000D01*
X157453000Y-70353321D01*
X157425796Y-70356000D01*
X154721605Y-70356000D01*
X154659579Y-70280421D01*
X154629000Y-70255325D01*
X154629000Y-69780054D01*
X154629579Y-69779579D01*
X154691941Y-69703591D01*
X154738280Y-69616897D01*
X154766816Y-69522828D01*
X154776451Y-69425000D01*
X154776451Y-69289089D01*
X155377541Y-68688000D01*
X178003001Y-68688000D01*
X178003000Y-69483959D01*
X177731227Y-69755733D01*
X177695603Y-69744926D01*
X177587000Y-69734230D01*
X177478398Y-69744926D01*
X177373969Y-69776605D01*
X177277726Y-69828047D01*
X177193369Y-69897278D01*
X177143119Y-69958506D01*
X177108409Y-69977059D01*
X177032421Y-70039421D01*
X176970059Y-70115409D01*
X176923720Y-70202103D01*
X176895184Y-70296172D01*
X176885549Y-70394000D01*
X176885549Y-70944000D01*
X176895184Y-71041828D01*
X176923720Y-71135897D01*
X176970059Y-71222591D01*
X177032421Y-71298579D01*
X177033001Y-71299055D01*
X177033001Y-71562945D01*
X177032421Y-71563421D01*
X176970059Y-71639409D01*
X176923720Y-71726103D01*
X176895184Y-71820172D01*
X176885549Y-71918000D01*
X176885549Y-72468000D01*
X176895184Y-72565828D01*
X176923720Y-72659897D01*
X176970059Y-72746591D01*
X177032421Y-72822579D01*
X177033000Y-72823054D01*
X177033000Y-73422946D01*
X177032421Y-73423421D01*
X176970059Y-73499409D01*
X176923720Y-73586103D01*
X176895184Y-73680172D01*
X176885549Y-73778000D01*
X176885549Y-74328000D01*
X176895184Y-74425828D01*
X176923720Y-74519897D01*
X176970059Y-74606591D01*
X177032421Y-74682579D01*
X177108409Y-74744941D01*
X177195103Y-74791280D01*
X177289172Y-74819816D01*
X177387000Y-74829451D01*
X177787000Y-74829451D01*
X177884828Y-74819816D01*
X177978897Y-74791280D01*
X178065591Y-74744941D01*
X178141579Y-74682579D01*
X178203941Y-74606591D01*
X178250280Y-74519897D01*
X178278816Y-74425828D01*
X178288451Y-74328000D01*
X178288451Y-73778000D01*
X178278816Y-73680172D01*
X178250280Y-73586103D01*
X178203941Y-73499409D01*
X178141579Y-73423421D01*
X178141000Y-73422946D01*
X178141000Y-73094040D01*
X178421716Y-73374756D01*
X178435026Y-73390974D01*
X178499740Y-73444084D01*
X178573573Y-73483548D01*
X178621215Y-73498000D01*
X178620059Y-73499409D01*
X178573720Y-73586103D01*
X178545184Y-73680172D01*
X178535549Y-73778000D01*
X178535549Y-74328000D01*
X178545184Y-74425828D01*
X178573720Y-74519897D01*
X178620059Y-74606591D01*
X178682421Y-74682579D01*
X178758409Y-74744941D01*
X178845103Y-74791280D01*
X178939172Y-74819816D01*
X179037000Y-74829451D01*
X179437000Y-74829451D01*
X179483000Y-74824920D01*
X179483001Y-79926083D01*
X179479496Y-79932640D01*
X179462341Y-79989190D01*
X179456549Y-80048000D01*
X179456549Y-81148000D01*
X179462341Y-81206810D01*
X179470001Y-81232059D01*
X179470000Y-81802959D01*
X169365172Y-91907788D01*
X169245443Y-91858194D01*
X169023265Y-91814000D01*
X168796735Y-91814000D01*
X168574557Y-91858194D01*
X168365271Y-91944884D01*
X168176918Y-92070737D01*
X168016737Y-92230918D01*
X167890884Y-92419271D01*
X167804194Y-92628557D01*
X167760000Y-92850735D01*
X167760000Y-93077265D01*
X167804194Y-93299443D01*
X167890884Y-93508729D01*
X168016737Y-93697082D01*
X168176918Y-93857263D01*
X168365271Y-93983116D01*
X168574557Y-94069806D01*
X168796735Y-94114000D01*
X169023265Y-94114000D01*
X169245443Y-94069806D01*
X169454729Y-93983116D01*
X169643082Y-93857263D01*
X169660002Y-93840343D01*
X169660002Y-94152957D01*
X169365172Y-94447788D01*
X169245443Y-94398194D01*
X169023265Y-94354000D01*
X168796735Y-94354000D01*
X168574557Y-94398194D01*
X168365271Y-94484884D01*
X168176918Y-94610737D01*
X168016737Y-94770918D01*
X167890884Y-94959271D01*
X167804194Y-95168557D01*
X167760000Y-95390735D01*
X167760000Y-95617265D01*
X167804194Y-95839443D01*
X167890884Y-96048729D01*
X168016737Y-96237082D01*
X168176918Y-96397263D01*
X168365271Y-96523116D01*
X168574557Y-96609806D01*
X168796735Y-96654000D01*
X169023265Y-96654000D01*
X169245443Y-96609806D01*
X169454729Y-96523116D01*
X169643082Y-96397263D01*
X169803263Y-96237082D01*
X169929116Y-96048729D01*
X170015806Y-95839443D01*
X170060000Y-95617265D01*
X170060000Y-95390735D01*
X170015806Y-95168557D01*
X169966212Y-95048828D01*
X170370763Y-94644278D01*
X170386975Y-94630973D01*
X170403583Y-94610737D01*
X170440084Y-94566260D01*
X170440085Y-94566259D01*
X170479549Y-94492426D01*
X170503851Y-94412313D01*
X170510001Y-94349873D01*
X170510001Y-94349867D01*
X170512056Y-94329000D01*
X170510001Y-94308133D01*
X170510001Y-93627136D01*
X170556737Y-93697082D01*
X170716918Y-93857263D01*
X170905271Y-93983116D01*
X171114557Y-94069806D01*
X171336735Y-94114000D01*
X171563265Y-94114000D01*
X171785443Y-94069806D01*
X171994729Y-93983116D01*
X172183082Y-93857263D01*
X172200002Y-93840343D01*
X172200002Y-94152957D01*
X171905172Y-94447788D01*
X171785443Y-94398194D01*
X171563265Y-94354000D01*
X171336735Y-94354000D01*
X171114557Y-94398194D01*
X170905271Y-94484884D01*
X170716918Y-94610737D01*
X170556737Y-94770918D01*
X170430884Y-94959271D01*
X170344194Y-95168557D01*
X170300000Y-95390735D01*
X170300000Y-95617265D01*
X170344194Y-95839443D01*
X170430884Y-96048729D01*
X170556737Y-96237082D01*
X170716918Y-96397263D01*
X170905271Y-96523116D01*
X171114557Y-96609806D01*
X171336735Y-96654000D01*
X171563265Y-96654000D01*
X171785443Y-96609806D01*
X171994729Y-96523116D01*
X172183082Y-96397263D01*
X172343263Y-96237082D01*
X172469116Y-96048729D01*
X172555806Y-95839443D01*
X172600000Y-95617265D01*
X172600000Y-95390735D01*
X172555806Y-95168557D01*
X172506212Y-95048828D01*
X172910763Y-94644278D01*
X172926975Y-94630973D01*
X172943583Y-94610737D01*
X172980084Y-94566260D01*
X172980085Y-94566259D01*
X173019549Y-94492426D01*
X173043851Y-94412313D01*
X173050001Y-94349873D01*
X173050001Y-94349867D01*
X173052056Y-94329000D01*
X173050001Y-94308133D01*
X173050001Y-93627136D01*
X173096737Y-93697082D01*
X173256918Y-93857263D01*
X173445271Y-93983116D01*
X173654557Y-94069806D01*
X173876735Y-94114000D01*
X174103265Y-94114000D01*
X174325443Y-94069806D01*
X174534729Y-93983116D01*
X174723082Y-93857263D01*
X174740002Y-93840343D01*
X174740002Y-94152957D01*
X174445172Y-94447788D01*
X174325443Y-94398194D01*
X174103265Y-94354000D01*
X173876735Y-94354000D01*
X173654557Y-94398194D01*
X173445271Y-94484884D01*
X173256918Y-94610737D01*
X173096737Y-94770918D01*
X172970884Y-94959271D01*
X172884194Y-95168557D01*
X172840000Y-95390735D01*
X172840000Y-95617265D01*
X172884194Y-95839443D01*
X172970884Y-96048729D01*
X173096737Y-96237082D01*
X173256918Y-96397263D01*
X173445271Y-96523116D01*
X173654557Y-96609806D01*
X173876735Y-96654000D01*
X174103265Y-96654000D01*
X174325443Y-96609806D01*
X174534729Y-96523116D01*
X174723082Y-96397263D01*
X174883263Y-96237082D01*
X175009116Y-96048729D01*
X175095806Y-95839443D01*
X175140000Y-95617265D01*
X175140000Y-95390735D01*
X175095806Y-95168557D01*
X175046212Y-95048828D01*
X175450763Y-94644278D01*
X175466975Y-94630973D01*
X175483583Y-94610737D01*
X175520084Y-94566260D01*
X175520085Y-94566259D01*
X175559549Y-94492426D01*
X175583851Y-94412313D01*
X175590001Y-94349873D01*
X175590001Y-94349867D01*
X175592056Y-94329000D01*
X175590001Y-94308133D01*
X175590001Y-93627136D01*
X175636737Y-93697082D01*
X175796918Y-93857263D01*
X175985271Y-93983116D01*
X176194557Y-94069806D01*
X176416735Y-94114000D01*
X176643265Y-94114000D01*
X176865443Y-94069806D01*
X177074729Y-93983116D01*
X177263082Y-93857263D01*
X177280002Y-93840343D01*
X177280002Y-94152957D01*
X176985172Y-94447788D01*
X176865443Y-94398194D01*
X176643265Y-94354000D01*
X176416735Y-94354000D01*
X176194557Y-94398194D01*
X175985271Y-94484884D01*
X175796918Y-94610737D01*
X175636737Y-94770918D01*
X175510884Y-94959271D01*
X175424194Y-95168557D01*
X175380000Y-95390735D01*
X175380000Y-95617265D01*
X175424194Y-95839443D01*
X175510884Y-96048729D01*
X175636737Y-96237082D01*
X175796918Y-96397263D01*
X175985271Y-96523116D01*
X176194557Y-96609806D01*
X176416735Y-96654000D01*
X176643265Y-96654000D01*
X176865443Y-96609806D01*
X177074729Y-96523116D01*
X177263082Y-96397263D01*
X177423263Y-96237082D01*
X177549116Y-96048729D01*
X177635806Y-95839443D01*
X177680000Y-95617265D01*
X177680000Y-95390735D01*
X177635806Y-95168557D01*
X177586212Y-95048828D01*
X177990763Y-94644278D01*
X178006975Y-94630973D01*
X178023583Y-94610737D01*
X178060084Y-94566260D01*
X178060085Y-94566259D01*
X178099549Y-94492426D01*
X178123851Y-94412313D01*
X178130001Y-94349873D01*
X178130001Y-94349867D01*
X178132056Y-94329000D01*
X178130001Y-94308133D01*
X178130001Y-93627136D01*
X178176737Y-93697082D01*
X178336918Y-93857263D01*
X178525271Y-93983116D01*
X178734557Y-94069806D01*
X178956735Y-94114000D01*
X179183265Y-94114000D01*
X179405443Y-94069806D01*
X179614729Y-93983116D01*
X179803082Y-93857263D01*
X179820002Y-93840343D01*
X179820002Y-94152957D01*
X179525172Y-94447788D01*
X179405443Y-94398194D01*
X179183265Y-94354000D01*
X178956735Y-94354000D01*
X178734557Y-94398194D01*
X178525271Y-94484884D01*
X178336918Y-94610737D01*
X178176737Y-94770918D01*
X178050884Y-94959271D01*
X177964194Y-95168557D01*
X177920000Y-95390735D01*
X177920000Y-95617265D01*
X177964194Y-95839443D01*
X178050884Y-96048729D01*
X178176737Y-96237082D01*
X178336918Y-96397263D01*
X178525271Y-96523116D01*
X178734557Y-96609806D01*
X178956735Y-96654000D01*
X179183265Y-96654000D01*
X179405443Y-96609806D01*
X179614729Y-96523116D01*
X179803082Y-96397263D01*
X179963263Y-96237082D01*
X180089116Y-96048729D01*
X180175806Y-95839443D01*
X180220000Y-95617265D01*
X180220000Y-95390735D01*
X180175806Y-95168557D01*
X180126212Y-95048828D01*
X180530763Y-94644278D01*
X180546975Y-94630973D01*
X180563583Y-94610737D01*
X180600084Y-94566260D01*
X180600085Y-94566259D01*
X180639549Y-94492426D01*
X180663851Y-94412313D01*
X180670001Y-94349873D01*
X180670001Y-94349867D01*
X180672056Y-94329000D01*
X180670001Y-94308133D01*
X180670001Y-93627136D01*
X180716737Y-93697082D01*
X180876918Y-93857263D01*
X181065271Y-93983116D01*
X181274557Y-94069806D01*
X181496735Y-94114000D01*
X181723265Y-94114000D01*
X181945443Y-94069806D01*
X182154729Y-93983116D01*
X182343082Y-93857263D01*
X182360002Y-93840343D01*
X182360002Y-94152957D01*
X182065172Y-94447788D01*
X181945443Y-94398194D01*
X181723265Y-94354000D01*
X181496735Y-94354000D01*
X181274557Y-94398194D01*
X181065271Y-94484884D01*
X180876918Y-94610737D01*
X180716737Y-94770918D01*
X180590884Y-94959271D01*
X180504194Y-95168557D01*
X180460000Y-95390735D01*
X180460000Y-95617265D01*
X180504194Y-95839443D01*
X180590884Y-96048729D01*
X180716737Y-96237082D01*
X180876918Y-96397263D01*
X181065271Y-96523116D01*
X181274557Y-96609806D01*
X181496735Y-96654000D01*
X181723265Y-96654000D01*
X181945443Y-96609806D01*
X182154729Y-96523116D01*
X182343082Y-96397263D01*
X182503263Y-96237082D01*
X182629116Y-96048729D01*
X182715806Y-95839443D01*
X182760000Y-95617265D01*
X182760000Y-95390735D01*
X182715806Y-95168557D01*
X182666212Y-95048828D01*
X183070763Y-94644278D01*
X183086975Y-94630973D01*
X183103583Y-94610737D01*
X183140084Y-94566260D01*
X183140085Y-94566259D01*
X183179549Y-94492426D01*
X183203851Y-94412313D01*
X183210001Y-94349873D01*
X183210001Y-94349867D01*
X183212056Y-94329000D01*
X183210001Y-94308133D01*
X183210001Y-93627136D01*
X183256737Y-93697082D01*
X183416918Y-93857263D01*
X183605271Y-93983116D01*
X183814557Y-94069806D01*
X184036735Y-94114000D01*
X184263265Y-94114000D01*
X184485443Y-94069806D01*
X184694729Y-93983116D01*
X184883082Y-93857263D01*
X184900002Y-93840343D01*
X184900002Y-94152957D01*
X184605172Y-94447788D01*
X184485443Y-94398194D01*
X184263265Y-94354000D01*
X184036735Y-94354000D01*
X183814557Y-94398194D01*
X183605271Y-94484884D01*
X183416918Y-94610737D01*
X183256737Y-94770918D01*
X183130884Y-94959271D01*
X183044194Y-95168557D01*
X183000000Y-95390735D01*
X183000000Y-95617265D01*
X183044194Y-95839443D01*
X183130884Y-96048729D01*
X183256737Y-96237082D01*
X183416918Y-96397263D01*
X183605271Y-96523116D01*
X183814557Y-96609806D01*
X184036735Y-96654000D01*
X184263265Y-96654000D01*
X184485443Y-96609806D01*
X184694729Y-96523116D01*
X184883082Y-96397263D01*
X185043263Y-96237082D01*
X185169116Y-96048729D01*
X185255806Y-95839443D01*
X185300000Y-95617265D01*
X185300000Y-95390735D01*
X185255806Y-95168557D01*
X185206212Y-95048828D01*
X185610763Y-94644278D01*
X185626975Y-94630973D01*
X185643583Y-94610737D01*
X185680084Y-94566260D01*
X185680085Y-94566259D01*
X185719549Y-94492426D01*
X185743851Y-94412313D01*
X185750001Y-94349873D01*
X185750001Y-94349867D01*
X185752056Y-94329000D01*
X185750001Y-94308133D01*
X185750001Y-93627136D01*
X185796737Y-93697082D01*
X185956918Y-93857263D01*
X186145271Y-93983116D01*
X186354557Y-94069806D01*
X186576735Y-94114000D01*
X186803265Y-94114000D01*
X187025443Y-94069806D01*
X187234729Y-93983116D01*
X187423082Y-93857263D01*
X187440002Y-93840343D01*
X187440002Y-94152957D01*
X187145172Y-94447788D01*
X187025443Y-94398194D01*
X186803265Y-94354000D01*
X186576735Y-94354000D01*
X186354557Y-94398194D01*
X186145271Y-94484884D01*
X185956918Y-94610737D01*
X185796737Y-94770918D01*
X185670884Y-94959271D01*
X185584194Y-95168557D01*
X185540000Y-95390735D01*
X185540000Y-95617265D01*
X185584194Y-95839443D01*
X185670884Y-96048729D01*
X185796737Y-96237082D01*
X185956918Y-96397263D01*
X186145271Y-96523116D01*
X186354557Y-96609806D01*
X186576735Y-96654000D01*
X186803265Y-96654000D01*
X187025443Y-96609806D01*
X187234729Y-96523116D01*
X187423082Y-96397263D01*
X187583263Y-96237082D01*
X187709116Y-96048729D01*
X187795806Y-95839443D01*
X187840000Y-95617265D01*
X187840000Y-95390735D01*
X187795806Y-95168557D01*
X187746212Y-95048828D01*
X188078549Y-94716492D01*
X188078549Y-96354000D01*
X188084341Y-96412810D01*
X188101496Y-96469360D01*
X188129353Y-96521477D01*
X188166842Y-96567158D01*
X188212523Y-96604647D01*
X188264640Y-96632504D01*
X188321190Y-96649659D01*
X188380000Y-96655451D01*
X190080000Y-96655451D01*
X190138810Y-96649659D01*
X190195360Y-96632504D01*
X190247477Y-96604647D01*
X190293158Y-96567158D01*
X190330647Y-96521477D01*
X190358504Y-96469360D01*
X190375659Y-96412810D01*
X190381451Y-96354000D01*
X190381451Y-94654000D01*
X190375659Y-94595190D01*
X190358504Y-94538640D01*
X190330647Y-94486523D01*
X190293158Y-94440842D01*
X190247477Y-94403353D01*
X190195360Y-94375496D01*
X190138810Y-94358341D01*
X190080000Y-94352549D01*
X188380000Y-94352549D01*
X188321190Y-94358341D01*
X188288181Y-94368355D01*
X188290001Y-94349873D01*
X188290001Y-94349867D01*
X188292056Y-94329000D01*
X188290001Y-94308133D01*
X188290001Y-93627136D01*
X188336737Y-93697082D01*
X188496918Y-93857263D01*
X188685271Y-93983116D01*
X188894557Y-94069806D01*
X189116735Y-94114000D01*
X189343265Y-94114000D01*
X189565443Y-94069806D01*
X189774729Y-93983116D01*
X189963082Y-93857263D01*
X190123263Y-93697082D01*
X190249116Y-93508729D01*
X190335806Y-93299443D01*
X190380000Y-93077265D01*
X190380000Y-92850735D01*
X190335806Y-92628557D01*
X190249116Y-92419271D01*
X190123263Y-92230918D01*
X189963082Y-92070737D01*
X189774729Y-91944884D01*
X189565443Y-91858194D01*
X189343265Y-91814000D01*
X189116735Y-91814000D01*
X188894557Y-91858194D01*
X188685271Y-91944884D01*
X188496918Y-92070737D01*
X188336737Y-92230918D01*
X188290001Y-92300864D01*
X188290001Y-91134449D01*
X189704771Y-89719680D01*
X189720983Y-89706375D01*
X189774093Y-89641661D01*
X189813557Y-89567828D01*
X189837859Y-89487715D01*
X189844009Y-89425275D01*
X189844009Y-89425269D01*
X189846064Y-89404402D01*
X189844009Y-89383535D01*
X189844009Y-81449451D01*
X190058000Y-81449451D01*
X190116810Y-81443659D01*
X190173360Y-81426504D01*
X190225477Y-81398647D01*
X190271158Y-81361158D01*
X190308647Y-81315477D01*
X190336504Y-81263360D01*
X190353659Y-81206810D01*
X190359451Y-81148000D01*
X190359451Y-80561807D01*
X194149244Y-80561807D01*
X194149244Y-80938193D01*
X194222674Y-81307347D01*
X194366710Y-81655082D01*
X194575819Y-81968035D01*
X194841964Y-82234180D01*
X195154917Y-82443289D01*
X195502652Y-82587325D01*
X195871806Y-82660755D01*
X196248192Y-82660755D01*
X196617346Y-82587325D01*
X196965081Y-82443289D01*
X197278034Y-82234180D01*
X197544179Y-81968035D01*
X197753288Y-81655082D01*
X197897324Y-81307347D01*
X197970754Y-80938193D01*
X197970754Y-80561807D01*
X197897324Y-80192653D01*
X197753288Y-79844918D01*
X197544179Y-79531965D01*
X197278034Y-79265820D01*
X196965081Y-79056711D01*
X196617346Y-78912675D01*
X196248192Y-78839245D01*
X195871806Y-78839245D01*
X195502652Y-78912675D01*
X195154917Y-79056711D01*
X194841964Y-79265820D01*
X194575819Y-79531965D01*
X194366710Y-79844918D01*
X194222674Y-80192653D01*
X194149244Y-80561807D01*
X190359451Y-80561807D01*
X190359451Y-80048000D01*
X190353659Y-79989190D01*
X190336504Y-79932640D01*
X190333000Y-79926084D01*
X190333000Y-79818866D01*
X190335055Y-79797999D01*
X190333000Y-79777132D01*
X190333000Y-79777126D01*
X190326850Y-79714686D01*
X190302548Y-79634573D01*
X190263084Y-79560740D01*
X190209974Y-79496026D01*
X190193762Y-79482721D01*
X188086283Y-77375243D01*
X188072974Y-77359026D01*
X188008260Y-77305916D01*
X187934427Y-77266452D01*
X187854314Y-77242150D01*
X187791874Y-77236000D01*
X187791867Y-77236000D01*
X187771000Y-77233945D01*
X187750133Y-77236000D01*
X184192041Y-77236000D01*
X183298000Y-76341960D01*
X183298000Y-71204867D01*
X183300055Y-71184000D01*
X183298000Y-71163133D01*
X183298000Y-71163126D01*
X183291850Y-71100686D01*
X183291850Y-71100685D01*
X183267548Y-71020572D01*
X183253801Y-70994855D01*
X183228084Y-70946740D01*
X183174974Y-70882026D01*
X183158763Y-70868722D01*
X181681848Y-69391807D01*
X194149244Y-69391807D01*
X194149244Y-69768193D01*
X194222674Y-70137347D01*
X194366710Y-70485082D01*
X194575819Y-70798035D01*
X194841964Y-71064180D01*
X195154917Y-71273289D01*
X195502652Y-71417325D01*
X195871806Y-71490755D01*
X196248192Y-71490755D01*
X196617346Y-71417325D01*
X196965081Y-71273289D01*
X197278034Y-71064180D01*
X197544179Y-70798035D01*
X197753288Y-70485082D01*
X197897324Y-70137347D01*
X197970754Y-69768193D01*
X197970754Y-69391807D01*
X197897324Y-69022653D01*
X197753288Y-68674918D01*
X197544179Y-68361965D01*
X197278034Y-68095820D01*
X196965081Y-67886711D01*
X196617346Y-67742675D01*
X196248192Y-67669245D01*
X195871806Y-67669245D01*
X195502652Y-67742675D01*
X195154917Y-67886711D01*
X194841964Y-68095820D01*
X194575819Y-68361965D01*
X194366710Y-68674918D01*
X194222674Y-69022653D01*
X194149244Y-69391807D01*
X181681848Y-69391807D01*
X180267283Y-67977243D01*
X180253974Y-67961026D01*
X180189260Y-67907916D01*
X180115427Y-67868452D01*
X180035314Y-67844150D01*
X179972874Y-67838000D01*
X179972867Y-67838000D01*
X179952000Y-67835945D01*
X179931133Y-67838000D01*
X178448874Y-67838000D01*
X178428000Y-67835944D01*
X178407126Y-67838000D01*
X155222366Y-67838000D01*
X155201499Y-67835945D01*
X155180632Y-67838000D01*
X155180626Y-67838000D01*
X155126598Y-67843321D01*
X155118185Y-67844150D01*
X155100625Y-67849477D01*
X155038073Y-67868452D01*
X154964240Y-67907916D01*
X154964238Y-67907917D01*
X154964239Y-67907917D01*
X154918893Y-67945132D01*
X154899526Y-67961026D01*
X154886221Y-67977238D01*
X154455267Y-68408192D01*
X154372828Y-68383184D01*
X154275000Y-68373549D01*
X153875000Y-68373549D01*
X153777172Y-68383184D01*
X153683103Y-68411720D01*
X153596409Y-68458059D01*
X153520421Y-68520421D01*
X153458059Y-68596409D01*
X153411720Y-68683103D01*
X153383184Y-68777172D01*
X153373549Y-68875000D01*
X153373549Y-69425000D01*
X153374929Y-69439011D01*
X153128950Y-69684990D01*
X153051883Y-69684990D01*
X153088280Y-69616897D01*
X153116816Y-69522828D01*
X153126451Y-69425000D01*
X153126451Y-68875000D01*
X153116816Y-68777172D01*
X153088280Y-68683103D01*
X153041941Y-68596409D01*
X152979579Y-68520421D01*
X152903591Y-68458059D01*
X152816897Y-68411720D01*
X152722828Y-68383184D01*
X152625000Y-68373549D01*
X152225000Y-68373549D01*
X152127172Y-68383184D01*
X152033103Y-68411720D01*
X151946409Y-68458059D01*
X151870421Y-68520421D01*
X151808059Y-68596409D01*
X151761720Y-68683103D01*
X151733184Y-68777172D01*
X151723549Y-68875000D01*
X151723549Y-68961000D01*
X148348464Y-68961000D01*
X148327590Y-68958944D01*
X148306716Y-68961000D01*
X148244276Y-68967150D01*
X148164163Y-68991452D01*
X148090330Y-69030916D01*
X148025616Y-69084026D01*
X148012306Y-69100244D01*
X140506239Y-76606311D01*
X140490027Y-76619616D01*
X140476722Y-76635828D01*
X140476720Y-76635830D01*
X140464454Y-76650777D01*
X140436917Y-76684330D01*
X140435417Y-76687137D01*
X140397453Y-76758163D01*
X140373150Y-76838276D01*
X140364945Y-76921590D01*
X140367001Y-76942467D01*
X140367000Y-79926084D01*
X140363496Y-79932640D01*
X140346341Y-79989190D01*
X140340549Y-80048000D01*
X140243451Y-80048000D01*
X140237659Y-79989190D01*
X140220504Y-79932640D01*
X140192647Y-79880523D01*
X140155158Y-79834842D01*
X140109477Y-79797353D01*
X140057360Y-79769496D01*
X140000810Y-79752341D01*
X139942000Y-79746549D01*
X139642000Y-79746549D01*
X139583190Y-79752341D01*
X139526640Y-79769496D01*
X139474523Y-79797353D01*
X139428842Y-79834842D01*
X139391353Y-79880523D01*
X139363496Y-79932640D01*
X139346341Y-79989190D01*
X139340549Y-80048000D01*
X135837409Y-80048000D01*
X135753290Y-79844918D01*
X135544181Y-79531965D01*
X135278036Y-79265820D01*
X134965083Y-79056711D01*
X134617348Y-78912675D01*
X134248194Y-78839245D01*
X133871808Y-78839245D01*
X133502654Y-78912675D01*
X133154919Y-79056711D01*
X132841966Y-79265820D01*
X132575821Y-79531965D01*
X132366712Y-79844918D01*
X132222676Y-80192653D01*
X132149246Y-80561807D01*
X131488644Y-80561807D01*
X131460000Y-80289288D01*
X131460000Y-70039565D01*
X131511399Y-69515364D01*
X131548702Y-69391807D01*
X132149246Y-69391807D01*
X132149246Y-69768193D01*
X132222676Y-70137347D01*
X132366712Y-70485082D01*
X132575821Y-70798035D01*
X132841966Y-71064180D01*
X133154919Y-71273289D01*
X133502654Y-71417325D01*
X133871808Y-71490755D01*
X134248194Y-71490755D01*
X134617348Y-71417325D01*
X134965083Y-71273289D01*
X135278036Y-71064180D01*
X135544181Y-70798035D01*
X135753290Y-70485082D01*
X135897326Y-70137347D01*
X135970756Y-69768193D01*
X135970756Y-69391807D01*
X135897326Y-69022653D01*
X135753290Y-68674918D01*
X135544181Y-68361965D01*
X135278036Y-68095820D01*
X134965083Y-67886711D01*
X134617348Y-67742675D01*
X134248194Y-67669245D01*
X133871808Y-67669245D01*
X133502654Y-67742675D01*
X133154919Y-67886711D01*
X132841966Y-68095820D01*
X132575821Y-68361965D01*
X132366712Y-68674918D01*
X132222676Y-69022653D01*
X132149246Y-69391807D01*
X131548702Y-69391807D01*
X131657954Y-69029949D01*
X131896000Y-68582247D01*
X132216479Y-68189302D01*
X132607171Y-67866093D01*
X133053205Y-67624924D01*
X133537583Y-67474983D01*
X134060713Y-67420000D01*
X136079648Y-67420000D01*
X136080339Y-67419932D01*
X136082339Y-67419925D01*
X136099725Y-67418159D01*
X136117198Y-67418281D01*
X136122756Y-67417736D01*
X136705046Y-67356535D01*
X136740535Y-67349250D01*
X136776171Y-67342452D01*
X136781518Y-67340837D01*
X137340830Y-67167701D01*
X137374243Y-67153655D01*
X137407865Y-67140071D01*
X137412797Y-67137449D01*
X137927829Y-66858972D01*
X137957885Y-66838699D01*
X137988220Y-66818848D01*
X137992546Y-66815320D01*
X137992549Y-66815318D01*
X137992554Y-66815313D01*
X138443683Y-66442108D01*
X138469231Y-66416382D01*
X138495131Y-66391018D01*
X138498691Y-66386715D01*
X138868742Y-65932987D01*
X138888789Y-65902813D01*
X138909287Y-65872877D01*
X138911943Y-65867964D01*
X139186817Y-65351000D01*
X139200624Y-65317502D01*
X139214914Y-65284160D01*
X139216566Y-65278825D01*
X139385793Y-64718317D01*
X139392837Y-64682739D01*
X139400372Y-64647292D01*
X139400956Y-64641737D01*
X139458091Y-64059035D01*
X139458091Y-64059031D01*
X139460000Y-64039648D01*
X139460000Y-57039565D01*
X139511399Y-56515364D01*
X139657954Y-56029949D01*
X139896000Y-55582247D01*
X140216479Y-55189302D01*
X140607171Y-54866093D01*
X141053205Y-54624924D01*
X141537583Y-54474983D01*
X142060713Y-54420000D01*
X149040426Y-54420000D01*
X149564636Y-54471400D01*
%TA.AperFunction,Conductor*%
D22*
G36*
X149564636Y-54471400D02*
G01*
X150050055Y-54617956D01*
X150497754Y-54856001D01*
X150890699Y-55176480D01*
X151213907Y-55567171D01*
X151455076Y-56013205D01*
X151605017Y-56497583D01*
X151660000Y-57020713D01*
X151660001Y-57021107D01*
X151660000Y-64039647D01*
X151660068Y-64040338D01*
X151660075Y-64042338D01*
X151661841Y-64059724D01*
X151661719Y-64077197D01*
X151662264Y-64082755D01*
X151723465Y-64665045D01*
X151730750Y-64700534D01*
X151737548Y-64736170D01*
X151739163Y-64741517D01*
X151912299Y-65300830D01*
X151926340Y-65334231D01*
X151939929Y-65367865D01*
X151942551Y-65372797D01*
X152221028Y-65887829D01*
X152241301Y-65917885D01*
X152261152Y-65948220D01*
X152264678Y-65952543D01*
X152264682Y-65952549D01*
X152264687Y-65952554D01*
X152637892Y-66403683D01*
X152663618Y-66429231D01*
X152688982Y-66455131D01*
X152693285Y-66458691D01*
X153147013Y-66828742D01*
X153177221Y-66848812D01*
X153207123Y-66869286D01*
X153212036Y-66871943D01*
X153728999Y-67146818D01*
X153762523Y-67160636D01*
X153795840Y-67174915D01*
X153801175Y-67176567D01*
X154361683Y-67345794D01*
X154397261Y-67352838D01*
X154432708Y-67360373D01*
X154438263Y-67360957D01*
X155020965Y-67418092D01*
X155020982Y-67418092D01*
X155040354Y-67420000D01*
X175079647Y-67420000D01*
X175080327Y-67419933D01*
X175082338Y-67419926D01*
X175099724Y-67418160D01*
X175117197Y-67418282D01*
X175122755Y-67417737D01*
X175705045Y-67356536D01*
X175740564Y-67349245D01*
X175776171Y-67342452D01*
X175781518Y-67340838D01*
X176340831Y-67167701D01*
X176374236Y-67153659D01*
X176407865Y-67140072D01*
X176412796Y-67137450D01*
X176927828Y-66858974D01*
X176957861Y-66838716D01*
X176988221Y-66818849D01*
X176992549Y-66815319D01*
X177443682Y-66442109D01*
X177469212Y-66416399D01*
X177495130Y-66391019D01*
X177498690Y-66386716D01*
X177868742Y-65932988D01*
X177888801Y-65902796D01*
X177909287Y-65872877D01*
X177911943Y-65867964D01*
X178186817Y-65351000D01*
X178200624Y-65317502D01*
X178214914Y-65284160D01*
X178216566Y-65278825D01*
X178385793Y-64718317D01*
X178392837Y-64682739D01*
X178400372Y-64647292D01*
X178400956Y-64641737D01*
X178458091Y-64059035D01*
X178458091Y-64059031D01*
X178460000Y-64039648D01*
X178460000Y-57039554D01*
X178511398Y-56515364D01*
X178657954Y-56029945D01*
X178895999Y-55582246D01*
X179216478Y-55189301D01*
X179607169Y-54866093D01*
X180053203Y-54624924D01*
X180537581Y-54474983D01*
X181060711Y-54420000D01*
X188040426Y-54420000D01*
X188564636Y-54471400D01*
X189050053Y-54617955D01*
X189497753Y-54856002D01*
X189890700Y-55176481D01*
X190213907Y-55567173D01*
X190455076Y-56013204D01*
X190605015Y-56497580D01*
X190659999Y-57020712D01*
X190660001Y-57021393D01*
X190660000Y-64039646D01*
X190660068Y-64040337D01*
X190660075Y-64042339D01*
X190661841Y-64059725D01*
X190661719Y-64077198D01*
X190662264Y-64082756D01*
X190723465Y-64665046D01*
X190730750Y-64700535D01*
X190737548Y-64736171D01*
X190739163Y-64741518D01*
X190912299Y-65300830D01*
X190926345Y-65334243D01*
X190939929Y-65367865D01*
X190942551Y-65372797D01*
X191221028Y-65887829D01*
X191241301Y-65917885D01*
X191261152Y-65948220D01*
X191264678Y-65952543D01*
X191264682Y-65952549D01*
X191264687Y-65952554D01*
X191637892Y-66403683D01*
X191663618Y-66429231D01*
X191688982Y-66455131D01*
X191693285Y-66458691D01*
X192147013Y-66828742D01*
X192177187Y-66848789D01*
X192207123Y-66869287D01*
X192212036Y-66871943D01*
X192729000Y-67146817D01*
X192762498Y-67160624D01*
X192795840Y-67174914D01*
X192801175Y-67176566D01*
X193361683Y-67345793D01*
X193397261Y-67352837D01*
X193432708Y-67360372D01*
X193438263Y-67360956D01*
X194020965Y-67418091D01*
X194020969Y-67418091D01*
X194040352Y-67420000D01*
X196040435Y-67420000D01*
X196564636Y-67471399D01*
X197050051Y-67617954D01*
X197497753Y-67856000D01*
X197890698Y-68176479D01*
X198213907Y-68567171D01*
X198455076Y-69013205D01*
X198605017Y-69497583D01*
X198660000Y-70020713D01*
X198660001Y-70021107D01*
X198659999Y-80270436D01*
X198608600Y-80794637D01*
X198462045Y-81280053D01*
X198223997Y-81727757D01*
X197903521Y-82120698D01*
X197512829Y-82443907D01*
X197066794Y-82685077D01*
X196582418Y-82835016D01*
X196059287Y-82890000D01*
X191079647Y-82890000D01*
X191060000Y-82888065D01*
X191040354Y-82890000D01*
X191040353Y-82890000D01*
X190981586Y-82895788D01*
X190906186Y-82918660D01*
X190836697Y-82955803D01*
X190775789Y-83005789D01*
X190725803Y-83066697D01*
X190688660Y-83136186D01*
X190665788Y-83211586D01*
X190658065Y-83290000D01*
X190660001Y-83309657D01*
X190660000Y-96890001D01*
X139460000Y-96889999D01*
X139460000Y-95390735D01*
X139820000Y-95390735D01*
X139820000Y-95617265D01*
X139864194Y-95839443D01*
X139950884Y-96048729D01*
X140076737Y-96237082D01*
X140236918Y-96397263D01*
X140425271Y-96523116D01*
X140634557Y-96609806D01*
X140856735Y-96654000D01*
X141083265Y-96654000D01*
X141305443Y-96609806D01*
X141514729Y-96523116D01*
X141703082Y-96397263D01*
X141863263Y-96237082D01*
X141989116Y-96048729D01*
X142075806Y-95839443D01*
X142120000Y-95617265D01*
X142120000Y-95390735D01*
X142075806Y-95168557D01*
X141989116Y-94959271D01*
X141863263Y-94770918D01*
X141703082Y-94610737D01*
X141514729Y-94484884D01*
X141305443Y-94398194D01*
X141083265Y-94354000D01*
X140856735Y-94354000D01*
X140634557Y-94398194D01*
X140425271Y-94484884D01*
X140236918Y-94610737D01*
X140076737Y-94770918D01*
X139950884Y-94959271D01*
X139864194Y-95168557D01*
X139820000Y-95390735D01*
X139460000Y-95390735D01*
X139460000Y-92850735D01*
X139820000Y-92850735D01*
X139820000Y-93077265D01*
X139864194Y-93299443D01*
X139950884Y-93508729D01*
X140076737Y-93697082D01*
X140236918Y-93857263D01*
X140425271Y-93983116D01*
X140634557Y-94069806D01*
X140856735Y-94114000D01*
X141083265Y-94114000D01*
X141305443Y-94069806D01*
X141514729Y-93983116D01*
X141703082Y-93857263D01*
X141863263Y-93697082D01*
X141989116Y-93508729D01*
X142075806Y-93299443D01*
X142120000Y-93077265D01*
X142120000Y-92850735D01*
X142075806Y-92628557D01*
X141989116Y-92419271D01*
X141863263Y-92230918D01*
X141703082Y-92070737D01*
X141514729Y-91944884D01*
X141305443Y-91858194D01*
X141083265Y-91814000D01*
X140856735Y-91814000D01*
X140634557Y-91858194D01*
X140425271Y-91944884D01*
X140236918Y-92070737D01*
X140076737Y-92230918D01*
X139950884Y-92419271D01*
X139864194Y-92628557D01*
X139820000Y-92850735D01*
X139460000Y-92850735D01*
X139460000Y-83309647D01*
X139461935Y-83290000D01*
X139459745Y-83267759D01*
X139454212Y-83211586D01*
X139431340Y-83136186D01*
X139394197Y-83066697D01*
X139344211Y-83005789D01*
X139283303Y-82955803D01*
X139213814Y-82918660D01*
X139138414Y-82895788D01*
X139104969Y-82892494D01*
X139079647Y-82890000D01*
X139060000Y-82888065D01*
X139040354Y-82890000D01*
X134079554Y-82890000D01*
X133555364Y-82838602D01*
X133069949Y-82692047D01*
X132622242Y-82453997D01*
X132229302Y-82133523D01*
X131906093Y-81742830D01*
X131664923Y-81296795D01*
X131514984Y-80812419D01*
X131488644Y-80561807D01*
X132149246Y-80561807D01*
X132149246Y-80938193D01*
X132222676Y-81307347D01*
X132366712Y-81655082D01*
X132575821Y-81968035D01*
X132841966Y-82234180D01*
X133154919Y-82443289D01*
X133502654Y-82587325D01*
X133871808Y-82660755D01*
X134248194Y-82660755D01*
X134617348Y-82587325D01*
X134965083Y-82443289D01*
X135278036Y-82234180D01*
X135544181Y-81968035D01*
X135753290Y-81655082D01*
X135897326Y-81307347D01*
X135970756Y-80938193D01*
X135970756Y-80561807D01*
X135897326Y-80192653D01*
X135837409Y-80048000D01*
X139340549Y-80048000D01*
X139340549Y-81148000D01*
X139346341Y-81206810D01*
X139363496Y-81263360D01*
X139391353Y-81315477D01*
X139428842Y-81361158D01*
X139474523Y-81398647D01*
X139526640Y-81426504D01*
X139583190Y-81443659D01*
X139642000Y-81449451D01*
X139942000Y-81449451D01*
X140000810Y-81443659D01*
X140057360Y-81426504D01*
X140109477Y-81398647D01*
X140155158Y-81361158D01*
X140192647Y-81315477D01*
X140220504Y-81263360D01*
X140237659Y-81206810D01*
X140243451Y-81148000D01*
X140243451Y-80048000D01*
X140340549Y-80048000D01*
X140340549Y-81148000D01*
X140346341Y-81206810D01*
X140363496Y-81263360D01*
X140367000Y-81269916D01*
X140367001Y-87629123D01*
X140364945Y-87650000D01*
X140373150Y-87733314D01*
X140397453Y-87813427D01*
X140436917Y-87887260D01*
X140490027Y-87951974D01*
X140506239Y-87965279D01*
X144449999Y-91909039D01*
X144450000Y-94308122D01*
X144447944Y-94328999D01*
X144456149Y-94412313D01*
X144464804Y-94440842D01*
X144480452Y-94492426D01*
X144519916Y-94566259D01*
X144543659Y-94595190D01*
X144556419Y-94610737D01*
X144573026Y-94630973D01*
X144589238Y-94644278D01*
X144993788Y-95048828D01*
X144944194Y-95168557D01*
X144900000Y-95390735D01*
X144900000Y-95617265D01*
X144944194Y-95839443D01*
X145030884Y-96048729D01*
X145156737Y-96237082D01*
X145316918Y-96397263D01*
X145505271Y-96523116D01*
X145714557Y-96609806D01*
X145936735Y-96654000D01*
X146163265Y-96654000D01*
X146385443Y-96609806D01*
X146594729Y-96523116D01*
X146783082Y-96397263D01*
X146943263Y-96237082D01*
X147069116Y-96048729D01*
X147155806Y-95839443D01*
X147200000Y-95617265D01*
X147200000Y-95390735D01*
X147155806Y-95168557D01*
X147069116Y-94959271D01*
X146943263Y-94770918D01*
X146783082Y-94610737D01*
X146594729Y-94484884D01*
X146385443Y-94398194D01*
X146163265Y-94354000D01*
X145936735Y-94354000D01*
X145714557Y-94398194D01*
X145594828Y-94447788D01*
X145299999Y-94152959D01*
X145299999Y-93840344D01*
X145316918Y-93857263D01*
X145505271Y-93983116D01*
X145714557Y-94069806D01*
X145936735Y-94114000D01*
X146163265Y-94114000D01*
X146385443Y-94069806D01*
X146594729Y-93983116D01*
X146783082Y-93857263D01*
X146943263Y-93697082D01*
X146990000Y-93627135D01*
X146990000Y-94308122D01*
X146987944Y-94328999D01*
X146996149Y-94412313D01*
X147004804Y-94440842D01*
X147020452Y-94492426D01*
X147059916Y-94566259D01*
X147083659Y-94595190D01*
X147096419Y-94610737D01*
X147113026Y-94630973D01*
X147129238Y-94644278D01*
X147533788Y-95048828D01*
X147484194Y-95168557D01*
X147440000Y-95390735D01*
X147440000Y-95617265D01*
X147484194Y-95839443D01*
X147570884Y-96048729D01*
X147696737Y-96237082D01*
X147856918Y-96397263D01*
X148045271Y-96523116D01*
X148254557Y-96609806D01*
X148476735Y-96654000D01*
X148703265Y-96654000D01*
X148925443Y-96609806D01*
X149134729Y-96523116D01*
X149323082Y-96397263D01*
X149483263Y-96237082D01*
X149609116Y-96048729D01*
X149695806Y-95839443D01*
X149740000Y-95617265D01*
X149740000Y-95390735D01*
X149695806Y-95168557D01*
X149609116Y-94959271D01*
X149483263Y-94770918D01*
X149323082Y-94610737D01*
X149134729Y-94484884D01*
X148925443Y-94398194D01*
X148703265Y-94354000D01*
X148476735Y-94354000D01*
X148254557Y-94398194D01*
X148134828Y-94447788D01*
X147839999Y-94152959D01*
X147839999Y-93840344D01*
X147856918Y-93857263D01*
X148045271Y-93983116D01*
X148254557Y-94069806D01*
X148476735Y-94114000D01*
X148703265Y-94114000D01*
X148925443Y-94069806D01*
X149134729Y-93983116D01*
X149323082Y-93857263D01*
X149483263Y-93697082D01*
X149530000Y-93627135D01*
X149530000Y-94308122D01*
X149527944Y-94328999D01*
X149536149Y-94412313D01*
X149544804Y-94440842D01*
X149560452Y-94492426D01*
X149599916Y-94566259D01*
X149623659Y-94595190D01*
X149636419Y-94610737D01*
X149653026Y-94630973D01*
X149669238Y-94644278D01*
X150073788Y-95048828D01*
X150024194Y-95168557D01*
X149980000Y-95390735D01*
X149980000Y-95617265D01*
X150024194Y-95839443D01*
X150110884Y-96048729D01*
X150236737Y-96237082D01*
X150396918Y-96397263D01*
X150585271Y-96523116D01*
X150794557Y-96609806D01*
X151016735Y-96654000D01*
X151243265Y-96654000D01*
X151465443Y-96609806D01*
X151674729Y-96523116D01*
X151863082Y-96397263D01*
X152023263Y-96237082D01*
X152149116Y-96048729D01*
X152235806Y-95839443D01*
X152280000Y-95617265D01*
X152280000Y-95390735D01*
X152235806Y-95168557D01*
X152149116Y-94959271D01*
X152023263Y-94770918D01*
X151863082Y-94610737D01*
X151674729Y-94484884D01*
X151465443Y-94398194D01*
X151243265Y-94354000D01*
X151016735Y-94354000D01*
X150794557Y-94398194D01*
X150674828Y-94447788D01*
X150379999Y-94152959D01*
X150379999Y-93840344D01*
X150396918Y-93857263D01*
X150585271Y-93983116D01*
X150794557Y-94069806D01*
X151016735Y-94114000D01*
X151243265Y-94114000D01*
X151465443Y-94069806D01*
X151674729Y-93983116D01*
X151863082Y-93857263D01*
X152023263Y-93697082D01*
X152070000Y-93627135D01*
X152070000Y-94308122D01*
X152067944Y-94328999D01*
X152076149Y-94412313D01*
X152084804Y-94440842D01*
X152100452Y-94492426D01*
X152139916Y-94566259D01*
X152163659Y-94595190D01*
X152176419Y-94610737D01*
X152193026Y-94630973D01*
X152209238Y-94644278D01*
X152613788Y-95048828D01*
X152564194Y-95168557D01*
X152520000Y-95390735D01*
X152520000Y-95617265D01*
X152564194Y-95839443D01*
X152650884Y-96048729D01*
X152776737Y-96237082D01*
X152936918Y-96397263D01*
X153125271Y-96523116D01*
X153334557Y-96609806D01*
X153556735Y-96654000D01*
X153783265Y-96654000D01*
X154005443Y-96609806D01*
X154214729Y-96523116D01*
X154403082Y-96397263D01*
X154563263Y-96237082D01*
X154689116Y-96048729D01*
X154775806Y-95839443D01*
X154820000Y-95617265D01*
X154820000Y-95390735D01*
X154775806Y-95168557D01*
X154689116Y-94959271D01*
X154563263Y-94770918D01*
X154403082Y-94610737D01*
X154214729Y-94484884D01*
X154005443Y-94398194D01*
X153783265Y-94354000D01*
X153556735Y-94354000D01*
X153334557Y-94398194D01*
X153214828Y-94447788D01*
X152919999Y-94152959D01*
X152919999Y-93840344D01*
X152936918Y-93857263D01*
X153125271Y-93983116D01*
X153334557Y-94069806D01*
X153556735Y-94114000D01*
X153783265Y-94114000D01*
X154005443Y-94069806D01*
X154214729Y-93983116D01*
X154403082Y-93857263D01*
X154563263Y-93697082D01*
X154609999Y-93627136D01*
X154609999Y-94308132D01*
X154607944Y-94328999D01*
X154609999Y-94349866D01*
X154609999Y-94349872D01*
X154615267Y-94403353D01*
X154616149Y-94412313D01*
X154623521Y-94436615D01*
X154640451Y-94492425D01*
X154679915Y-94566258D01*
X154733025Y-94630973D01*
X154749242Y-94644282D01*
X155153788Y-95048828D01*
X155104194Y-95168557D01*
X155060000Y-95390735D01*
X155060000Y-95617265D01*
X155104194Y-95839443D01*
X155190884Y-96048729D01*
X155316737Y-96237082D01*
X155476918Y-96397263D01*
X155665271Y-96523116D01*
X155874557Y-96609806D01*
X156096735Y-96654000D01*
X156323265Y-96654000D01*
X156545443Y-96609806D01*
X156754729Y-96523116D01*
X156943082Y-96397263D01*
X157103263Y-96237082D01*
X157229116Y-96048729D01*
X157315806Y-95839443D01*
X157360000Y-95617265D01*
X157360000Y-95390735D01*
X157315806Y-95168557D01*
X157229116Y-94959271D01*
X157103263Y-94770918D01*
X156943082Y-94610737D01*
X156754729Y-94484884D01*
X156545443Y-94398194D01*
X156323265Y-94354000D01*
X156096735Y-94354000D01*
X155874557Y-94398194D01*
X155754828Y-94447788D01*
X155459999Y-94152959D01*
X155459999Y-93840344D01*
X155476918Y-93857263D01*
X155665271Y-93983116D01*
X155874557Y-94069806D01*
X156096735Y-94114000D01*
X156323265Y-94114000D01*
X156545443Y-94069806D01*
X156754729Y-93983116D01*
X156943082Y-93857263D01*
X157103263Y-93697082D01*
X157150000Y-93627135D01*
X157150000Y-94308122D01*
X157147944Y-94328999D01*
X157156149Y-94412313D01*
X157164804Y-94440842D01*
X157180452Y-94492426D01*
X157219916Y-94566259D01*
X157243659Y-94595190D01*
X157256419Y-94610737D01*
X157273026Y-94630973D01*
X157289238Y-94644278D01*
X157693788Y-95048828D01*
X157644194Y-95168557D01*
X157600000Y-95390735D01*
X157600000Y-95617265D01*
X157644194Y-95839443D01*
X157730884Y-96048729D01*
X157856737Y-96237082D01*
X158016918Y-96397263D01*
X158205271Y-96523116D01*
X158414557Y-96609806D01*
X158636735Y-96654000D01*
X158863265Y-96654000D01*
X159085443Y-96609806D01*
X159294729Y-96523116D01*
X159483082Y-96397263D01*
X159643263Y-96237082D01*
X159769116Y-96048729D01*
X159855806Y-95839443D01*
X159900000Y-95617265D01*
X159900000Y-95390735D01*
X159855806Y-95168557D01*
X159769116Y-94959271D01*
X159643263Y-94770918D01*
X159483082Y-94610737D01*
X159294729Y-94484884D01*
X159085443Y-94398194D01*
X158863265Y-94354000D01*
X158636735Y-94354000D01*
X158414557Y-94398194D01*
X158294828Y-94447788D01*
X157999999Y-94152959D01*
X157999999Y-93840344D01*
X158016918Y-93857263D01*
X158205271Y-93983116D01*
X158414557Y-94069806D01*
X158636735Y-94114000D01*
X158863265Y-94114000D01*
X159085443Y-94069806D01*
X159294729Y-93983116D01*
X159483082Y-93857263D01*
X159643263Y-93697082D01*
X159689999Y-93627136D01*
X159689999Y-94308132D01*
X159687944Y-94328999D01*
X159689999Y-94349866D01*
X159689999Y-94349872D01*
X159695267Y-94403353D01*
X159696149Y-94412313D01*
X159703521Y-94436615D01*
X159720451Y-94492425D01*
X159759915Y-94566258D01*
X159813025Y-94630973D01*
X159829242Y-94644282D01*
X160233788Y-95048828D01*
X160184194Y-95168557D01*
X160140000Y-95390735D01*
X160140000Y-95617265D01*
X160184194Y-95839443D01*
X160270884Y-96048729D01*
X160396737Y-96237082D01*
X160556918Y-96397263D01*
X160745271Y-96523116D01*
X160954557Y-96609806D01*
X161176735Y-96654000D01*
X161403265Y-96654000D01*
X161625443Y-96609806D01*
X161834729Y-96523116D01*
X162023082Y-96397263D01*
X162183263Y-96237082D01*
X162309116Y-96048729D01*
X162395806Y-95839443D01*
X162440000Y-95617265D01*
X162440000Y-95390735D01*
X162395806Y-95168557D01*
X162309116Y-94959271D01*
X162183263Y-94770918D01*
X162023082Y-94610737D01*
X161834729Y-94484884D01*
X161625443Y-94398194D01*
X161403265Y-94354000D01*
X161176735Y-94354000D01*
X160954557Y-94398194D01*
X160834828Y-94447788D01*
X160539999Y-94152959D01*
X160539999Y-93840344D01*
X160556918Y-93857263D01*
X160745271Y-93983116D01*
X160954557Y-94069806D01*
X161176735Y-94114000D01*
X161403265Y-94114000D01*
X161625443Y-94069806D01*
X161834729Y-93983116D01*
X162023082Y-93857263D01*
X162183263Y-93697082D01*
X162229999Y-93627136D01*
X162229999Y-94308132D01*
X162227944Y-94328999D01*
X162229999Y-94349866D01*
X162229999Y-94349872D01*
X162235267Y-94403353D01*
X162236149Y-94412313D01*
X162243521Y-94436615D01*
X162260451Y-94492425D01*
X162299915Y-94566258D01*
X162353025Y-94630973D01*
X162369242Y-94644282D01*
X162773788Y-95048828D01*
X162724194Y-95168557D01*
X162680000Y-95390735D01*
X162680000Y-95617265D01*
X162724194Y-95839443D01*
X162810884Y-96048729D01*
X162936737Y-96237082D01*
X163096918Y-96397263D01*
X163285271Y-96523116D01*
X163494557Y-96609806D01*
X163716735Y-96654000D01*
X163943265Y-96654000D01*
X164165443Y-96609806D01*
X164374729Y-96523116D01*
X164563082Y-96397263D01*
X164723263Y-96237082D01*
X164849116Y-96048729D01*
X164935806Y-95839443D01*
X164980000Y-95617265D01*
X164980000Y-95390735D01*
X165220000Y-95390735D01*
X165220000Y-95617265D01*
X165264194Y-95839443D01*
X165350884Y-96048729D01*
X165476737Y-96237082D01*
X165636918Y-96397263D01*
X165825271Y-96523116D01*
X166034557Y-96609806D01*
X166256735Y-96654000D01*
X166483265Y-96654000D01*
X166705443Y-96609806D01*
X166914729Y-96523116D01*
X167103082Y-96397263D01*
X167263263Y-96237082D01*
X167389116Y-96048729D01*
X167475806Y-95839443D01*
X167520000Y-95617265D01*
X167520000Y-95390735D01*
X167475806Y-95168557D01*
X167389116Y-94959271D01*
X167263263Y-94770918D01*
X167103082Y-94610737D01*
X166914729Y-94484884D01*
X166705443Y-94398194D01*
X166483265Y-94354000D01*
X166256735Y-94354000D01*
X166034557Y-94398194D01*
X165825271Y-94484884D01*
X165636918Y-94610737D01*
X165476737Y-94770918D01*
X165350884Y-94959271D01*
X165264194Y-95168557D01*
X165220000Y-95390735D01*
X164980000Y-95390735D01*
X164935806Y-95168557D01*
X164849116Y-94959271D01*
X164723263Y-94770918D01*
X164563082Y-94610737D01*
X164374729Y-94484884D01*
X164165443Y-94398194D01*
X163943265Y-94354000D01*
X163716735Y-94354000D01*
X163494557Y-94398194D01*
X163374828Y-94447788D01*
X163079999Y-94152959D01*
X163079999Y-93840344D01*
X163096918Y-93857263D01*
X163285271Y-93983116D01*
X163494557Y-94069806D01*
X163716735Y-94114000D01*
X163943265Y-94114000D01*
X164165443Y-94069806D01*
X164374729Y-93983116D01*
X164563082Y-93857263D01*
X164723263Y-93697082D01*
X164849116Y-93508729D01*
X164935806Y-93299443D01*
X164980000Y-93077265D01*
X164980000Y-92850735D01*
X165220000Y-92850735D01*
X165220000Y-93077265D01*
X165264194Y-93299443D01*
X165350884Y-93508729D01*
X165476737Y-93697082D01*
X165636918Y-93857263D01*
X165825271Y-93983116D01*
X166034557Y-94069806D01*
X166256735Y-94114000D01*
X166483265Y-94114000D01*
X166705443Y-94069806D01*
X166914729Y-93983116D01*
X167103082Y-93857263D01*
X167263263Y-93697082D01*
X167389116Y-93508729D01*
X167475806Y-93299443D01*
X167520000Y-93077265D01*
X167520000Y-92850735D01*
X167475806Y-92628557D01*
X167389116Y-92419271D01*
X167263263Y-92230918D01*
X167103082Y-92070737D01*
X166914729Y-91944884D01*
X166705443Y-91858194D01*
X166483265Y-91814000D01*
X166256735Y-91814000D01*
X166034557Y-91858194D01*
X165825271Y-91944884D01*
X165636918Y-92070737D01*
X165476737Y-92230918D01*
X165350884Y-92419271D01*
X165264194Y-92628557D01*
X165220000Y-92850735D01*
X164980000Y-92850735D01*
X164935806Y-92628557D01*
X164849116Y-92419271D01*
X164723263Y-92230918D01*
X164563082Y-92070737D01*
X164374729Y-91944884D01*
X164165443Y-91858194D01*
X163943265Y-91814000D01*
X163716735Y-91814000D01*
X163494557Y-91858194D01*
X163374828Y-91907788D01*
X160192251Y-88725210D01*
X160178941Y-88708993D01*
X160114227Y-88655883D01*
X160040394Y-88616419D01*
X159960281Y-88592117D01*
X159897841Y-88585967D01*
X159897834Y-88585967D01*
X159876967Y-88583912D01*
X159856100Y-88585967D01*
X158208237Y-88585967D01*
X156353270Y-86731000D01*
X164323549Y-86731000D01*
X164323549Y-87131000D01*
X164333184Y-87228828D01*
X164361720Y-87322897D01*
X164408059Y-87409591D01*
X164470421Y-87485579D01*
X164546001Y-87547606D01*
X164546000Y-87722393D01*
X164475912Y-87779912D01*
X164411219Y-87858742D01*
X164363147Y-87948678D01*
X164333545Y-88046264D01*
X164323549Y-88147750D01*
X164323549Y-88585250D01*
X164333545Y-88686736D01*
X164363147Y-88784322D01*
X164411219Y-88874258D01*
X164475912Y-88953088D01*
X164554742Y-89017781D01*
X164644678Y-89065853D01*
X164742264Y-89095455D01*
X164843750Y-89105451D01*
X165356250Y-89105451D01*
X165457736Y-89095455D01*
X165555322Y-89065853D01*
X165645258Y-89017781D01*
X165724088Y-88953088D01*
X165788781Y-88874258D01*
X165836853Y-88784322D01*
X165866455Y-88686736D01*
X165876451Y-88585250D01*
X165876451Y-88147750D01*
X165866455Y-88046264D01*
X165836853Y-87948678D01*
X165788781Y-87858742D01*
X165724088Y-87779912D01*
X165654000Y-87722393D01*
X165654000Y-87547605D01*
X165729579Y-87485579D01*
X165791941Y-87409591D01*
X165838280Y-87322897D01*
X165866816Y-87228828D01*
X165876451Y-87131000D01*
X165876451Y-86731000D01*
X165866816Y-86633172D01*
X165838280Y-86539103D01*
X165791941Y-86452409D01*
X165729579Y-86376421D01*
X165653591Y-86314059D01*
X165566897Y-86267720D01*
X165472828Y-86239184D01*
X165375000Y-86229549D01*
X164825000Y-86229549D01*
X164727172Y-86239184D01*
X164633103Y-86267720D01*
X164546409Y-86314059D01*
X164470421Y-86376421D01*
X164408059Y-86452409D01*
X164361720Y-86539103D01*
X164333184Y-86633172D01*
X164323549Y-86731000D01*
X156353270Y-86731000D01*
X154703270Y-85081000D01*
X164323549Y-85081000D01*
X164323549Y-85481000D01*
X164333184Y-85578828D01*
X164361720Y-85672897D01*
X164408059Y-85759591D01*
X164470421Y-85835579D01*
X164546409Y-85897941D01*
X164633103Y-85944280D01*
X164727172Y-85972816D01*
X164825000Y-85982451D01*
X165375000Y-85982451D01*
X165472828Y-85972816D01*
X165566897Y-85944280D01*
X165653591Y-85897941D01*
X165729579Y-85835579D01*
X165791941Y-85759591D01*
X165820586Y-85706000D01*
X170406133Y-85706000D01*
X170427000Y-85708055D01*
X170447867Y-85706000D01*
X170447874Y-85706000D01*
X170510314Y-85699850D01*
X170590427Y-85675548D01*
X170664260Y-85636084D01*
X170728974Y-85582974D01*
X170742284Y-85566756D01*
X175284762Y-81024279D01*
X175300974Y-81010974D01*
X175315028Y-80993850D01*
X175337147Y-80966897D01*
X175354084Y-80946260D01*
X175393548Y-80872427D01*
X175410478Y-80816617D01*
X175417850Y-80792315D01*
X175421319Y-80757090D01*
X175424000Y-80729874D01*
X175424000Y-80729868D01*
X175426055Y-80709001D01*
X175424000Y-80688134D01*
X175424000Y-80048000D01*
X178456549Y-80048000D01*
X178456549Y-81148000D01*
X178462341Y-81206810D01*
X178479496Y-81263360D01*
X178507353Y-81315477D01*
X178544842Y-81361158D01*
X178590523Y-81398647D01*
X178642640Y-81426504D01*
X178699190Y-81443659D01*
X178758000Y-81449451D01*
X179058000Y-81449451D01*
X179116810Y-81443659D01*
X179173360Y-81426504D01*
X179225477Y-81398647D01*
X179271158Y-81361158D01*
X179308647Y-81315477D01*
X179336504Y-81263360D01*
X179353659Y-81206810D01*
X179359451Y-81148000D01*
X179359451Y-80048000D01*
X179353659Y-79989190D01*
X179336504Y-79932640D01*
X179308647Y-79880523D01*
X179271158Y-79834842D01*
X179225477Y-79797353D01*
X179173360Y-79769496D01*
X179116810Y-79752341D01*
X179058000Y-79746549D01*
X178758000Y-79746549D01*
X178699190Y-79752341D01*
X178642640Y-79769496D01*
X178590523Y-79797353D01*
X178544842Y-79834842D01*
X178507353Y-79880523D01*
X178479496Y-79932640D01*
X178462341Y-79989190D01*
X178456549Y-80048000D01*
X175424000Y-80048000D01*
X175424000Y-78570866D01*
X175426055Y-78549999D01*
X175424000Y-78529132D01*
X175424000Y-78529126D01*
X175418499Y-78473280D01*
X175417850Y-78466685D01*
X175401642Y-78413255D01*
X175393548Y-78386573D01*
X175354084Y-78312740D01*
X175300974Y-78248026D01*
X175284763Y-78234722D01*
X174971451Y-77921410D01*
X174971451Y-77200000D01*
X174965659Y-77141190D01*
X174948504Y-77084640D01*
X174920647Y-77032523D01*
X174883158Y-76986842D01*
X174837477Y-76949353D01*
X174785360Y-76921496D01*
X174774000Y-76918050D01*
X174774000Y-76309474D01*
X174787082Y-76296392D01*
X174904182Y-76273099D01*
X175031574Y-76220332D01*
X175146224Y-76143726D01*
X175243726Y-76046224D01*
X175320332Y-75931574D01*
X175373099Y-75804182D01*
X175400000Y-75668944D01*
X175400000Y-75531056D01*
X175373099Y-75395818D01*
X175320332Y-75268426D01*
X175243726Y-75153776D01*
X175146224Y-75056274D01*
X175031574Y-74979668D01*
X174904182Y-74926901D01*
X174768944Y-74900000D01*
X174631056Y-74900000D01*
X174495818Y-74926901D01*
X174368426Y-74979668D01*
X174253776Y-75056274D01*
X174156274Y-75153776D01*
X174079668Y-75268426D01*
X174026901Y-75395818D01*
X174003608Y-75512918D01*
X173887952Y-75628575D01*
X173887952Y-73900000D01*
X173882160Y-73841190D01*
X173865005Y-73784639D01*
X173837148Y-73732522D01*
X173799659Y-73686841D01*
X173753978Y-73649352D01*
X173701861Y-73621495D01*
X173645310Y-73604340D01*
X173586500Y-73598548D01*
X171853500Y-73598548D01*
X171794690Y-73604340D01*
X171738139Y-73621495D01*
X171686022Y-73649352D01*
X171640341Y-73686841D01*
X171602852Y-73732522D01*
X171574995Y-73784639D01*
X171557840Y-73841190D01*
X171552048Y-73900000D01*
X171552048Y-77025000D01*
X171557840Y-77083810D01*
X171574995Y-77140361D01*
X171602852Y-77192478D01*
X171640341Y-77238159D01*
X171686022Y-77275648D01*
X171738139Y-77303505D01*
X171794690Y-77320660D01*
X171853500Y-77326452D01*
X171968548Y-77326452D01*
X171968548Y-78500000D01*
X171974340Y-78558810D01*
X171991495Y-78615361D01*
X172019352Y-78667478D01*
X172056841Y-78713159D01*
X172102522Y-78750648D01*
X172154639Y-78778505D01*
X172166000Y-78781952D01*
X172166000Y-79011725D01*
X172097743Y-79067743D01*
X172032272Y-79147519D01*
X171983623Y-79238536D01*
X171953665Y-79337295D01*
X171943549Y-79440000D01*
X171943549Y-79940000D01*
X171953665Y-80042705D01*
X171983623Y-80141464D01*
X172032272Y-80232481D01*
X172097743Y-80312257D01*
X172166001Y-80368275D01*
X172166001Y-80535725D01*
X172097743Y-80591743D01*
X172032272Y-80671519D01*
X171983623Y-80762536D01*
X171953665Y-80861295D01*
X171943549Y-80964000D01*
X171943549Y-81464000D01*
X171953665Y-81566705D01*
X171983623Y-81665464D01*
X172032272Y-81756481D01*
X172097743Y-81836257D01*
X172177519Y-81901728D01*
X172268536Y-81950377D01*
X172367295Y-81980335D01*
X172470000Y-81990451D01*
X172920000Y-81990451D01*
X173022705Y-81980335D01*
X173121464Y-81950377D01*
X173196907Y-81910052D01*
X170250960Y-84856000D01*
X165820586Y-84856000D01*
X165791941Y-84802409D01*
X165729579Y-84726421D01*
X165653591Y-84664059D01*
X165566897Y-84617720D01*
X165472828Y-84589184D01*
X165375000Y-84579549D01*
X164825000Y-84579549D01*
X164727172Y-84589184D01*
X164633103Y-84617720D01*
X164546409Y-84664059D01*
X164470421Y-84726421D01*
X164408059Y-84802409D01*
X164361720Y-84889103D01*
X164333184Y-84983172D01*
X164323549Y-85081000D01*
X154703270Y-85081000D01*
X151050772Y-81428502D01*
X151057360Y-81426504D01*
X151109477Y-81398647D01*
X151155158Y-81361158D01*
X151192647Y-81315477D01*
X151220504Y-81263360D01*
X151237659Y-81206810D01*
X151243451Y-81148000D01*
X151243451Y-80048000D01*
X151237659Y-79989190D01*
X151220504Y-79932640D01*
X151217000Y-79926084D01*
X151217000Y-76075000D01*
X152224133Y-76075000D01*
X152245000Y-76077055D01*
X152265867Y-76075000D01*
X152265874Y-76075000D01*
X152328314Y-76068850D01*
X152408427Y-76044548D01*
X152482260Y-76005084D01*
X152546974Y-75951974D01*
X152560283Y-75935757D01*
X153567763Y-74928278D01*
X153583974Y-74914974D01*
X153637084Y-74850260D01*
X153676548Y-74776427D01*
X153700850Y-74696314D01*
X153707000Y-74633874D01*
X153707000Y-74633868D01*
X153709055Y-74613001D01*
X153707000Y-74592134D01*
X153707000Y-73433040D01*
X153929589Y-73210451D01*
X154305000Y-73210451D01*
X154402828Y-73200816D01*
X154496897Y-73172280D01*
X154583591Y-73125941D01*
X154659579Y-73063579D01*
X154721941Y-72987591D01*
X154768280Y-72900897D01*
X154796816Y-72806828D01*
X154806451Y-72709000D01*
X154806451Y-72159000D01*
X154796816Y-72061172D01*
X154768280Y-71967103D01*
X154721941Y-71880409D01*
X154659579Y-71804421D01*
X154629000Y-71779325D01*
X154629000Y-71564675D01*
X154659579Y-71539579D01*
X154721605Y-71464000D01*
X157223527Y-71464000D01*
X158426000Y-72666474D01*
X158426000Y-73610616D01*
X158405310Y-73604340D01*
X158346500Y-73598548D01*
X158027000Y-73598548D01*
X158027000Y-73138848D01*
X158093332Y-73039574D01*
X158146099Y-72912182D01*
X158173000Y-72776944D01*
X158173000Y-72639056D01*
X158146099Y-72503818D01*
X158093332Y-72376426D01*
X158016726Y-72261776D01*
X157919224Y-72164274D01*
X157804574Y-72087668D01*
X157677182Y-72034901D01*
X157541944Y-72008000D01*
X157404056Y-72008000D01*
X157268818Y-72034901D01*
X157141426Y-72087668D01*
X157026776Y-72164274D01*
X156929274Y-72261776D01*
X156852668Y-72376426D01*
X156799901Y-72503818D01*
X156773000Y-72639056D01*
X156773000Y-72776944D01*
X156799901Y-72912182D01*
X156852668Y-73039574D01*
X156919000Y-73138848D01*
X156919000Y-73598548D01*
X156613500Y-73598548D01*
X156554690Y-73604340D01*
X156498139Y-73621495D01*
X156446022Y-73649352D01*
X156400341Y-73686841D01*
X156362852Y-73732522D01*
X156334995Y-73784639D01*
X156317840Y-73841190D01*
X156312048Y-73900000D01*
X156312048Y-77025000D01*
X156317840Y-77083810D01*
X156334995Y-77140361D01*
X156362852Y-77192478D01*
X156400341Y-77238159D01*
X156446022Y-77275648D01*
X156498139Y-77303505D01*
X156554690Y-77320660D01*
X156613500Y-77326452D01*
X156728548Y-77326452D01*
X156728548Y-78500000D01*
X156734340Y-78558810D01*
X156751495Y-78615361D01*
X156779352Y-78667478D01*
X156816841Y-78713159D01*
X156862522Y-78750648D01*
X156914639Y-78778505D01*
X156971190Y-78795660D01*
X157030000Y-78801452D01*
X157660075Y-78801452D01*
X157547978Y-78913549D01*
X157330000Y-78913549D01*
X157227295Y-78923665D01*
X157128536Y-78953623D01*
X157037519Y-79002272D01*
X156957743Y-79067743D01*
X156892272Y-79147519D01*
X156843623Y-79238536D01*
X156813665Y-79337295D01*
X156803549Y-79440000D01*
X156803549Y-79940000D01*
X156813665Y-80042705D01*
X156843623Y-80141464D01*
X156892272Y-80232481D01*
X156957743Y-80312257D01*
X157001000Y-80347758D01*
X157001001Y-80556242D01*
X156957743Y-80591743D01*
X156892272Y-80671519D01*
X156843623Y-80762536D01*
X156813665Y-80861295D01*
X156803549Y-80964000D01*
X156803549Y-81464000D01*
X156813665Y-81566705D01*
X156843623Y-81665464D01*
X156892272Y-81756481D01*
X156957743Y-81836257D01*
X157037519Y-81901728D01*
X157128536Y-81950377D01*
X157227295Y-81980335D01*
X157330000Y-81990451D01*
X157780000Y-81990451D01*
X157882705Y-81980335D01*
X157981464Y-81950377D01*
X158072481Y-81901728D01*
X158152257Y-81836257D01*
X158217728Y-81756481D01*
X158266377Y-81665464D01*
X158296335Y-81566705D01*
X158306451Y-81464000D01*
X158306451Y-80964000D01*
X158296335Y-80861295D01*
X158266377Y-80762536D01*
X158217728Y-80671519D01*
X158152257Y-80591743D01*
X158109000Y-80556243D01*
X158109000Y-80481056D01*
X160250000Y-80481056D01*
X160250000Y-80618944D01*
X160276901Y-80754182D01*
X160329668Y-80881574D01*
X160406274Y-80996224D01*
X160503776Y-81093726D01*
X160618426Y-81170332D01*
X160745818Y-81223099D01*
X160881056Y-81250000D01*
X161018944Y-81250000D01*
X161154182Y-81223099D01*
X161281574Y-81170332D01*
X161396224Y-81093726D01*
X161489950Y-81000000D01*
X163029414Y-81000000D01*
X163058059Y-81053591D01*
X163120421Y-81129579D01*
X163196409Y-81191941D01*
X163283103Y-81238280D01*
X163377172Y-81266816D01*
X163475000Y-81276451D01*
X164025000Y-81276451D01*
X164122828Y-81266816D01*
X164216897Y-81238280D01*
X164303591Y-81191941D01*
X164379579Y-81129579D01*
X164441941Y-81053591D01*
X164488280Y-80966897D01*
X164516816Y-80872828D01*
X164526451Y-80775000D01*
X164526451Y-80381000D01*
X165723549Y-80381000D01*
X165723549Y-80781000D01*
X165733184Y-80878828D01*
X165761720Y-80972897D01*
X165808059Y-81059591D01*
X165870421Y-81135579D01*
X165946409Y-81197941D01*
X166033103Y-81244280D01*
X166127172Y-81272816D01*
X166225000Y-81282451D01*
X166775000Y-81282451D01*
X166872828Y-81272816D01*
X166966897Y-81244280D01*
X167053591Y-81197941D01*
X167129579Y-81135579D01*
X167191941Y-81059591D01*
X167220586Y-81006000D01*
X168816050Y-81006000D01*
X168903776Y-81093726D01*
X169018426Y-81170332D01*
X169145818Y-81223099D01*
X169281056Y-81250000D01*
X169418944Y-81250000D01*
X169554182Y-81223099D01*
X169681574Y-81170332D01*
X169796224Y-81093726D01*
X169893726Y-80996224D01*
X169970332Y-80881574D01*
X170023099Y-80754182D01*
X170050000Y-80618944D01*
X170050000Y-80481056D01*
X170023099Y-80345818D01*
X169970332Y-80218426D01*
X169893726Y-80103776D01*
X169796224Y-80006274D01*
X169681574Y-79929668D01*
X169554182Y-79876901D01*
X169418944Y-79850000D01*
X169281056Y-79850000D01*
X169145818Y-79876901D01*
X169018426Y-79929668D01*
X168903776Y-80006274D01*
X168806274Y-80103776D01*
X168771379Y-80156000D01*
X167220586Y-80156000D01*
X167191941Y-80102409D01*
X167129579Y-80026421D01*
X167053591Y-79964059D01*
X166966897Y-79917720D01*
X166872828Y-79889184D01*
X166775000Y-79879549D01*
X166225000Y-79879549D01*
X166127172Y-79889184D01*
X166033103Y-79917720D01*
X165946409Y-79964059D01*
X165870421Y-80026421D01*
X165808059Y-80102409D01*
X165761720Y-80189103D01*
X165733184Y-80283172D01*
X165723549Y-80381000D01*
X164526451Y-80381000D01*
X164526451Y-80375000D01*
X164516816Y-80277172D01*
X164488280Y-80183103D01*
X164441941Y-80096409D01*
X164379579Y-80020421D01*
X164303591Y-79958059D01*
X164216897Y-79911720D01*
X164122828Y-79883184D01*
X164025000Y-79873549D01*
X163475000Y-79873549D01*
X163377172Y-79883184D01*
X163283103Y-79911720D01*
X163196409Y-79958059D01*
X163120421Y-80020421D01*
X163058059Y-80096409D01*
X163029414Y-80150000D01*
X161524612Y-80150000D01*
X161493726Y-80103776D01*
X161396224Y-80006274D01*
X161281574Y-79929668D01*
X161154182Y-79876901D01*
X161018944Y-79850000D01*
X160881056Y-79850000D01*
X160745818Y-79876901D01*
X160618426Y-79929668D01*
X160503776Y-80006274D01*
X160406274Y-80103776D01*
X160329668Y-80218426D01*
X160276901Y-80345818D01*
X160250000Y-80481056D01*
X158109000Y-80481056D01*
X158109000Y-80347757D01*
X158152257Y-80312257D01*
X158217728Y-80232481D01*
X158266377Y-80141464D01*
X158296335Y-80042705D01*
X158306451Y-79940000D01*
X158306451Y-79722022D01*
X159227023Y-78801451D01*
X159430000Y-78801451D01*
X159488810Y-78795659D01*
X159545360Y-78778504D01*
X159597477Y-78750647D01*
X159643158Y-78713158D01*
X159680647Y-78667477D01*
X159708504Y-78615360D01*
X159725659Y-78558810D01*
X159731451Y-78500000D01*
X159731451Y-77699589D01*
X160831040Y-76600001D01*
X162898549Y-76600001D01*
X162898549Y-77750000D01*
X162904341Y-77808810D01*
X162921496Y-77865360D01*
X162949353Y-77917477D01*
X162986842Y-77963158D01*
X163032523Y-78000647D01*
X163084640Y-78028504D01*
X163141190Y-78045659D01*
X163200000Y-78051451D01*
X163346001Y-78051451D01*
X163346001Y-78242640D01*
X163283103Y-78261720D01*
X163196409Y-78308059D01*
X163120421Y-78370421D01*
X163058059Y-78446409D01*
X163011720Y-78533103D01*
X162983184Y-78627172D01*
X162973549Y-78725000D01*
X162973549Y-79125000D01*
X162983184Y-79222828D01*
X163011720Y-79316897D01*
X163058059Y-79403591D01*
X163120421Y-79479579D01*
X163196409Y-79541941D01*
X163283103Y-79588280D01*
X163377172Y-79616816D01*
X163475000Y-79626451D01*
X164025000Y-79626451D01*
X164122828Y-79616816D01*
X164216897Y-79588280D01*
X164303591Y-79541941D01*
X164379579Y-79479579D01*
X164380054Y-79479000D01*
X165865022Y-79479000D01*
X165870421Y-79485579D01*
X165946409Y-79547941D01*
X166033103Y-79594280D01*
X166127172Y-79622816D01*
X166225000Y-79632451D01*
X166775000Y-79632451D01*
X166872828Y-79622816D01*
X166966897Y-79594280D01*
X167053591Y-79547941D01*
X167129579Y-79485579D01*
X167191941Y-79409591D01*
X167238280Y-79322897D01*
X167266816Y-79228828D01*
X167276451Y-79131000D01*
X167276451Y-78731000D01*
X167266816Y-78633172D01*
X167238280Y-78539103D01*
X167191941Y-78452409D01*
X167129579Y-78376421D01*
X167053591Y-78314059D01*
X166966897Y-78267720D01*
X166872828Y-78239184D01*
X166775000Y-78229549D01*
X166225000Y-78229549D01*
X166127172Y-78239184D01*
X166033103Y-78267720D01*
X165946409Y-78314059D01*
X165877026Y-78371000D01*
X164454000Y-78371000D01*
X164454000Y-78051451D01*
X164600000Y-78051451D01*
X164658810Y-78045659D01*
X164715360Y-78028504D01*
X164767477Y-78000647D01*
X164813158Y-77963158D01*
X164850647Y-77917477D01*
X164878504Y-77865360D01*
X164895659Y-77808810D01*
X164901451Y-77750000D01*
X164901451Y-76600001D01*
X164954961Y-76600001D01*
X165298549Y-76943589D01*
X165298549Y-77750000D01*
X165304341Y-77808810D01*
X165321496Y-77865360D01*
X165349353Y-77917477D01*
X165386842Y-77963158D01*
X165432523Y-78000647D01*
X165484640Y-78028504D01*
X165541190Y-78045659D01*
X165600000Y-78051451D01*
X167000000Y-78051451D01*
X167058810Y-78045659D01*
X167115360Y-78028504D01*
X167167477Y-78000647D01*
X167213158Y-77963158D01*
X167250647Y-77917477D01*
X167278504Y-77865360D01*
X167295659Y-77808810D01*
X167301451Y-77750000D01*
X167301451Y-76550000D01*
X167295659Y-76491190D01*
X167278504Y-76434640D01*
X167250647Y-76382523D01*
X167213158Y-76336842D01*
X167167477Y-76299353D01*
X167115360Y-76271496D01*
X167058810Y-76254341D01*
X167000000Y-76248549D01*
X165805589Y-76248549D01*
X165708491Y-76151451D01*
X167000000Y-76151451D01*
X167058810Y-76145659D01*
X167115360Y-76128504D01*
X167167477Y-76100647D01*
X167213158Y-76063158D01*
X167250647Y-76017477D01*
X167278504Y-75965360D01*
X167295659Y-75908810D01*
X167301451Y-75850000D01*
X167301451Y-74650000D01*
X167295659Y-74591190D01*
X167278504Y-74534640D01*
X167250647Y-74482523D01*
X167213158Y-74436842D01*
X167167477Y-74399353D01*
X167115360Y-74371496D01*
X167058810Y-74354341D01*
X167000000Y-74348549D01*
X165600000Y-74348549D01*
X165541190Y-74354341D01*
X165484640Y-74371496D01*
X165432523Y-74399353D01*
X165386842Y-74436842D01*
X165349353Y-74482523D01*
X165321496Y-74534640D01*
X165304341Y-74591190D01*
X165298549Y-74650000D01*
X165298549Y-75782656D01*
X165294428Y-75780453D01*
X165214315Y-75756151D01*
X165151875Y-75750001D01*
X165151868Y-75750001D01*
X165131001Y-75747946D01*
X165110134Y-75750001D01*
X160675865Y-75750001D01*
X160654998Y-75747946D01*
X160634131Y-75750001D01*
X160634125Y-75750001D01*
X160580097Y-75755322D01*
X160571684Y-75756151D01*
X160547382Y-75763523D01*
X160491572Y-75780453D01*
X160417739Y-75819917D01*
X160353025Y-75873027D01*
X160339720Y-75889239D01*
X159534000Y-76694959D01*
X159534000Y-72464201D01*
X159536679Y-72436999D01*
X159534000Y-72409797D01*
X159534000Y-72409788D01*
X159525984Y-72328397D01*
X159494305Y-72223968D01*
X159442863Y-72127725D01*
X159373632Y-72043368D01*
X159352495Y-72026021D01*
X157863983Y-70537510D01*
X157846632Y-70516368D01*
X157762275Y-70447137D01*
X157666032Y-70395695D01*
X157561603Y-70364016D01*
X157480212Y-70356000D01*
X157480204Y-70356000D01*
X157453000Y-70353321D01*
X157425796Y-70356000D01*
X154721605Y-70356000D01*
X154659579Y-70280421D01*
X154629000Y-70255325D01*
X154629000Y-69780054D01*
X154629579Y-69779579D01*
X154691941Y-69703591D01*
X154738280Y-69616897D01*
X154766816Y-69522828D01*
X154776451Y-69425000D01*
X154776451Y-69289089D01*
X155377541Y-68688000D01*
X178003001Y-68688000D01*
X178003000Y-69483959D01*
X177731227Y-69755733D01*
X177695603Y-69744926D01*
X177587000Y-69734230D01*
X177478398Y-69744926D01*
X177373969Y-69776605D01*
X177277726Y-69828047D01*
X177193369Y-69897278D01*
X177143119Y-69958506D01*
X177108409Y-69977059D01*
X177032421Y-70039421D01*
X176970059Y-70115409D01*
X176923720Y-70202103D01*
X176895184Y-70296172D01*
X176885549Y-70394000D01*
X176885549Y-70944000D01*
X176895184Y-71041828D01*
X176923720Y-71135897D01*
X176970059Y-71222591D01*
X177032421Y-71298579D01*
X177033001Y-71299055D01*
X177033001Y-71562945D01*
X177032421Y-71563421D01*
X176970059Y-71639409D01*
X176923720Y-71726103D01*
X176895184Y-71820172D01*
X176885549Y-71918000D01*
X176885549Y-72468000D01*
X176895184Y-72565828D01*
X176923720Y-72659897D01*
X176970059Y-72746591D01*
X177032421Y-72822579D01*
X177033000Y-72823054D01*
X177033000Y-73422946D01*
X177032421Y-73423421D01*
X176970059Y-73499409D01*
X176923720Y-73586103D01*
X176895184Y-73680172D01*
X176885549Y-73778000D01*
X176885549Y-74328000D01*
X176895184Y-74425828D01*
X176923720Y-74519897D01*
X176970059Y-74606591D01*
X177032421Y-74682579D01*
X177108409Y-74744941D01*
X177195103Y-74791280D01*
X177289172Y-74819816D01*
X177387000Y-74829451D01*
X177787000Y-74829451D01*
X177884828Y-74819816D01*
X177978897Y-74791280D01*
X178065591Y-74744941D01*
X178141579Y-74682579D01*
X178203941Y-74606591D01*
X178250280Y-74519897D01*
X178278816Y-74425828D01*
X178288451Y-74328000D01*
X178288451Y-73778000D01*
X178278816Y-73680172D01*
X178250280Y-73586103D01*
X178203941Y-73499409D01*
X178141579Y-73423421D01*
X178141000Y-73422946D01*
X178141000Y-73094040D01*
X178421716Y-73374756D01*
X178435026Y-73390974D01*
X178499740Y-73444084D01*
X178573573Y-73483548D01*
X178621215Y-73498000D01*
X178620059Y-73499409D01*
X178573720Y-73586103D01*
X178545184Y-73680172D01*
X178535549Y-73778000D01*
X178535549Y-74328000D01*
X178545184Y-74425828D01*
X178573720Y-74519897D01*
X178620059Y-74606591D01*
X178682421Y-74682579D01*
X178758409Y-74744941D01*
X178845103Y-74791280D01*
X178939172Y-74819816D01*
X179037000Y-74829451D01*
X179437000Y-74829451D01*
X179483000Y-74824920D01*
X179483001Y-79926083D01*
X179479496Y-79932640D01*
X179462341Y-79989190D01*
X179456549Y-80048000D01*
X179456549Y-81148000D01*
X179462341Y-81206810D01*
X179470001Y-81232059D01*
X179470000Y-81802959D01*
X169365172Y-91907788D01*
X169245443Y-91858194D01*
X169023265Y-91814000D01*
X168796735Y-91814000D01*
X168574557Y-91858194D01*
X168365271Y-91944884D01*
X168176918Y-92070737D01*
X168016737Y-92230918D01*
X167890884Y-92419271D01*
X167804194Y-92628557D01*
X167760000Y-92850735D01*
X167760000Y-93077265D01*
X167804194Y-93299443D01*
X167890884Y-93508729D01*
X168016737Y-93697082D01*
X168176918Y-93857263D01*
X168365271Y-93983116D01*
X168574557Y-94069806D01*
X168796735Y-94114000D01*
X169023265Y-94114000D01*
X169245443Y-94069806D01*
X169454729Y-93983116D01*
X169643082Y-93857263D01*
X169660002Y-93840343D01*
X169660002Y-94152957D01*
X169365172Y-94447788D01*
X169245443Y-94398194D01*
X169023265Y-94354000D01*
X168796735Y-94354000D01*
X168574557Y-94398194D01*
X168365271Y-94484884D01*
X168176918Y-94610737D01*
X168016737Y-94770918D01*
X167890884Y-94959271D01*
X167804194Y-95168557D01*
X167760000Y-95390735D01*
X167760000Y-95617265D01*
X167804194Y-95839443D01*
X167890884Y-96048729D01*
X168016737Y-96237082D01*
X168176918Y-96397263D01*
X168365271Y-96523116D01*
X168574557Y-96609806D01*
X168796735Y-96654000D01*
X169023265Y-96654000D01*
X169245443Y-96609806D01*
X169454729Y-96523116D01*
X169643082Y-96397263D01*
X169803263Y-96237082D01*
X169929116Y-96048729D01*
X170015806Y-95839443D01*
X170060000Y-95617265D01*
X170060000Y-95390735D01*
X170015806Y-95168557D01*
X169966212Y-95048828D01*
X170370763Y-94644278D01*
X170386975Y-94630973D01*
X170403583Y-94610737D01*
X170440084Y-94566260D01*
X170440085Y-94566259D01*
X170479549Y-94492426D01*
X170503851Y-94412313D01*
X170510001Y-94349873D01*
X170510001Y-94349867D01*
X170512056Y-94329000D01*
X170510001Y-94308133D01*
X170510001Y-93627136D01*
X170556737Y-93697082D01*
X170716918Y-93857263D01*
X170905271Y-93983116D01*
X171114557Y-94069806D01*
X171336735Y-94114000D01*
X171563265Y-94114000D01*
X171785443Y-94069806D01*
X171994729Y-93983116D01*
X172183082Y-93857263D01*
X172200002Y-93840343D01*
X172200002Y-94152957D01*
X171905172Y-94447788D01*
X171785443Y-94398194D01*
X171563265Y-94354000D01*
X171336735Y-94354000D01*
X171114557Y-94398194D01*
X170905271Y-94484884D01*
X170716918Y-94610737D01*
X170556737Y-94770918D01*
X170430884Y-94959271D01*
X170344194Y-95168557D01*
X170300000Y-95390735D01*
X170300000Y-95617265D01*
X170344194Y-95839443D01*
X170430884Y-96048729D01*
X170556737Y-96237082D01*
X170716918Y-96397263D01*
X170905271Y-96523116D01*
X171114557Y-96609806D01*
X171336735Y-96654000D01*
X171563265Y-96654000D01*
X171785443Y-96609806D01*
X171994729Y-96523116D01*
X172183082Y-96397263D01*
X172343263Y-96237082D01*
X172469116Y-96048729D01*
X172555806Y-95839443D01*
X172600000Y-95617265D01*
X172600000Y-95390735D01*
X172555806Y-95168557D01*
X172506212Y-95048828D01*
X172910763Y-94644278D01*
X172926975Y-94630973D01*
X172943583Y-94610737D01*
X172980084Y-94566260D01*
X172980085Y-94566259D01*
X173019549Y-94492426D01*
X173043851Y-94412313D01*
X173050001Y-94349873D01*
X173050001Y-94349867D01*
X173052056Y-94329000D01*
X173050001Y-94308133D01*
X173050001Y-93627136D01*
X173096737Y-93697082D01*
X173256918Y-93857263D01*
X173445271Y-93983116D01*
X173654557Y-94069806D01*
X173876735Y-94114000D01*
X174103265Y-94114000D01*
X174325443Y-94069806D01*
X174534729Y-93983116D01*
X174723082Y-93857263D01*
X174740002Y-93840343D01*
X174740002Y-94152957D01*
X174445172Y-94447788D01*
X174325443Y-94398194D01*
X174103265Y-94354000D01*
X173876735Y-94354000D01*
X173654557Y-94398194D01*
X173445271Y-94484884D01*
X173256918Y-94610737D01*
X173096737Y-94770918D01*
X172970884Y-94959271D01*
X172884194Y-95168557D01*
X172840000Y-95390735D01*
X172840000Y-95617265D01*
X172884194Y-95839443D01*
X172970884Y-96048729D01*
X173096737Y-96237082D01*
X173256918Y-96397263D01*
X173445271Y-96523116D01*
X173654557Y-96609806D01*
X173876735Y-96654000D01*
X174103265Y-96654000D01*
X174325443Y-96609806D01*
X174534729Y-96523116D01*
X174723082Y-96397263D01*
X174883263Y-96237082D01*
X175009116Y-96048729D01*
X175095806Y-95839443D01*
X175140000Y-95617265D01*
X175140000Y-95390735D01*
X175095806Y-95168557D01*
X175046212Y-95048828D01*
X175450763Y-94644278D01*
X175466975Y-94630973D01*
X175483583Y-94610737D01*
X175520084Y-94566260D01*
X175520085Y-94566259D01*
X175559549Y-94492426D01*
X175583851Y-94412313D01*
X175590001Y-94349873D01*
X175590001Y-94349867D01*
X175592056Y-94329000D01*
X175590001Y-94308133D01*
X175590001Y-93627136D01*
X175636737Y-93697082D01*
X175796918Y-93857263D01*
X175985271Y-93983116D01*
X176194557Y-94069806D01*
X176416735Y-94114000D01*
X176643265Y-94114000D01*
X176865443Y-94069806D01*
X177074729Y-93983116D01*
X177263082Y-93857263D01*
X177280002Y-93840343D01*
X177280002Y-94152957D01*
X176985172Y-94447788D01*
X176865443Y-94398194D01*
X176643265Y-94354000D01*
X176416735Y-94354000D01*
X176194557Y-94398194D01*
X175985271Y-94484884D01*
X175796918Y-94610737D01*
X175636737Y-94770918D01*
X175510884Y-94959271D01*
X175424194Y-95168557D01*
X175380000Y-95390735D01*
X175380000Y-95617265D01*
X175424194Y-95839443D01*
X175510884Y-96048729D01*
X175636737Y-96237082D01*
X175796918Y-96397263D01*
X175985271Y-96523116D01*
X176194557Y-96609806D01*
X176416735Y-96654000D01*
X176643265Y-96654000D01*
X176865443Y-96609806D01*
X177074729Y-96523116D01*
X177263082Y-96397263D01*
X177423263Y-96237082D01*
X177549116Y-96048729D01*
X177635806Y-95839443D01*
X177680000Y-95617265D01*
X177680000Y-95390735D01*
X177635806Y-95168557D01*
X177586212Y-95048828D01*
X177990763Y-94644278D01*
X178006975Y-94630973D01*
X178023583Y-94610737D01*
X178060084Y-94566260D01*
X178060085Y-94566259D01*
X178099549Y-94492426D01*
X178123851Y-94412313D01*
X178130001Y-94349873D01*
X178130001Y-94349867D01*
X178132056Y-94329000D01*
X178130001Y-94308133D01*
X178130001Y-93627136D01*
X178176737Y-93697082D01*
X178336918Y-93857263D01*
X178525271Y-93983116D01*
X178734557Y-94069806D01*
X178956735Y-94114000D01*
X179183265Y-94114000D01*
X179405443Y-94069806D01*
X179614729Y-93983116D01*
X179803082Y-93857263D01*
X179820002Y-93840343D01*
X179820002Y-94152957D01*
X179525172Y-94447788D01*
X179405443Y-94398194D01*
X179183265Y-94354000D01*
X178956735Y-94354000D01*
X178734557Y-94398194D01*
X178525271Y-94484884D01*
X178336918Y-94610737D01*
X178176737Y-94770918D01*
X178050884Y-94959271D01*
X177964194Y-95168557D01*
X177920000Y-95390735D01*
X177920000Y-95617265D01*
X177964194Y-95839443D01*
X178050884Y-96048729D01*
X178176737Y-96237082D01*
X178336918Y-96397263D01*
X178525271Y-96523116D01*
X178734557Y-96609806D01*
X178956735Y-96654000D01*
X179183265Y-96654000D01*
X179405443Y-96609806D01*
X179614729Y-96523116D01*
X179803082Y-96397263D01*
X179963263Y-96237082D01*
X180089116Y-96048729D01*
X180175806Y-95839443D01*
X180220000Y-95617265D01*
X180220000Y-95390735D01*
X180175806Y-95168557D01*
X180126212Y-95048828D01*
X180530763Y-94644278D01*
X180546975Y-94630973D01*
X180563583Y-94610737D01*
X180600084Y-94566260D01*
X180600085Y-94566259D01*
X180639549Y-94492426D01*
X180663851Y-94412313D01*
X180670001Y-94349873D01*
X180670001Y-94349867D01*
X180672056Y-94329000D01*
X180670001Y-94308133D01*
X180670001Y-93627136D01*
X180716737Y-93697082D01*
X180876918Y-93857263D01*
X181065271Y-93983116D01*
X181274557Y-94069806D01*
X181496735Y-94114000D01*
X181723265Y-94114000D01*
X181945443Y-94069806D01*
X182154729Y-93983116D01*
X182343082Y-93857263D01*
X182360002Y-93840343D01*
X182360002Y-94152957D01*
X182065172Y-94447788D01*
X181945443Y-94398194D01*
X181723265Y-94354000D01*
X181496735Y-94354000D01*
X181274557Y-94398194D01*
X181065271Y-94484884D01*
X180876918Y-94610737D01*
X180716737Y-94770918D01*
X180590884Y-94959271D01*
X180504194Y-95168557D01*
X180460000Y-95390735D01*
X180460000Y-95617265D01*
X180504194Y-95839443D01*
X180590884Y-96048729D01*
X180716737Y-96237082D01*
X180876918Y-96397263D01*
X181065271Y-96523116D01*
X181274557Y-96609806D01*
X181496735Y-96654000D01*
X181723265Y-96654000D01*
X181945443Y-96609806D01*
X182154729Y-96523116D01*
X182343082Y-96397263D01*
X182503263Y-96237082D01*
X182629116Y-96048729D01*
X182715806Y-95839443D01*
X182760000Y-95617265D01*
X182760000Y-95390735D01*
X182715806Y-95168557D01*
X182666212Y-95048828D01*
X183070763Y-94644278D01*
X183086975Y-94630973D01*
X183103583Y-94610737D01*
X183140084Y-94566260D01*
X183140085Y-94566259D01*
X183179549Y-94492426D01*
X183203851Y-94412313D01*
X183210001Y-94349873D01*
X183210001Y-94349867D01*
X183212056Y-94329000D01*
X183210001Y-94308133D01*
X183210001Y-93627136D01*
X183256737Y-93697082D01*
X183416918Y-93857263D01*
X183605271Y-93983116D01*
X183814557Y-94069806D01*
X184036735Y-94114000D01*
X184263265Y-94114000D01*
X184485443Y-94069806D01*
X184694729Y-93983116D01*
X184883082Y-93857263D01*
X184900002Y-93840343D01*
X184900002Y-94152957D01*
X184605172Y-94447788D01*
X184485443Y-94398194D01*
X184263265Y-94354000D01*
X184036735Y-94354000D01*
X183814557Y-94398194D01*
X183605271Y-94484884D01*
X183416918Y-94610737D01*
X183256737Y-94770918D01*
X183130884Y-94959271D01*
X183044194Y-95168557D01*
X183000000Y-95390735D01*
X183000000Y-95617265D01*
X183044194Y-95839443D01*
X183130884Y-96048729D01*
X183256737Y-96237082D01*
X183416918Y-96397263D01*
X183605271Y-96523116D01*
X183814557Y-96609806D01*
X184036735Y-96654000D01*
X184263265Y-96654000D01*
X184485443Y-96609806D01*
X184694729Y-96523116D01*
X184883082Y-96397263D01*
X185043263Y-96237082D01*
X185169116Y-96048729D01*
X185255806Y-95839443D01*
X185300000Y-95617265D01*
X185300000Y-95390735D01*
X185255806Y-95168557D01*
X185206212Y-95048828D01*
X185610763Y-94644278D01*
X185626975Y-94630973D01*
X185643583Y-94610737D01*
X185680084Y-94566260D01*
X185680085Y-94566259D01*
X185719549Y-94492426D01*
X185743851Y-94412313D01*
X185750001Y-94349873D01*
X185750001Y-94349867D01*
X185752056Y-94329000D01*
X185750001Y-94308133D01*
X185750001Y-93627136D01*
X185796737Y-93697082D01*
X185956918Y-93857263D01*
X186145271Y-93983116D01*
X186354557Y-94069806D01*
X186576735Y-94114000D01*
X186803265Y-94114000D01*
X187025443Y-94069806D01*
X187234729Y-93983116D01*
X187423082Y-93857263D01*
X187440002Y-93840343D01*
X187440002Y-94152957D01*
X187145172Y-94447788D01*
X187025443Y-94398194D01*
X186803265Y-94354000D01*
X186576735Y-94354000D01*
X186354557Y-94398194D01*
X186145271Y-94484884D01*
X185956918Y-94610737D01*
X185796737Y-94770918D01*
X185670884Y-94959271D01*
X185584194Y-95168557D01*
X185540000Y-95390735D01*
X185540000Y-95617265D01*
X185584194Y-95839443D01*
X185670884Y-96048729D01*
X185796737Y-96237082D01*
X185956918Y-96397263D01*
X186145271Y-96523116D01*
X186354557Y-96609806D01*
X186576735Y-96654000D01*
X186803265Y-96654000D01*
X187025443Y-96609806D01*
X187234729Y-96523116D01*
X187423082Y-96397263D01*
X187583263Y-96237082D01*
X187709116Y-96048729D01*
X187795806Y-95839443D01*
X187840000Y-95617265D01*
X187840000Y-95390735D01*
X187795806Y-95168557D01*
X187746212Y-95048828D01*
X188078549Y-94716492D01*
X188078549Y-96354000D01*
X188084341Y-96412810D01*
X188101496Y-96469360D01*
X188129353Y-96521477D01*
X188166842Y-96567158D01*
X188212523Y-96604647D01*
X188264640Y-96632504D01*
X188321190Y-96649659D01*
X188380000Y-96655451D01*
X190080000Y-96655451D01*
X190138810Y-96649659D01*
X190195360Y-96632504D01*
X190247477Y-96604647D01*
X190293158Y-96567158D01*
X190330647Y-96521477D01*
X190358504Y-96469360D01*
X190375659Y-96412810D01*
X190381451Y-96354000D01*
X190381451Y-94654000D01*
X190375659Y-94595190D01*
X190358504Y-94538640D01*
X190330647Y-94486523D01*
X190293158Y-94440842D01*
X190247477Y-94403353D01*
X190195360Y-94375496D01*
X190138810Y-94358341D01*
X190080000Y-94352549D01*
X188380000Y-94352549D01*
X188321190Y-94358341D01*
X188288181Y-94368355D01*
X188290001Y-94349873D01*
X188290001Y-94349867D01*
X188292056Y-94329000D01*
X188290001Y-94308133D01*
X188290001Y-93627136D01*
X188336737Y-93697082D01*
X188496918Y-93857263D01*
X188685271Y-93983116D01*
X188894557Y-94069806D01*
X189116735Y-94114000D01*
X189343265Y-94114000D01*
X189565443Y-94069806D01*
X189774729Y-93983116D01*
X189963082Y-93857263D01*
X190123263Y-93697082D01*
X190249116Y-93508729D01*
X190335806Y-93299443D01*
X190380000Y-93077265D01*
X190380000Y-92850735D01*
X190335806Y-92628557D01*
X190249116Y-92419271D01*
X190123263Y-92230918D01*
X189963082Y-92070737D01*
X189774729Y-91944884D01*
X189565443Y-91858194D01*
X189343265Y-91814000D01*
X189116735Y-91814000D01*
X188894557Y-91858194D01*
X188685271Y-91944884D01*
X188496918Y-92070737D01*
X188336737Y-92230918D01*
X188290001Y-92300864D01*
X188290001Y-91134449D01*
X189704771Y-89719680D01*
X189720983Y-89706375D01*
X189774093Y-89641661D01*
X189813557Y-89567828D01*
X189837859Y-89487715D01*
X189844009Y-89425275D01*
X189844009Y-89425269D01*
X189846064Y-89404402D01*
X189844009Y-89383535D01*
X189844009Y-81449451D01*
X190058000Y-81449451D01*
X190116810Y-81443659D01*
X190173360Y-81426504D01*
X190225477Y-81398647D01*
X190271158Y-81361158D01*
X190308647Y-81315477D01*
X190336504Y-81263360D01*
X190353659Y-81206810D01*
X190359451Y-81148000D01*
X190359451Y-80561807D01*
X194149244Y-80561807D01*
X194149244Y-80938193D01*
X194222674Y-81307347D01*
X194366710Y-81655082D01*
X194575819Y-81968035D01*
X194841964Y-82234180D01*
X195154917Y-82443289D01*
X195502652Y-82587325D01*
X195871806Y-82660755D01*
X196248192Y-82660755D01*
X196617346Y-82587325D01*
X196965081Y-82443289D01*
X197278034Y-82234180D01*
X197544179Y-81968035D01*
X197753288Y-81655082D01*
X197897324Y-81307347D01*
X197970754Y-80938193D01*
X197970754Y-80561807D01*
X197897324Y-80192653D01*
X197753288Y-79844918D01*
X197544179Y-79531965D01*
X197278034Y-79265820D01*
X196965081Y-79056711D01*
X196617346Y-78912675D01*
X196248192Y-78839245D01*
X195871806Y-78839245D01*
X195502652Y-78912675D01*
X195154917Y-79056711D01*
X194841964Y-79265820D01*
X194575819Y-79531965D01*
X194366710Y-79844918D01*
X194222674Y-80192653D01*
X194149244Y-80561807D01*
X190359451Y-80561807D01*
X190359451Y-80048000D01*
X190353659Y-79989190D01*
X190336504Y-79932640D01*
X190333000Y-79926084D01*
X190333000Y-79818866D01*
X190335055Y-79797999D01*
X190333000Y-79777132D01*
X190333000Y-79777126D01*
X190326850Y-79714686D01*
X190302548Y-79634573D01*
X190263084Y-79560740D01*
X190209974Y-79496026D01*
X190193762Y-79482721D01*
X188086283Y-77375243D01*
X188072974Y-77359026D01*
X188008260Y-77305916D01*
X187934427Y-77266452D01*
X187854314Y-77242150D01*
X187791874Y-77236000D01*
X187791867Y-77236000D01*
X187771000Y-77233945D01*
X187750133Y-77236000D01*
X184192041Y-77236000D01*
X183298000Y-76341960D01*
X183298000Y-71204867D01*
X183300055Y-71184000D01*
X183298000Y-71163133D01*
X183298000Y-71163126D01*
X183291850Y-71100686D01*
X183291850Y-71100685D01*
X183267548Y-71020572D01*
X183253801Y-70994855D01*
X183228084Y-70946740D01*
X183174974Y-70882026D01*
X183158763Y-70868722D01*
X181681848Y-69391807D01*
X194149244Y-69391807D01*
X194149244Y-69768193D01*
X194222674Y-70137347D01*
X194366710Y-70485082D01*
X194575819Y-70798035D01*
X194841964Y-71064180D01*
X195154917Y-71273289D01*
X195502652Y-71417325D01*
X195871806Y-71490755D01*
X196248192Y-71490755D01*
X196617346Y-71417325D01*
X196965081Y-71273289D01*
X197278034Y-71064180D01*
X197544179Y-70798035D01*
X197753288Y-70485082D01*
X197897324Y-70137347D01*
X197970754Y-69768193D01*
X197970754Y-69391807D01*
X197897324Y-69022653D01*
X197753288Y-68674918D01*
X197544179Y-68361965D01*
X197278034Y-68095820D01*
X196965081Y-67886711D01*
X196617346Y-67742675D01*
X196248192Y-67669245D01*
X195871806Y-67669245D01*
X195502652Y-67742675D01*
X195154917Y-67886711D01*
X194841964Y-68095820D01*
X194575819Y-68361965D01*
X194366710Y-68674918D01*
X194222674Y-69022653D01*
X194149244Y-69391807D01*
X181681848Y-69391807D01*
X180267283Y-67977243D01*
X180253974Y-67961026D01*
X180189260Y-67907916D01*
X180115427Y-67868452D01*
X180035314Y-67844150D01*
X179972874Y-67838000D01*
X179972867Y-67838000D01*
X179952000Y-67835945D01*
X179931133Y-67838000D01*
X178448874Y-67838000D01*
X178428000Y-67835944D01*
X178407126Y-67838000D01*
X155222366Y-67838000D01*
X155201499Y-67835945D01*
X155180632Y-67838000D01*
X155180626Y-67838000D01*
X155126598Y-67843321D01*
X155118185Y-67844150D01*
X155100625Y-67849477D01*
X155038073Y-67868452D01*
X154964240Y-67907916D01*
X154964238Y-67907917D01*
X154964239Y-67907917D01*
X154918893Y-67945132D01*
X154899526Y-67961026D01*
X154886221Y-67977238D01*
X154455267Y-68408192D01*
X154372828Y-68383184D01*
X154275000Y-68373549D01*
X153875000Y-68373549D01*
X153777172Y-68383184D01*
X153683103Y-68411720D01*
X153596409Y-68458059D01*
X153520421Y-68520421D01*
X153458059Y-68596409D01*
X153411720Y-68683103D01*
X153383184Y-68777172D01*
X153373549Y-68875000D01*
X153373549Y-69425000D01*
X153374929Y-69439011D01*
X153128950Y-69684990D01*
X153051883Y-69684990D01*
X153088280Y-69616897D01*
X153116816Y-69522828D01*
X153126451Y-69425000D01*
X153126451Y-68875000D01*
X153116816Y-68777172D01*
X153088280Y-68683103D01*
X153041941Y-68596409D01*
X152979579Y-68520421D01*
X152903591Y-68458059D01*
X152816897Y-68411720D01*
X152722828Y-68383184D01*
X152625000Y-68373549D01*
X152225000Y-68373549D01*
X152127172Y-68383184D01*
X152033103Y-68411720D01*
X151946409Y-68458059D01*
X151870421Y-68520421D01*
X151808059Y-68596409D01*
X151761720Y-68683103D01*
X151733184Y-68777172D01*
X151723549Y-68875000D01*
X151723549Y-68961000D01*
X148348464Y-68961000D01*
X148327590Y-68958944D01*
X148306716Y-68961000D01*
X148244276Y-68967150D01*
X148164163Y-68991452D01*
X148090330Y-69030916D01*
X148025616Y-69084026D01*
X148012306Y-69100244D01*
X140506239Y-76606311D01*
X140490027Y-76619616D01*
X140476722Y-76635828D01*
X140476720Y-76635830D01*
X140464454Y-76650777D01*
X140436917Y-76684330D01*
X140435417Y-76687137D01*
X140397453Y-76758163D01*
X140373150Y-76838276D01*
X140364945Y-76921590D01*
X140367001Y-76942467D01*
X140367000Y-79926084D01*
X140363496Y-79932640D01*
X140346341Y-79989190D01*
X140340549Y-80048000D01*
X140243451Y-80048000D01*
X140237659Y-79989190D01*
X140220504Y-79932640D01*
X140192647Y-79880523D01*
X140155158Y-79834842D01*
X140109477Y-79797353D01*
X140057360Y-79769496D01*
X140000810Y-79752341D01*
X139942000Y-79746549D01*
X139642000Y-79746549D01*
X139583190Y-79752341D01*
X139526640Y-79769496D01*
X139474523Y-79797353D01*
X139428842Y-79834842D01*
X139391353Y-79880523D01*
X139363496Y-79932640D01*
X139346341Y-79989190D01*
X139340549Y-80048000D01*
X135837409Y-80048000D01*
X135753290Y-79844918D01*
X135544181Y-79531965D01*
X135278036Y-79265820D01*
X134965083Y-79056711D01*
X134617348Y-78912675D01*
X134248194Y-78839245D01*
X133871808Y-78839245D01*
X133502654Y-78912675D01*
X133154919Y-79056711D01*
X132841966Y-79265820D01*
X132575821Y-79531965D01*
X132366712Y-79844918D01*
X132222676Y-80192653D01*
X132149246Y-80561807D01*
X131488644Y-80561807D01*
X131460000Y-80289288D01*
X131460000Y-70039565D01*
X131511399Y-69515364D01*
X131548702Y-69391807D01*
X132149246Y-69391807D01*
X132149246Y-69768193D01*
X132222676Y-70137347D01*
X132366712Y-70485082D01*
X132575821Y-70798035D01*
X132841966Y-71064180D01*
X133154919Y-71273289D01*
X133502654Y-71417325D01*
X133871808Y-71490755D01*
X134248194Y-71490755D01*
X134617348Y-71417325D01*
X134965083Y-71273289D01*
X135278036Y-71064180D01*
X135544181Y-70798035D01*
X135753290Y-70485082D01*
X135897326Y-70137347D01*
X135970756Y-69768193D01*
X135970756Y-69391807D01*
X135897326Y-69022653D01*
X135753290Y-68674918D01*
X135544181Y-68361965D01*
X135278036Y-68095820D01*
X134965083Y-67886711D01*
X134617348Y-67742675D01*
X134248194Y-67669245D01*
X133871808Y-67669245D01*
X133502654Y-67742675D01*
X133154919Y-67886711D01*
X132841966Y-68095820D01*
X132575821Y-68361965D01*
X132366712Y-68674918D01*
X132222676Y-69022653D01*
X132149246Y-69391807D01*
X131548702Y-69391807D01*
X131657954Y-69029949D01*
X131896000Y-68582247D01*
X132216479Y-68189302D01*
X132607171Y-67866093D01*
X133053205Y-67624924D01*
X133537583Y-67474983D01*
X134060713Y-67420000D01*
X136079648Y-67420000D01*
X136080339Y-67419932D01*
X136082339Y-67419925D01*
X136099725Y-67418159D01*
X136117198Y-67418281D01*
X136122756Y-67417736D01*
X136705046Y-67356535D01*
X136740535Y-67349250D01*
X136776171Y-67342452D01*
X136781518Y-67340837D01*
X137340830Y-67167701D01*
X137374243Y-67153655D01*
X137407865Y-67140071D01*
X137412797Y-67137449D01*
X137927829Y-66858972D01*
X137957885Y-66838699D01*
X137988220Y-66818848D01*
X137992546Y-66815320D01*
X137992549Y-66815318D01*
X137992554Y-66815313D01*
X138443683Y-66442108D01*
X138469231Y-66416382D01*
X138495131Y-66391018D01*
X138498691Y-66386715D01*
X138868742Y-65932987D01*
X138888789Y-65902813D01*
X138909287Y-65872877D01*
X138911943Y-65867964D01*
X139186817Y-65351000D01*
X139200624Y-65317502D01*
X139214914Y-65284160D01*
X139216566Y-65278825D01*
X139385793Y-64718317D01*
X139392837Y-64682739D01*
X139400372Y-64647292D01*
X139400956Y-64641737D01*
X139458091Y-64059035D01*
X139458091Y-64059031D01*
X139460000Y-64039648D01*
X139460000Y-57039565D01*
X139511399Y-56515364D01*
X139657954Y-56029949D01*
X139896000Y-55582247D01*
X140216479Y-55189302D01*
X140607171Y-54866093D01*
X141053205Y-54624924D01*
X141537583Y-54474983D01*
X142060713Y-54420000D01*
X149040426Y-54420000D01*
X149564636Y-54471400D01*
G37*
%TD.AperFunction*%
D21*
X189255732Y-79746772D02*
X189199190Y-79752341D01*
X189158000Y-79764836D01*
X189116810Y-79752341D01*
X189058000Y-79746549D01*
X188758000Y-79746549D01*
X188699190Y-79752341D01*
X188658000Y-79764836D01*
X188616810Y-79752341D01*
X188558000Y-79746549D01*
X188258000Y-79746549D01*
X188199190Y-79752341D01*
X188158000Y-79764836D01*
X188116810Y-79752341D01*
X188058000Y-79746549D01*
X187758000Y-79746549D01*
X187699190Y-79752341D01*
X187658000Y-79764836D01*
X187616810Y-79752341D01*
X187558000Y-79746549D01*
X187258000Y-79746549D01*
X187199190Y-79752341D01*
X187158000Y-79764836D01*
X187116810Y-79752341D01*
X187058000Y-79746549D01*
X186758000Y-79746549D01*
X186699190Y-79752341D01*
X186658000Y-79764836D01*
X186616810Y-79752341D01*
X186558000Y-79746549D01*
X186258000Y-79746549D01*
X186199190Y-79752341D01*
X186142640Y-79769496D01*
X186090523Y-79797353D01*
X186044842Y-79834842D01*
X186007353Y-79880523D01*
X185979496Y-79932640D01*
X185962341Y-79989190D01*
X185956549Y-80048000D01*
X185956549Y-81148000D01*
X185962341Y-81206810D01*
X185979496Y-81263360D01*
X185983000Y-81269916D01*
X185983001Y-86522958D01*
X185830150Y-86675809D01*
X185833000Y-86646874D01*
X185833000Y-86646873D01*
X185835056Y-86626000D01*
X185833000Y-86605126D01*
X185833000Y-81269916D01*
X185836504Y-81263360D01*
X185853659Y-81206810D01*
X185859451Y-81148000D01*
X185859451Y-80048000D01*
X185853659Y-79989190D01*
X185836504Y-79932640D01*
X185808647Y-79880523D01*
X185771158Y-79834842D01*
X185725477Y-79797353D01*
X185673360Y-79769496D01*
X185616810Y-79752341D01*
X185558000Y-79746549D01*
X185535278Y-79746549D01*
X185578099Y-79643168D01*
X185605000Y-79507930D01*
X185605000Y-79370042D01*
X185578099Y-79234804D01*
X185525332Y-79107412D01*
X185448726Y-78992762D01*
X185351224Y-78895260D01*
X185236574Y-78818654D01*
X185109182Y-78765887D01*
X184973944Y-78738986D01*
X184836056Y-78738986D01*
X184700818Y-78765887D01*
X184573426Y-78818654D01*
X184458776Y-78895260D01*
X184407266Y-78946770D01*
X184407266Y-78086000D01*
X187594960Y-78086000D01*
X189255732Y-79746772D01*
%TA.AperFunction,Conductor*%
D22*
G36*
X189255732Y-79746772D02*
G01*
X189199190Y-79752341D01*
X189158000Y-79764836D01*
X189116810Y-79752341D01*
X189058000Y-79746549D01*
X188758000Y-79746549D01*
X188699190Y-79752341D01*
X188658000Y-79764836D01*
X188616810Y-79752341D01*
X188558000Y-79746549D01*
X188258000Y-79746549D01*
X188199190Y-79752341D01*
X188158000Y-79764836D01*
X188116810Y-79752341D01*
X188058000Y-79746549D01*
X187758000Y-79746549D01*
X187699190Y-79752341D01*
X187658000Y-79764836D01*
X187616810Y-79752341D01*
X187558000Y-79746549D01*
X187258000Y-79746549D01*
X187199190Y-79752341D01*
X187158000Y-79764836D01*
X187116810Y-79752341D01*
X187058000Y-79746549D01*
X186758000Y-79746549D01*
X186699190Y-79752341D01*
X186658000Y-79764836D01*
X186616810Y-79752341D01*
X186558000Y-79746549D01*
X186258000Y-79746549D01*
X186199190Y-79752341D01*
X186142640Y-79769496D01*
X186090523Y-79797353D01*
X186044842Y-79834842D01*
X186007353Y-79880523D01*
X185979496Y-79932640D01*
X185962341Y-79989190D01*
X185956549Y-80048000D01*
X185956549Y-81148000D01*
X185962341Y-81206810D01*
X185979496Y-81263360D01*
X185983000Y-81269916D01*
X185983001Y-86522958D01*
X185830150Y-86675809D01*
X185833000Y-86646874D01*
X185833000Y-86646873D01*
X185835056Y-86626000D01*
X185833000Y-86605126D01*
X185833000Y-81269916D01*
X185836504Y-81263360D01*
X185853659Y-81206810D01*
X185859451Y-81148000D01*
X185859451Y-80048000D01*
X185853659Y-79989190D01*
X185836504Y-79932640D01*
X185808647Y-79880523D01*
X185771158Y-79834842D01*
X185725477Y-79797353D01*
X185673360Y-79769496D01*
X185616810Y-79752341D01*
X185558000Y-79746549D01*
X185535278Y-79746549D01*
X185578099Y-79643168D01*
X185605000Y-79507930D01*
X185605000Y-79370042D01*
X185578099Y-79234804D01*
X185525332Y-79107412D01*
X185448726Y-78992762D01*
X185351224Y-78895260D01*
X185236574Y-78818654D01*
X185109182Y-78765887D01*
X184973944Y-78738986D01*
X184836056Y-78738986D01*
X184700818Y-78765887D01*
X184573426Y-78818654D01*
X184458776Y-78895260D01*
X184407266Y-78946770D01*
X184407266Y-78086000D01*
X187594960Y-78086000D01*
X189255732Y-79746772D01*
G37*
%TD.AperFunction*%
D21*
X150367000Y-79746549D02*
X150142000Y-79746549D01*
X150083190Y-79752341D01*
X150042000Y-79764836D01*
X150000810Y-79752341D01*
X149942000Y-79746549D01*
X149642000Y-79746549D01*
X149583190Y-79752341D01*
X149542000Y-79764836D01*
X149500810Y-79752341D01*
X149442000Y-79746549D01*
X149142000Y-79746549D01*
X149083190Y-79752341D01*
X149042000Y-79764836D01*
X149000810Y-79752341D01*
X148942000Y-79746549D01*
X148642000Y-79746549D01*
X148583190Y-79752341D01*
X148542000Y-79764836D01*
X148500810Y-79752341D01*
X148442000Y-79746549D01*
X148142000Y-79746549D01*
X148083190Y-79752341D01*
X148042000Y-79764836D01*
X148000810Y-79752341D01*
X147942000Y-79746549D01*
X147642000Y-79746549D01*
X147583190Y-79752341D01*
X147542000Y-79764836D01*
X147500810Y-79752341D01*
X147442000Y-79746549D01*
X147142000Y-79746549D01*
X147083190Y-79752341D01*
X147026640Y-79769496D01*
X146974523Y-79797353D01*
X146928842Y-79834842D01*
X146891353Y-79880523D01*
X146863496Y-79932640D01*
X146846341Y-79989190D01*
X146840549Y-80048000D01*
X146840549Y-81148000D01*
X146846341Y-81206810D01*
X146863496Y-81263360D01*
X146867000Y-81269916D01*
X146867001Y-82826123D01*
X146866029Y-82835989D01*
X146733020Y-82702980D01*
X146733020Y-81222102D01*
X146737659Y-81206810D01*
X146743451Y-81148000D01*
X146743451Y-80048000D01*
X146737659Y-79989190D01*
X146720504Y-79932640D01*
X146692647Y-79880523D01*
X146655158Y-79834842D01*
X146609477Y-79797353D01*
X146557360Y-79769496D01*
X146500810Y-79752341D01*
X146442000Y-79746549D01*
X146217000Y-79746549D01*
X146217000Y-79681353D01*
X146708702Y-79189652D01*
X146739776Y-79220726D01*
X146854426Y-79297332D01*
X146981818Y-79350099D01*
X147117056Y-79377000D01*
X147254944Y-79377000D01*
X147390182Y-79350099D01*
X147517574Y-79297332D01*
X147632224Y-79220726D01*
X147729726Y-79123224D01*
X147806332Y-79008574D01*
X147859099Y-78881182D01*
X147886000Y-78745944D01*
X147886000Y-78608056D01*
X147859099Y-78472818D01*
X147806332Y-78345426D01*
X147729726Y-78230776D01*
X147632224Y-78133274D01*
X147517574Y-78056668D01*
X147390182Y-78003901D01*
X147254944Y-77977000D01*
X147160039Y-77977000D01*
X149062039Y-76075000D01*
X150367001Y-76075000D01*
X150367000Y-79746549D01*
%TA.AperFunction,Conductor*%
D22*
G36*
X150367000Y-79746549D02*
G01*
X150142000Y-79746549D01*
X150083190Y-79752341D01*
X150042000Y-79764836D01*
X150000810Y-79752341D01*
X149942000Y-79746549D01*
X149642000Y-79746549D01*
X149583190Y-79752341D01*
X149542000Y-79764836D01*
X149500810Y-79752341D01*
X149442000Y-79746549D01*
X149142000Y-79746549D01*
X149083190Y-79752341D01*
X149042000Y-79764836D01*
X149000810Y-79752341D01*
X148942000Y-79746549D01*
X148642000Y-79746549D01*
X148583190Y-79752341D01*
X148542000Y-79764836D01*
X148500810Y-79752341D01*
X148442000Y-79746549D01*
X148142000Y-79746549D01*
X148083190Y-79752341D01*
X148042000Y-79764836D01*
X148000810Y-79752341D01*
X147942000Y-79746549D01*
X147642000Y-79746549D01*
X147583190Y-79752341D01*
X147542000Y-79764836D01*
X147500810Y-79752341D01*
X147442000Y-79746549D01*
X147142000Y-79746549D01*
X147083190Y-79752341D01*
X147026640Y-79769496D01*
X146974523Y-79797353D01*
X146928842Y-79834842D01*
X146891353Y-79880523D01*
X146863496Y-79932640D01*
X146846341Y-79989190D01*
X146840549Y-80048000D01*
X146840549Y-81148000D01*
X146846341Y-81206810D01*
X146863496Y-81263360D01*
X146867000Y-81269916D01*
X146867001Y-82826123D01*
X146866029Y-82835989D01*
X146733020Y-82702980D01*
X146733020Y-81222102D01*
X146737659Y-81206810D01*
X146743451Y-81148000D01*
X146743451Y-80048000D01*
X146737659Y-79989190D01*
X146720504Y-79932640D01*
X146692647Y-79880523D01*
X146655158Y-79834842D01*
X146609477Y-79797353D01*
X146557360Y-79769496D01*
X146500810Y-79752341D01*
X146442000Y-79746549D01*
X146217000Y-79746549D01*
X146217000Y-79681353D01*
X146708702Y-79189652D01*
X146739776Y-79220726D01*
X146854426Y-79297332D01*
X146981818Y-79350099D01*
X147117056Y-79377000D01*
X147254944Y-79377000D01*
X147390182Y-79350099D01*
X147517574Y-79297332D01*
X147632224Y-79220726D01*
X147729726Y-79123224D01*
X147806332Y-79008574D01*
X147859099Y-78881182D01*
X147886000Y-78745944D01*
X147886000Y-78608056D01*
X147859099Y-78472818D01*
X147806332Y-78345426D01*
X147729726Y-78230776D01*
X147632224Y-78133274D01*
X147517574Y-78056668D01*
X147390182Y-78003901D01*
X147254944Y-77977000D01*
X147160039Y-77977000D01*
X149062039Y-76075000D01*
X150367001Y-76075000D01*
X150367000Y-79746549D01*
G37*
%TD.AperFunction*%
D21*
X151791720Y-74424897D02*
X151838059Y-74511591D01*
X151900421Y-74587579D01*
X151976409Y-74649941D01*
X152063103Y-74696280D01*
X152157172Y-74724816D01*
X152255000Y-74734451D01*
X152559508Y-74734451D01*
X152068960Y-75225000D01*
X150770867Y-75225000D01*
X150750000Y-75222945D01*
X150729133Y-75225000D01*
X148906864Y-75225000D01*
X148885997Y-75222945D01*
X148865130Y-75225000D01*
X148865124Y-75225000D01*
X148811096Y-75230321D01*
X148802683Y-75231150D01*
X148778381Y-75238522D01*
X148722571Y-75255452D01*
X148648738Y-75294916D01*
X148584024Y-75348026D01*
X148570719Y-75364238D01*
X145000000Y-78934958D01*
X145000000Y-78831056D01*
X144973099Y-78695818D01*
X144920332Y-78568426D01*
X144843726Y-78453776D01*
X144746224Y-78356274D01*
X144631574Y-78279668D01*
X144504182Y-78226901D01*
X144368944Y-78200000D01*
X144231056Y-78200000D01*
X144095818Y-78226901D01*
X143968426Y-78279668D01*
X143853776Y-78356274D01*
X143756274Y-78453776D01*
X143717000Y-78512554D01*
X143717000Y-78484040D01*
X147818041Y-74383000D01*
X151779010Y-74383000D01*
X151791720Y-74424897D01*
%TA.AperFunction,Conductor*%
D22*
G36*
X151791720Y-74424897D02*
G01*
X151838059Y-74511591D01*
X151900421Y-74587579D01*
X151976409Y-74649941D01*
X152063103Y-74696280D01*
X152157172Y-74724816D01*
X152255000Y-74734451D01*
X152559508Y-74734451D01*
X152068960Y-75225000D01*
X150770867Y-75225000D01*
X150750000Y-75222945D01*
X150729133Y-75225000D01*
X148906864Y-75225000D01*
X148885997Y-75222945D01*
X148865130Y-75225000D01*
X148865124Y-75225000D01*
X148811096Y-75230321D01*
X148802683Y-75231150D01*
X148778381Y-75238522D01*
X148722571Y-75255452D01*
X148648738Y-75294916D01*
X148584024Y-75348026D01*
X148570719Y-75364238D01*
X145000000Y-78934958D01*
X145000000Y-78831056D01*
X144973099Y-78695818D01*
X144920332Y-78568426D01*
X144843726Y-78453776D01*
X144746224Y-78356274D01*
X144631574Y-78279668D01*
X144504182Y-78226901D01*
X144368944Y-78200000D01*
X144231056Y-78200000D01*
X144095818Y-78226901D01*
X143968426Y-78279668D01*
X143853776Y-78356274D01*
X143756274Y-78453776D01*
X143717000Y-78512554D01*
X143717000Y-78484040D01*
X147818041Y-74383000D01*
X151779010Y-74383000D01*
X151791720Y-74424897D01*
G37*
%TD.AperFunction*%
%TD*%
M02*
