%TF.GenerationSoftware,KiCad,Pcbnew,5.1.9-73d0e3b20d~88~ubuntu18.04.1*%
%TF.CreationDate,2020-12-28T15:28:51+08:00*%
%TF.ProjectId,DoubleCam,446f7562-6c65-4436-916d-2e6b69636164,rev?*%
%TF.SameCoordinates,Original*%
%TF.FileFunction,Soldermask,Top*%
%TF.FilePolarity,Negative*%
%FSLAX46Y46*%
G04 Gerber Fmt 4.6, Leading zero omitted, Abs format (unit mm)*
G04 Created by KiCad (PCBNEW 5.1.9-73d0e3b20d~88~ubuntu18.04.1) date 2020-12-28 15:28:51*
%MOMM*%
%LPD*%
G01*
G04 APERTURE LIST*
%ADD10C,0.100000*%
%ADD11R,0.900000X1.300000*%
%ADD12O,1.700000X1.700000*%
%ADD13R,1.700000X1.700000*%
%ADD14R,1.400000X1.200000*%
%ADD15R,2.300000X3.100000*%
%ADD16R,0.300000X1.100000*%
G04 APERTURE END LIST*
D10*
%TO.C,U1*%
G36*
X158346500Y-73900000D02*
G01*
X158346500Y-77025000D01*
X157930000Y-77025000D01*
X157930000Y-78500000D01*
X157030000Y-78500000D01*
X157030000Y-77025000D01*
X156613500Y-77025000D01*
X156613500Y-73900000D01*
X158346500Y-73900000D01*
G37*
D11*
X158980000Y-77850000D03*
X155980000Y-77850000D03*
%TD*%
%TO.C,U2*%
X171220000Y-77850000D03*
X174220000Y-77850000D03*
D10*
G36*
X173586500Y-73900000D02*
G01*
X173586500Y-77025000D01*
X173170000Y-77025000D01*
X173170000Y-78500000D01*
X172270000Y-78500000D01*
X172270000Y-77025000D01*
X171853500Y-77025000D01*
X171853500Y-73900000D01*
X173586500Y-73900000D01*
G37*
%TD*%
D12*
%TO.C,J3*%
X140970000Y-92964000D03*
X140970000Y-95504000D03*
X143510000Y-92964000D03*
X143510000Y-95504000D03*
X146050000Y-92964000D03*
X146050000Y-95504000D03*
X148590000Y-92964000D03*
X148590000Y-95504000D03*
X151130000Y-92964000D03*
X151130000Y-95504000D03*
X153670000Y-92964000D03*
X153670000Y-95504000D03*
X156210000Y-92964000D03*
X156210000Y-95504000D03*
X158750000Y-92964000D03*
X158750000Y-95504000D03*
X161290000Y-92964000D03*
X161290000Y-95504000D03*
X163830000Y-92964000D03*
X163830000Y-95504000D03*
X166370000Y-92964000D03*
X166370000Y-95504000D03*
X168910000Y-92964000D03*
X168910000Y-95504000D03*
X171450000Y-92964000D03*
X171450000Y-95504000D03*
X173990000Y-92964000D03*
X173990000Y-95504000D03*
X176530000Y-92964000D03*
X176530000Y-95504000D03*
X179070000Y-92964000D03*
X179070000Y-95504000D03*
X181610000Y-92964000D03*
X181610000Y-95504000D03*
X184150000Y-92964000D03*
X184150000Y-95504000D03*
X186690000Y-92964000D03*
X186690000Y-95504000D03*
X189230000Y-92964000D03*
D13*
X189230000Y-95504000D03*
%TD*%
%TO.C,C4*%
G36*
G01*
X171595000Y-79440000D02*
X171595000Y-79940000D01*
G75*
G02*
X171370000Y-80165000I-225000J0D01*
G01*
X170920000Y-80165000D01*
G75*
G02*
X170695000Y-79940000I0J225000D01*
G01*
X170695000Y-79440000D01*
G75*
G02*
X170920000Y-79215000I225000J0D01*
G01*
X171370000Y-79215000D01*
G75*
G02*
X171595000Y-79440000I0J-225000D01*
G01*
G37*
G36*
G01*
X173145000Y-79440000D02*
X173145000Y-79940000D01*
G75*
G02*
X172920000Y-80165000I-225000J0D01*
G01*
X172470000Y-80165000D01*
G75*
G02*
X172245000Y-79940000I0J225000D01*
G01*
X172245000Y-79440000D01*
G75*
G02*
X172470000Y-79215000I225000J0D01*
G01*
X172920000Y-79215000D01*
G75*
G02*
X173145000Y-79440000I0J-225000D01*
G01*
G37*
%TD*%
%TO.C,C3*%
G36*
G01*
X171595000Y-80964000D02*
X171595000Y-81464000D01*
G75*
G02*
X171370000Y-81689000I-225000J0D01*
G01*
X170920000Y-81689000D01*
G75*
G02*
X170695000Y-81464000I0J225000D01*
G01*
X170695000Y-80964000D01*
G75*
G02*
X170920000Y-80739000I225000J0D01*
G01*
X171370000Y-80739000D01*
G75*
G02*
X171595000Y-80964000I0J-225000D01*
G01*
G37*
G36*
G01*
X173145000Y-80964000D02*
X173145000Y-81464000D01*
G75*
G02*
X172920000Y-81689000I-225000J0D01*
G01*
X172470000Y-81689000D01*
G75*
G02*
X172245000Y-81464000I0J225000D01*
G01*
X172245000Y-80964000D01*
G75*
G02*
X172470000Y-80739000I225000J0D01*
G01*
X172920000Y-80739000D01*
G75*
G02*
X173145000Y-80964000I0J-225000D01*
G01*
G37*
%TD*%
%TO.C,C2*%
G36*
G01*
X156455000Y-79440000D02*
X156455000Y-79940000D01*
G75*
G02*
X156230000Y-80165000I-225000J0D01*
G01*
X155780000Y-80165000D01*
G75*
G02*
X155555000Y-79940000I0J225000D01*
G01*
X155555000Y-79440000D01*
G75*
G02*
X155780000Y-79215000I225000J0D01*
G01*
X156230000Y-79215000D01*
G75*
G02*
X156455000Y-79440000I0J-225000D01*
G01*
G37*
G36*
G01*
X158005000Y-79440000D02*
X158005000Y-79940000D01*
G75*
G02*
X157780000Y-80165000I-225000J0D01*
G01*
X157330000Y-80165000D01*
G75*
G02*
X157105000Y-79940000I0J225000D01*
G01*
X157105000Y-79440000D01*
G75*
G02*
X157330000Y-79215000I225000J0D01*
G01*
X157780000Y-79215000D01*
G75*
G02*
X158005000Y-79440000I0J-225000D01*
G01*
G37*
%TD*%
%TO.C,C1*%
G36*
G01*
X156455000Y-80964000D02*
X156455000Y-81464000D01*
G75*
G02*
X156230000Y-81689000I-225000J0D01*
G01*
X155780000Y-81689000D01*
G75*
G02*
X155555000Y-81464000I0J225000D01*
G01*
X155555000Y-80964000D01*
G75*
G02*
X155780000Y-80739000I225000J0D01*
G01*
X156230000Y-80739000D01*
G75*
G02*
X156455000Y-80964000I0J-225000D01*
G01*
G37*
G36*
G01*
X158005000Y-80964000D02*
X158005000Y-81464000D01*
G75*
G02*
X157780000Y-81689000I-225000J0D01*
G01*
X157330000Y-81689000D01*
G75*
G02*
X157105000Y-81464000I0J225000D01*
G01*
X157105000Y-80964000D01*
G75*
G02*
X157330000Y-80739000I225000J0D01*
G01*
X157780000Y-80739000D01*
G75*
G02*
X158005000Y-80964000I0J-225000D01*
G01*
G37*
%TD*%
D14*
%TO.C,X1*%
X166300000Y-77150000D03*
X163900000Y-77150000D03*
X163900000Y-75250000D03*
X166300000Y-75250000D03*
%TD*%
%TO.C,R11*%
G36*
G01*
X164025000Y-79325000D02*
X163475000Y-79325000D01*
G75*
G02*
X163275000Y-79125000I0J200000D01*
G01*
X163275000Y-78725000D01*
G75*
G02*
X163475000Y-78525000I200000J0D01*
G01*
X164025000Y-78525000D01*
G75*
G02*
X164225000Y-78725000I0J-200000D01*
G01*
X164225000Y-79125000D01*
G75*
G02*
X164025000Y-79325000I-200000J0D01*
G01*
G37*
G36*
G01*
X164025000Y-80975000D02*
X163475000Y-80975000D01*
G75*
G02*
X163275000Y-80775000I0J200000D01*
G01*
X163275000Y-80375000D01*
G75*
G02*
X163475000Y-80175000I200000J0D01*
G01*
X164025000Y-80175000D01*
G75*
G02*
X164225000Y-80375000I0J-200000D01*
G01*
X164225000Y-80775000D01*
G75*
G02*
X164025000Y-80975000I-200000J0D01*
G01*
G37*
%TD*%
%TO.C,R10*%
G36*
G01*
X166775000Y-79331000D02*
X166225000Y-79331000D01*
G75*
G02*
X166025000Y-79131000I0J200000D01*
G01*
X166025000Y-78731000D01*
G75*
G02*
X166225000Y-78531000I200000J0D01*
G01*
X166775000Y-78531000D01*
G75*
G02*
X166975000Y-78731000I0J-200000D01*
G01*
X166975000Y-79131000D01*
G75*
G02*
X166775000Y-79331000I-200000J0D01*
G01*
G37*
G36*
G01*
X166775000Y-80981000D02*
X166225000Y-80981000D01*
G75*
G02*
X166025000Y-80781000I0J200000D01*
G01*
X166025000Y-80381000D01*
G75*
G02*
X166225000Y-80181000I200000J0D01*
G01*
X166775000Y-80181000D01*
G75*
G02*
X166975000Y-80381000I0J-200000D01*
G01*
X166975000Y-80781000D01*
G75*
G02*
X166775000Y-80981000I-200000J0D01*
G01*
G37*
%TD*%
%TO.C,R9*%
G36*
G01*
X164825000Y-86531000D02*
X165375000Y-86531000D01*
G75*
G02*
X165575000Y-86731000I0J-200000D01*
G01*
X165575000Y-87131000D01*
G75*
G02*
X165375000Y-87331000I-200000J0D01*
G01*
X164825000Y-87331000D01*
G75*
G02*
X164625000Y-87131000I0J200000D01*
G01*
X164625000Y-86731000D01*
G75*
G02*
X164825000Y-86531000I200000J0D01*
G01*
G37*
G36*
G01*
X164825000Y-84881000D02*
X165375000Y-84881000D01*
G75*
G02*
X165575000Y-85081000I0J-200000D01*
G01*
X165575000Y-85481000D01*
G75*
G02*
X165375000Y-85681000I-200000J0D01*
G01*
X164825000Y-85681000D01*
G75*
G02*
X164625000Y-85481000I0J200000D01*
G01*
X164625000Y-85081000D01*
G75*
G02*
X164825000Y-84881000I200000J0D01*
G01*
G37*
%TD*%
%TO.C,R8*%
G36*
G01*
X153705000Y-74233000D02*
X153705000Y-73683000D01*
G75*
G02*
X153905000Y-73483000I200000J0D01*
G01*
X154305000Y-73483000D01*
G75*
G02*
X154505000Y-73683000I0J-200000D01*
G01*
X154505000Y-74233000D01*
G75*
G02*
X154305000Y-74433000I-200000J0D01*
G01*
X153905000Y-74433000D01*
G75*
G02*
X153705000Y-74233000I0J200000D01*
G01*
G37*
G36*
G01*
X152055000Y-74233000D02*
X152055000Y-73683000D01*
G75*
G02*
X152255000Y-73483000I200000J0D01*
G01*
X152655000Y-73483000D01*
G75*
G02*
X152855000Y-73683000I0J-200000D01*
G01*
X152855000Y-74233000D01*
G75*
G02*
X152655000Y-74433000I-200000J0D01*
G01*
X152255000Y-74433000D01*
G75*
G02*
X152055000Y-74233000I0J200000D01*
G01*
G37*
%TD*%
%TO.C,R7*%
G36*
G01*
X152855000Y-72159000D02*
X152855000Y-72709000D01*
G75*
G02*
X152655000Y-72909000I-200000J0D01*
G01*
X152255000Y-72909000D01*
G75*
G02*
X152055000Y-72709000I0J200000D01*
G01*
X152055000Y-72159000D01*
G75*
G02*
X152255000Y-71959000I200000J0D01*
G01*
X152655000Y-71959000D01*
G75*
G02*
X152855000Y-72159000I0J-200000D01*
G01*
G37*
G36*
G01*
X154505000Y-72159000D02*
X154505000Y-72709000D01*
G75*
G02*
X154305000Y-72909000I-200000J0D01*
G01*
X153905000Y-72909000D01*
G75*
G02*
X153705000Y-72709000I0J200000D01*
G01*
X153705000Y-72159000D01*
G75*
G02*
X153905000Y-71959000I200000J0D01*
G01*
X154305000Y-71959000D01*
G75*
G02*
X154505000Y-72159000I0J-200000D01*
G01*
G37*
%TD*%
%TO.C,R6*%
G36*
G01*
X152855000Y-70635000D02*
X152855000Y-71185000D01*
G75*
G02*
X152655000Y-71385000I-200000J0D01*
G01*
X152255000Y-71385000D01*
G75*
G02*
X152055000Y-71185000I0J200000D01*
G01*
X152055000Y-70635000D01*
G75*
G02*
X152255000Y-70435000I200000J0D01*
G01*
X152655000Y-70435000D01*
G75*
G02*
X152855000Y-70635000I0J-200000D01*
G01*
G37*
G36*
G01*
X154505000Y-70635000D02*
X154505000Y-71185000D01*
G75*
G02*
X154305000Y-71385000I-200000J0D01*
G01*
X153905000Y-71385000D01*
G75*
G02*
X153705000Y-71185000I0J200000D01*
G01*
X153705000Y-70635000D01*
G75*
G02*
X153905000Y-70435000I200000J0D01*
G01*
X154305000Y-70435000D01*
G75*
G02*
X154505000Y-70635000I0J-200000D01*
G01*
G37*
%TD*%
%TO.C,R5*%
G36*
G01*
X152825000Y-68875000D02*
X152825000Y-69425000D01*
G75*
G02*
X152625000Y-69625000I-200000J0D01*
G01*
X152225000Y-69625000D01*
G75*
G02*
X152025000Y-69425000I0J200000D01*
G01*
X152025000Y-68875000D01*
G75*
G02*
X152225000Y-68675000I200000J0D01*
G01*
X152625000Y-68675000D01*
G75*
G02*
X152825000Y-68875000I0J-200000D01*
G01*
G37*
G36*
G01*
X154475000Y-68875000D02*
X154475000Y-69425000D01*
G75*
G02*
X154275000Y-69625000I-200000J0D01*
G01*
X153875000Y-69625000D01*
G75*
G02*
X153675000Y-69425000I0J200000D01*
G01*
X153675000Y-68875000D01*
G75*
G02*
X153875000Y-68675000I200000J0D01*
G01*
X154275000Y-68675000D01*
G75*
G02*
X154475000Y-68875000I0J-200000D01*
G01*
G37*
%TD*%
%TO.C,R4*%
G36*
G01*
X192839000Y-74133000D02*
X192839000Y-73583000D01*
G75*
G02*
X193039000Y-73383000I200000J0D01*
G01*
X193439000Y-73383000D01*
G75*
G02*
X193639000Y-73583000I0J-200000D01*
G01*
X193639000Y-74133000D01*
G75*
G02*
X193439000Y-74333000I-200000J0D01*
G01*
X193039000Y-74333000D01*
G75*
G02*
X192839000Y-74133000I0J200000D01*
G01*
G37*
G36*
G01*
X191189000Y-74133000D02*
X191189000Y-73583000D01*
G75*
G02*
X191389000Y-73383000I200000J0D01*
G01*
X191789000Y-73383000D01*
G75*
G02*
X191989000Y-73583000I0J-200000D01*
G01*
X191989000Y-74133000D01*
G75*
G02*
X191789000Y-74333000I-200000J0D01*
G01*
X191389000Y-74333000D01*
G75*
G02*
X191189000Y-74133000I0J200000D01*
G01*
G37*
%TD*%
%TO.C,R3*%
G36*
G01*
X191989000Y-72059000D02*
X191989000Y-72609000D01*
G75*
G02*
X191789000Y-72809000I-200000J0D01*
G01*
X191389000Y-72809000D01*
G75*
G02*
X191189000Y-72609000I0J200000D01*
G01*
X191189000Y-72059000D01*
G75*
G02*
X191389000Y-71859000I200000J0D01*
G01*
X191789000Y-71859000D01*
G75*
G02*
X191989000Y-72059000I0J-200000D01*
G01*
G37*
G36*
G01*
X193639000Y-72059000D02*
X193639000Y-72609000D01*
G75*
G02*
X193439000Y-72809000I-200000J0D01*
G01*
X193039000Y-72809000D01*
G75*
G02*
X192839000Y-72609000I0J200000D01*
G01*
X192839000Y-72059000D01*
G75*
G02*
X193039000Y-71859000I200000J0D01*
G01*
X193439000Y-71859000D01*
G75*
G02*
X193639000Y-72059000I0J-200000D01*
G01*
G37*
%TD*%
%TO.C,R2*%
G36*
G01*
X191989000Y-70535000D02*
X191989000Y-71085000D01*
G75*
G02*
X191789000Y-71285000I-200000J0D01*
G01*
X191389000Y-71285000D01*
G75*
G02*
X191189000Y-71085000I0J200000D01*
G01*
X191189000Y-70535000D01*
G75*
G02*
X191389000Y-70335000I200000J0D01*
G01*
X191789000Y-70335000D01*
G75*
G02*
X191989000Y-70535000I0J-200000D01*
G01*
G37*
G36*
G01*
X193639000Y-70535000D02*
X193639000Y-71085000D01*
G75*
G02*
X193439000Y-71285000I-200000J0D01*
G01*
X193039000Y-71285000D01*
G75*
G02*
X192839000Y-71085000I0J200000D01*
G01*
X192839000Y-70535000D01*
G75*
G02*
X193039000Y-70335000I200000J0D01*
G01*
X193439000Y-70335000D01*
G75*
G02*
X193639000Y-70535000I0J-200000D01*
G01*
G37*
%TD*%
%TO.C,R1*%
G36*
G01*
X191989000Y-68675000D02*
X191989000Y-69225000D01*
G75*
G02*
X191789000Y-69425000I-200000J0D01*
G01*
X191389000Y-69425000D01*
G75*
G02*
X191189000Y-69225000I0J200000D01*
G01*
X191189000Y-68675000D01*
G75*
G02*
X191389000Y-68475000I200000J0D01*
G01*
X191789000Y-68475000D01*
G75*
G02*
X191989000Y-68675000I0J-200000D01*
G01*
G37*
G36*
G01*
X193639000Y-68675000D02*
X193639000Y-69225000D01*
G75*
G02*
X193439000Y-69425000I-200000J0D01*
G01*
X193039000Y-69425000D01*
G75*
G02*
X192839000Y-69225000I0J200000D01*
G01*
X192839000Y-68675000D01*
G75*
G02*
X193039000Y-68475000I200000J0D01*
G01*
X193439000Y-68475000D01*
G75*
G02*
X193639000Y-68675000I0J-200000D01*
G01*
G37*
%TD*%
D15*
%TO.C,J2*%
X138122000Y-78898000D03*
X152962000Y-78898000D03*
D16*
X139792000Y-80598000D03*
X140292000Y-80598000D03*
X140792000Y-80598000D03*
X141292000Y-80598000D03*
X141792000Y-80598000D03*
X142292000Y-80598000D03*
X142792000Y-80598000D03*
X143292000Y-80598000D03*
X143792000Y-80598000D03*
X144292000Y-80598000D03*
X144792000Y-80598000D03*
X145292000Y-80598000D03*
X145792000Y-80598000D03*
X146292000Y-80598000D03*
X146792000Y-80598000D03*
X147292000Y-80598000D03*
X147792000Y-80598000D03*
X148292000Y-80598000D03*
X148792000Y-80598000D03*
X149292000Y-80598000D03*
X149792000Y-80598000D03*
X150292000Y-80598000D03*
X150792000Y-80598000D03*
X151292000Y-80598000D03*
%TD*%
D15*
%TO.C,J1*%
X177238000Y-78898000D03*
X192078000Y-78898000D03*
D16*
X178908000Y-80598000D03*
X179408000Y-80598000D03*
X179908000Y-80598000D03*
X180408000Y-80598000D03*
X180908000Y-80598000D03*
X181408000Y-80598000D03*
X181908000Y-80598000D03*
X182408000Y-80598000D03*
X182908000Y-80598000D03*
X183408000Y-80598000D03*
X183908000Y-80598000D03*
X184408000Y-80598000D03*
X184908000Y-80598000D03*
X185408000Y-80598000D03*
X185908000Y-80598000D03*
X186408000Y-80598000D03*
X186908000Y-80598000D03*
X187408000Y-80598000D03*
X187908000Y-80598000D03*
X188408000Y-80598000D03*
X188908000Y-80598000D03*
X189408000Y-80598000D03*
X189908000Y-80598000D03*
X190408000Y-80598000D03*
%TD*%
%TO.C,D1*%
G36*
G01*
X165356250Y-88804000D02*
X164843750Y-88804000D01*
G75*
G02*
X164625000Y-88585250I0J218750D01*
G01*
X164625000Y-88147750D01*
G75*
G02*
X164843750Y-87929000I218750J0D01*
G01*
X165356250Y-87929000D01*
G75*
G02*
X165575000Y-88147750I0J-218750D01*
G01*
X165575000Y-88585250D01*
G75*
G02*
X165356250Y-88804000I-218750J0D01*
G01*
G37*
G36*
G01*
X165356250Y-90379000D02*
X164843750Y-90379000D01*
G75*
G02*
X164625000Y-90160250I0J218750D01*
G01*
X164625000Y-89722750D01*
G75*
G02*
X164843750Y-89504000I218750J0D01*
G01*
X165356250Y-89504000D01*
G75*
G02*
X165575000Y-89722750I0J-218750D01*
G01*
X165575000Y-90160250D01*
G75*
G02*
X165356250Y-90379000I-218750J0D01*
G01*
G37*
%TD*%
M02*
