%TF.GenerationSoftware,KiCad,Pcbnew,(5.1.8)-1*%
%TF.CreationDate,2021-03-12T16:58:38+08:00*%
%TF.ProjectId,DoubleCam,446f7562-6c65-4436-916d-2e6b69636164,rev?*%
%TF.SameCoordinates,Original*%
%TF.FileFunction,Profile,NP*%
%FSLAX46Y46*%
G04 Gerber Fmt 4.6, Leading zero omitted, Abs format (unit mm)*
G04 Created by KiCad (PCBNEW (5.1.8)-1) date 2021-03-12 16:58:38*
%MOMM*%
%LPD*%
G01*
G04 APERTURE LIST*
%TA.AperFunction,Profile*%
%ADD10C,0.200000*%
%TD*%
G04 APERTURE END LIST*
D10*
X196059999Y-83290000D02*
X191060000Y-83290000D01*
X139060000Y-83290000D02*
X134060001Y-83290000D01*
X149060000Y-54020000D02*
X142060001Y-54020000D01*
X188060000Y-54020000D02*
X181059999Y-54020000D01*
X178060000Y-64020001D02*
X178060000Y-57020000D01*
X152060000Y-64020001D02*
X152060000Y-57020001D01*
X199059999Y-80290000D02*
X199060000Y-70020000D01*
X131060000Y-80290000D02*
X131060000Y-70020001D01*
X175060000Y-67020000D02*
X155060001Y-67020000D01*
X194059999Y-67020000D02*
G75*
G02*
X191060000Y-64020001I0J2999999D01*
G01*
X188060000Y-54020001D02*
G75*
G02*
X191059999Y-57020000I0J-2999999D01*
G01*
X139060000Y-97289999D02*
X139060000Y-83290000D01*
X191060000Y-97290000D02*
X191060000Y-83290000D01*
X149060000Y-54020001D02*
G75*
G02*
X152060000Y-57020001I0J-3000000D01*
G01*
X135560001Y-80750000D02*
G75*
G03*
X135560001Y-80750000I-1500000J0D01*
G01*
X178060000Y-64020001D02*
G75*
G02*
X175060000Y-67020001I-3000000J0D01*
G01*
X139060000Y-64020001D02*
G75*
G02*
X136060001Y-67020000I-2999999J0D01*
G01*
X199059999Y-80290000D02*
G75*
G02*
X196059999Y-83290000I-3000000J0D01*
G01*
X139060000Y-57020001D02*
G75*
G02*
X142060001Y-54020000I3000001J0D01*
G01*
X139060000Y-97289999D02*
X191060000Y-97290000D01*
X131060000Y-70020001D02*
G75*
G02*
X134060001Y-67020000I3000001J0D01*
G01*
X196059999Y-67020000D02*
G75*
G02*
X199060000Y-70020001I0J-3000001D01*
G01*
X197559999Y-69580000D02*
G75*
G03*
X197559999Y-69580000I-1500000J0D01*
G01*
X135560001Y-69580000D02*
G75*
G03*
X135560001Y-69580000I-1500000J0D01*
G01*
X197559999Y-80750000D02*
G75*
G03*
X197559999Y-80750000I-1500000J0D01*
G01*
X194059999Y-67020000D02*
X196059999Y-67020000D01*
X134060001Y-83290001D02*
G75*
G02*
X131060000Y-80290000I0J3000001D01*
G01*
X191060000Y-64020000D02*
X191060000Y-57020000D01*
X139060000Y-64020001D02*
X139060000Y-57020001D01*
X136060001Y-67020000D02*
X134060001Y-67020000D01*
X155059999Y-67020001D02*
G75*
G02*
X152060000Y-64020000I1J3000000D01*
G01*
X178059999Y-57020000D02*
G75*
G02*
X181059999Y-54020000I3000000J0D01*
G01*
M02*
