%TF.GenerationSoftware,KiCad,Pcbnew,(5.1.8)-1*%
%TF.CreationDate,2021-03-12T16:58:38+08:00*%
%TF.ProjectId,DoubleCam,446f7562-6c65-4436-916d-2e6b69636164,rev?*%
%TF.SameCoordinates,Original*%
%TF.FileFunction,Legend,Top*%
%TF.FilePolarity,Positive*%
%FSLAX46Y46*%
G04 Gerber Fmt 4.6, Leading zero omitted, Abs format (unit mm)*
G04 Created by KiCad (PCBNEW (5.1.8)-1) date 2021-03-12 16:58:38*
%MOMM*%
%LPD*%
G01*
G04 APERTURE LIST*
%ADD10C,0.250000*%
%ADD11C,0.200000*%
%ADD12C,0.120000*%
%ADD13C,0.150000*%
G04 APERTURE END LIST*
D10*
X183337127Y-60111142D02*
X183283556Y-60158761D01*
X183134747Y-60206380D01*
X183039508Y-60206380D01*
X182902604Y-60158761D01*
X182819270Y-60063523D01*
X182783556Y-59968285D01*
X182759747Y-59777809D01*
X182777604Y-59634952D01*
X182849032Y-59444476D01*
X182908556Y-59349238D01*
X183015699Y-59254000D01*
X183164508Y-59206380D01*
X183259747Y-59206380D01*
X183396651Y-59254000D01*
X183438318Y-59301619D01*
X183741889Y-59920666D02*
X184218080Y-59920666D01*
X183610937Y-60206380D02*
X184069270Y-59206380D01*
X184277604Y-60206380D01*
X184610937Y-60206380D02*
X184735937Y-59206380D01*
X184979985Y-59920666D01*
X185402604Y-59206380D01*
X185277604Y-60206380D01*
X186277604Y-60206380D02*
X185706175Y-60206380D01*
X185991889Y-60206380D02*
X186116889Y-59206380D01*
X186003794Y-59349238D01*
X185896651Y-59444476D01*
X185795461Y-59492095D01*
X144437127Y-60111142D02*
X144383556Y-60158761D01*
X144234747Y-60206380D01*
X144139508Y-60206380D01*
X144002604Y-60158761D01*
X143919270Y-60063523D01*
X143883556Y-59968285D01*
X143859747Y-59777809D01*
X143877604Y-59634952D01*
X143949032Y-59444476D01*
X144008556Y-59349238D01*
X144115699Y-59254000D01*
X144264508Y-59206380D01*
X144359747Y-59206380D01*
X144496651Y-59254000D01*
X144538318Y-59301619D01*
X144841889Y-59920666D02*
X145318080Y-59920666D01*
X144710937Y-60206380D02*
X145169270Y-59206380D01*
X145377604Y-60206380D01*
X145710937Y-60206380D02*
X145835937Y-59206380D01*
X146079985Y-59920666D01*
X146502604Y-59206380D01*
X146377604Y-60206380D01*
X146919270Y-59301619D02*
X146972842Y-59254000D01*
X147074032Y-59206380D01*
X147312127Y-59206380D01*
X147401413Y-59254000D01*
X147443080Y-59301619D01*
X147478794Y-59396857D01*
X147466889Y-59492095D01*
X147401413Y-59634952D01*
X146758556Y-60206380D01*
X147377604Y-60206380D01*
D11*
X141360000Y-64770000D02*
X141360000Y-56270000D01*
X150110000Y-76040000D02*
X141610000Y-76040000D01*
X188760000Y-60520000D02*
X180260000Y-60520000D01*
X149860000Y-64770000D02*
X149860000Y-56270000D01*
X145610000Y-74676000D02*
X145610000Y-56270000D01*
X188760000Y-64770000D02*
X180260000Y-64770000D01*
X149860000Y-56270000D02*
X141360000Y-56270000D01*
X188510000Y-76040000D02*
X180010000Y-76040000D01*
X188510000Y-78540000D02*
X180010000Y-78540000D01*
X150110000Y-78540000D02*
X141610000Y-78540000D01*
X180260000Y-64770000D02*
X180260000Y-56270000D01*
X188760000Y-64770000D02*
X188760000Y-56270000D01*
X188760000Y-56270000D02*
X180260000Y-56270000D01*
X184404000Y-74676000D02*
X184510000Y-56270000D01*
X149860000Y-60520000D02*
X141360000Y-60520000D01*
X149860000Y-64770000D02*
X141360000Y-64770000D01*
D12*
%TO.C,U1*%
X159840000Y-77260000D02*
X159610000Y-77260000D01*
X155120000Y-77260000D02*
X155350000Y-77260000D01*
X155120000Y-77260000D02*
X155120000Y-74540000D01*
X155120000Y-74540000D02*
X156430000Y-74540000D01*
X155350000Y-78400000D02*
X155350000Y-77260000D01*
X159840000Y-74540000D02*
X159840000Y-77260000D01*
X158530000Y-74540000D02*
X159840000Y-74540000D01*
%TO.C,U2*%
X173770000Y-74540000D02*
X175080000Y-74540000D01*
X175080000Y-74540000D02*
X175080000Y-77260000D01*
X170590000Y-78400000D02*
X170590000Y-77260000D01*
X170360000Y-74540000D02*
X171670000Y-74540000D01*
X170360000Y-77260000D02*
X170360000Y-74540000D01*
X170360000Y-77260000D02*
X170590000Y-77260000D01*
X175080000Y-77260000D02*
X174850000Y-77260000D01*
%TO.C,J3*%
X190560000Y-95504000D02*
X190560000Y-96834000D01*
X190560000Y-96834000D02*
X189230000Y-96834000D01*
X190560000Y-94234000D02*
X187960000Y-94234000D01*
X187960000Y-94234000D02*
X187960000Y-96834000D01*
X187960000Y-96834000D02*
X139640000Y-96834000D01*
X139640000Y-91634000D02*
X139640000Y-96834000D01*
X190560000Y-91634000D02*
X139640000Y-91634000D01*
X190560000Y-91634000D02*
X190560000Y-94234000D01*
%TO.C,C4*%
X172060580Y-79180000D02*
X171779420Y-79180000D01*
X172060580Y-80200000D02*
X171779420Y-80200000D01*
%TO.C,C3*%
X172060580Y-80704000D02*
X171779420Y-80704000D01*
X172060580Y-81724000D02*
X171779420Y-81724000D01*
%TO.C,C2*%
X156920580Y-79180000D02*
X156639420Y-79180000D01*
X156920580Y-80200000D02*
X156639420Y-80200000D01*
%TO.C,C1*%
X156920580Y-80704000D02*
X156639420Y-80704000D01*
X156920580Y-81724000D02*
X156639420Y-81724000D01*
%TO.C,X1*%
X167200000Y-74450000D02*
X163000000Y-74450000D01*
X167200000Y-77950000D02*
X167200000Y-74450000D01*
%TO.C,R11*%
X164272500Y-79987258D02*
X164272500Y-79512742D01*
X163227500Y-79987258D02*
X163227500Y-79512742D01*
%TO.C,R10*%
X167022500Y-79993258D02*
X167022500Y-79518742D01*
X165977500Y-79993258D02*
X165977500Y-79518742D01*
%TO.C,R9*%
X164577500Y-85868742D02*
X164577500Y-86343258D01*
X165622500Y-85868742D02*
X165622500Y-86343258D01*
%TO.C,R8*%
X153042742Y-74480500D02*
X153517258Y-74480500D01*
X153042742Y-73435500D02*
X153517258Y-73435500D01*
%TO.C,R7*%
X153517258Y-71911500D02*
X153042742Y-71911500D01*
X153517258Y-72956500D02*
X153042742Y-72956500D01*
%TO.C,R6*%
X153517258Y-70387500D02*
X153042742Y-70387500D01*
X153517258Y-71432500D02*
X153042742Y-71432500D01*
%TO.C,R5*%
X153487258Y-68627500D02*
X153012742Y-68627500D01*
X153487258Y-69672500D02*
X153012742Y-69672500D01*
%TO.C,R4*%
X178649258Y-68622500D02*
X178174742Y-68622500D01*
X178649258Y-69667500D02*
X178174742Y-69667500D01*
%TO.C,R3*%
X178174742Y-71191500D02*
X178649258Y-71191500D01*
X178174742Y-70146500D02*
X178649258Y-70146500D01*
%TO.C,R2*%
X178174742Y-72715500D02*
X178649258Y-72715500D01*
X178174742Y-71670500D02*
X178649258Y-71670500D01*
%TO.C,R1*%
X178174742Y-74575500D02*
X178649258Y-74575500D01*
X178174742Y-73530500D02*
X178649258Y-73530500D01*
%TO.C,J2*%
X151092000Y-79798000D02*
X151492000Y-79798000D01*
X151292000Y-79398000D02*
X151092000Y-79798000D01*
X151492000Y-79798000D02*
X151292000Y-79398000D01*
X136717000Y-77208000D02*
X136717000Y-76608000D01*
X136827000Y-77208000D02*
X136717000Y-77208000D01*
X154367000Y-77208000D02*
X154367000Y-76608000D01*
X154257000Y-77208000D02*
X154367000Y-77208000D01*
%TO.C,J1*%
X190208000Y-79798000D02*
X190608000Y-79798000D01*
X190408000Y-79398000D02*
X190208000Y-79798000D01*
X190608000Y-79798000D02*
X190408000Y-79398000D01*
X175833000Y-77208000D02*
X175833000Y-76608000D01*
X175943000Y-77208000D02*
X175833000Y-77208000D01*
X193483000Y-77208000D02*
X193483000Y-76608000D01*
X193373000Y-77208000D02*
X193483000Y-77208000D01*
%TO.C,D1*%
X165835000Y-90639000D02*
X165835000Y-88354000D01*
X164365000Y-90639000D02*
X165835000Y-90639000D01*
X164365000Y-88354000D02*
X164365000Y-90639000D01*
%TO.C,U1*%
D13*
X155688095Y-72402380D02*
X155688095Y-73211904D01*
X155735714Y-73307142D01*
X155783333Y-73354761D01*
X155878571Y-73402380D01*
X156069047Y-73402380D01*
X156164285Y-73354761D01*
X156211904Y-73307142D01*
X156259523Y-73211904D01*
X156259523Y-72402380D01*
X157259523Y-73402380D02*
X156688095Y-73402380D01*
X156973809Y-73402380D02*
X156973809Y-72402380D01*
X156878571Y-72545238D01*
X156783333Y-72640476D01*
X156688095Y-72688095D01*
%TO.C,U2*%
X174618095Y-72922380D02*
X174618095Y-73731904D01*
X174665714Y-73827142D01*
X174713333Y-73874761D01*
X174808571Y-73922380D01*
X174999047Y-73922380D01*
X175094285Y-73874761D01*
X175141904Y-73827142D01*
X175189523Y-73731904D01*
X175189523Y-72922380D01*
X175618095Y-73017619D02*
X175665714Y-72970000D01*
X175760952Y-72922380D01*
X175999047Y-72922380D01*
X176094285Y-72970000D01*
X176141904Y-73017619D01*
X176189523Y-73112857D01*
X176189523Y-73208095D01*
X176141904Y-73350952D01*
X175570476Y-73922380D01*
X176189523Y-73922380D01*
%TO.C,J3*%
X189437380Y-90694333D02*
X190151666Y-90694333D01*
X190294523Y-90741952D01*
X190389761Y-90837190D01*
X190437380Y-90980047D01*
X190437380Y-91075285D01*
X189437380Y-90313380D02*
X189437380Y-89694333D01*
X189818333Y-90027666D01*
X189818333Y-89884809D01*
X189865952Y-89789571D01*
X189913571Y-89741952D01*
X190008809Y-89694333D01*
X190246904Y-89694333D01*
X190342142Y-89741952D01*
X190389761Y-89789571D01*
X190437380Y-89884809D01*
X190437380Y-90170523D01*
X190389761Y-90265761D01*
X190342142Y-90313380D01*
%TO.C,C4*%
X174183333Y-80757142D02*
X174135714Y-80804761D01*
X173992857Y-80852380D01*
X173897619Y-80852380D01*
X173754761Y-80804761D01*
X173659523Y-80709523D01*
X173611904Y-80614285D01*
X173564285Y-80423809D01*
X173564285Y-80280952D01*
X173611904Y-80090476D01*
X173659523Y-79995238D01*
X173754761Y-79900000D01*
X173897619Y-79852380D01*
X173992857Y-79852380D01*
X174135714Y-79900000D01*
X174183333Y-79947619D01*
X175040476Y-80185714D02*
X175040476Y-80852380D01*
X174802380Y-79804761D02*
X174564285Y-80519047D01*
X175183333Y-80519047D01*
%TO.C,C3*%
X174183333Y-82057142D02*
X174135714Y-82104761D01*
X173992857Y-82152380D01*
X173897619Y-82152380D01*
X173754761Y-82104761D01*
X173659523Y-82009523D01*
X173611904Y-81914285D01*
X173564285Y-81723809D01*
X173564285Y-81580952D01*
X173611904Y-81390476D01*
X173659523Y-81295238D01*
X173754761Y-81200000D01*
X173897619Y-81152380D01*
X173992857Y-81152380D01*
X174135714Y-81200000D01*
X174183333Y-81247619D01*
X174516666Y-81152380D02*
X175135714Y-81152380D01*
X174802380Y-81533333D01*
X174945238Y-81533333D01*
X175040476Y-81580952D01*
X175088095Y-81628571D01*
X175135714Y-81723809D01*
X175135714Y-81961904D01*
X175088095Y-82057142D01*
X175040476Y-82104761D01*
X174945238Y-82152380D01*
X174659523Y-82152380D01*
X174564285Y-82104761D01*
X174516666Y-82057142D01*
%TO.C,C2*%
X159153333Y-80047142D02*
X159105714Y-80094761D01*
X158962857Y-80142380D01*
X158867619Y-80142380D01*
X158724761Y-80094761D01*
X158629523Y-79999523D01*
X158581904Y-79904285D01*
X158534285Y-79713809D01*
X158534285Y-79570952D01*
X158581904Y-79380476D01*
X158629523Y-79285238D01*
X158724761Y-79190000D01*
X158867619Y-79142380D01*
X158962857Y-79142380D01*
X159105714Y-79190000D01*
X159153333Y-79237619D01*
X159534285Y-79237619D02*
X159581904Y-79190000D01*
X159677142Y-79142380D01*
X159915238Y-79142380D01*
X160010476Y-79190000D01*
X160058095Y-79237619D01*
X160105714Y-79332857D01*
X160105714Y-79428095D01*
X160058095Y-79570952D01*
X159486666Y-80142380D01*
X160105714Y-80142380D01*
%TO.C,C1*%
X159153333Y-81571142D02*
X159105714Y-81618761D01*
X158962857Y-81666380D01*
X158867619Y-81666380D01*
X158724761Y-81618761D01*
X158629523Y-81523523D01*
X158581904Y-81428285D01*
X158534285Y-81237809D01*
X158534285Y-81094952D01*
X158581904Y-80904476D01*
X158629523Y-80809238D01*
X158724761Y-80714000D01*
X158867619Y-80666380D01*
X158962857Y-80666380D01*
X159105714Y-80714000D01*
X159153333Y-80761619D01*
X160105714Y-81666380D02*
X159534285Y-81666380D01*
X159820000Y-81666380D02*
X159820000Y-80666380D01*
X159724761Y-80809238D01*
X159629523Y-80904476D01*
X159534285Y-80952095D01*
%TO.C,X1*%
X164290476Y-73112380D02*
X164957142Y-74112380D01*
X164957142Y-73112380D02*
X164290476Y-74112380D01*
X165861904Y-74112380D02*
X165290476Y-74112380D01*
X165576190Y-74112380D02*
X165576190Y-73112380D01*
X165480952Y-73255238D01*
X165385714Y-73350476D01*
X165290476Y-73398095D01*
%TO.C,R11*%
X162702380Y-80392857D02*
X162226190Y-80726190D01*
X162702380Y-80964285D02*
X161702380Y-80964285D01*
X161702380Y-80583333D01*
X161750000Y-80488095D01*
X161797619Y-80440476D01*
X161892857Y-80392857D01*
X162035714Y-80392857D01*
X162130952Y-80440476D01*
X162178571Y-80488095D01*
X162226190Y-80583333D01*
X162226190Y-80964285D01*
X162702380Y-79440476D02*
X162702380Y-80011904D01*
X162702380Y-79726190D02*
X161702380Y-79726190D01*
X161845238Y-79821428D01*
X161940476Y-79916666D01*
X161988095Y-80011904D01*
X162702380Y-78488095D02*
X162702380Y-79059523D01*
X162702380Y-78773809D02*
X161702380Y-78773809D01*
X161845238Y-78869047D01*
X161940476Y-78964285D01*
X161988095Y-79059523D01*
%TO.C,R10*%
X168452380Y-80398857D02*
X167976190Y-80732190D01*
X168452380Y-80970285D02*
X167452380Y-80970285D01*
X167452380Y-80589333D01*
X167500000Y-80494095D01*
X167547619Y-80446476D01*
X167642857Y-80398857D01*
X167785714Y-80398857D01*
X167880952Y-80446476D01*
X167928571Y-80494095D01*
X167976190Y-80589333D01*
X167976190Y-80970285D01*
X168452380Y-79446476D02*
X168452380Y-80017904D01*
X168452380Y-79732190D02*
X167452380Y-79732190D01*
X167595238Y-79827428D01*
X167690476Y-79922666D01*
X167738095Y-80017904D01*
X167452380Y-78827428D02*
X167452380Y-78732190D01*
X167500000Y-78636952D01*
X167547619Y-78589333D01*
X167642857Y-78541714D01*
X167833333Y-78494095D01*
X168071428Y-78494095D01*
X168261904Y-78541714D01*
X168357142Y-78589333D01*
X168404761Y-78636952D01*
X168452380Y-78732190D01*
X168452380Y-78827428D01*
X168404761Y-78922666D01*
X168357142Y-78970285D01*
X168261904Y-79017904D01*
X168071428Y-79065523D01*
X167833333Y-79065523D01*
X167642857Y-79017904D01*
X167547619Y-78970285D01*
X167500000Y-78922666D01*
X167452380Y-78827428D01*
%TO.C,R9*%
X164028380Y-86272666D02*
X163552190Y-86606000D01*
X164028380Y-86844095D02*
X163028380Y-86844095D01*
X163028380Y-86463142D01*
X163076000Y-86367904D01*
X163123619Y-86320285D01*
X163218857Y-86272666D01*
X163361714Y-86272666D01*
X163456952Y-86320285D01*
X163504571Y-86367904D01*
X163552190Y-86463142D01*
X163552190Y-86844095D01*
X164028380Y-85796476D02*
X164028380Y-85606000D01*
X163980761Y-85510761D01*
X163933142Y-85463142D01*
X163790285Y-85367904D01*
X163599809Y-85320285D01*
X163218857Y-85320285D01*
X163123619Y-85367904D01*
X163076000Y-85415523D01*
X163028380Y-85510761D01*
X163028380Y-85701238D01*
X163076000Y-85796476D01*
X163123619Y-85844095D01*
X163218857Y-85891714D01*
X163456952Y-85891714D01*
X163552190Y-85844095D01*
X163599809Y-85796476D01*
X163647428Y-85701238D01*
X163647428Y-85510761D01*
X163599809Y-85415523D01*
X163552190Y-85367904D01*
X163456952Y-85320285D01*
%TO.C,R8*%
X150573333Y-74410380D02*
X150240000Y-73934190D01*
X150001904Y-74410380D02*
X150001904Y-73410380D01*
X150382857Y-73410380D01*
X150478095Y-73458000D01*
X150525714Y-73505619D01*
X150573333Y-73600857D01*
X150573333Y-73743714D01*
X150525714Y-73838952D01*
X150478095Y-73886571D01*
X150382857Y-73934190D01*
X150001904Y-73934190D01*
X151144761Y-73838952D02*
X151049523Y-73791333D01*
X151001904Y-73743714D01*
X150954285Y-73648476D01*
X150954285Y-73600857D01*
X151001904Y-73505619D01*
X151049523Y-73458000D01*
X151144761Y-73410380D01*
X151335238Y-73410380D01*
X151430476Y-73458000D01*
X151478095Y-73505619D01*
X151525714Y-73600857D01*
X151525714Y-73648476D01*
X151478095Y-73743714D01*
X151430476Y-73791333D01*
X151335238Y-73838952D01*
X151144761Y-73838952D01*
X151049523Y-73886571D01*
X151001904Y-73934190D01*
X150954285Y-74029428D01*
X150954285Y-74219904D01*
X151001904Y-74315142D01*
X151049523Y-74362761D01*
X151144761Y-74410380D01*
X151335238Y-74410380D01*
X151430476Y-74362761D01*
X151478095Y-74315142D01*
X151525714Y-74219904D01*
X151525714Y-74029428D01*
X151478095Y-73934190D01*
X151430476Y-73886571D01*
X151335238Y-73838952D01*
%TO.C,R7*%
X150573333Y-72886380D02*
X150240000Y-72410190D01*
X150001904Y-72886380D02*
X150001904Y-71886380D01*
X150382857Y-71886380D01*
X150478095Y-71934000D01*
X150525714Y-71981619D01*
X150573333Y-72076857D01*
X150573333Y-72219714D01*
X150525714Y-72314952D01*
X150478095Y-72362571D01*
X150382857Y-72410190D01*
X150001904Y-72410190D01*
X150906666Y-71886380D02*
X151573333Y-71886380D01*
X151144761Y-72886380D01*
%TO.C,R6*%
X150573333Y-71450380D02*
X150240000Y-70974190D01*
X150001904Y-71450380D02*
X150001904Y-70450380D01*
X150382857Y-70450380D01*
X150478095Y-70498000D01*
X150525714Y-70545619D01*
X150573333Y-70640857D01*
X150573333Y-70783714D01*
X150525714Y-70878952D01*
X150478095Y-70926571D01*
X150382857Y-70974190D01*
X150001904Y-70974190D01*
X151430476Y-70450380D02*
X151240000Y-70450380D01*
X151144761Y-70498000D01*
X151097142Y-70545619D01*
X151001904Y-70688476D01*
X150954285Y-70878952D01*
X150954285Y-71259904D01*
X151001904Y-71355142D01*
X151049523Y-71402761D01*
X151144761Y-71450380D01*
X151335238Y-71450380D01*
X151430476Y-71402761D01*
X151478095Y-71355142D01*
X151525714Y-71259904D01*
X151525714Y-71021809D01*
X151478095Y-70926571D01*
X151430476Y-70878952D01*
X151335238Y-70831333D01*
X151144761Y-70831333D01*
X151049523Y-70878952D01*
X151001904Y-70926571D01*
X150954285Y-71021809D01*
%TO.C,R5*%
X150543333Y-69602380D02*
X150210000Y-69126190D01*
X149971904Y-69602380D02*
X149971904Y-68602380D01*
X150352857Y-68602380D01*
X150448095Y-68650000D01*
X150495714Y-68697619D01*
X150543333Y-68792857D01*
X150543333Y-68935714D01*
X150495714Y-69030952D01*
X150448095Y-69078571D01*
X150352857Y-69126190D01*
X149971904Y-69126190D01*
X151448095Y-68602380D02*
X150971904Y-68602380D01*
X150924285Y-69078571D01*
X150971904Y-69030952D01*
X151067142Y-68983333D01*
X151305238Y-68983333D01*
X151400476Y-69030952D01*
X151448095Y-69078571D01*
X151495714Y-69173809D01*
X151495714Y-69411904D01*
X151448095Y-69507142D01*
X151400476Y-69554761D01*
X151305238Y-69602380D01*
X151067142Y-69602380D01*
X150971904Y-69554761D01*
X150924285Y-69507142D01*
%TO.C,R4*%
X180785333Y-69597380D02*
X180452000Y-69121190D01*
X180213904Y-69597380D02*
X180213904Y-68597380D01*
X180594857Y-68597380D01*
X180690095Y-68645000D01*
X180737714Y-68692619D01*
X180785333Y-68787857D01*
X180785333Y-68930714D01*
X180737714Y-69025952D01*
X180690095Y-69073571D01*
X180594857Y-69121190D01*
X180213904Y-69121190D01*
X181642476Y-68930714D02*
X181642476Y-69597380D01*
X181404380Y-68549761D02*
X181166285Y-69264047D01*
X181785333Y-69264047D01*
%TO.C,R3*%
X180785333Y-71121380D02*
X180452000Y-70645190D01*
X180213904Y-71121380D02*
X180213904Y-70121380D01*
X180594857Y-70121380D01*
X180690095Y-70169000D01*
X180737714Y-70216619D01*
X180785333Y-70311857D01*
X180785333Y-70454714D01*
X180737714Y-70549952D01*
X180690095Y-70597571D01*
X180594857Y-70645190D01*
X180213904Y-70645190D01*
X181118666Y-70121380D02*
X181737714Y-70121380D01*
X181404380Y-70502333D01*
X181547238Y-70502333D01*
X181642476Y-70549952D01*
X181690095Y-70597571D01*
X181737714Y-70692809D01*
X181737714Y-70930904D01*
X181690095Y-71026142D01*
X181642476Y-71073761D01*
X181547238Y-71121380D01*
X181261523Y-71121380D01*
X181166285Y-71073761D01*
X181118666Y-71026142D01*
%TO.C,R2*%
X180785333Y-72645380D02*
X180452000Y-72169190D01*
X180213904Y-72645380D02*
X180213904Y-71645380D01*
X180594857Y-71645380D01*
X180690095Y-71693000D01*
X180737714Y-71740619D01*
X180785333Y-71835857D01*
X180785333Y-71978714D01*
X180737714Y-72073952D01*
X180690095Y-72121571D01*
X180594857Y-72169190D01*
X180213904Y-72169190D01*
X181166285Y-71740619D02*
X181213904Y-71693000D01*
X181309142Y-71645380D01*
X181547238Y-71645380D01*
X181642476Y-71693000D01*
X181690095Y-71740619D01*
X181737714Y-71835857D01*
X181737714Y-71931095D01*
X181690095Y-72073952D01*
X181118666Y-72645380D01*
X181737714Y-72645380D01*
%TO.C,R1*%
X180785333Y-74505380D02*
X180452000Y-74029190D01*
X180213904Y-74505380D02*
X180213904Y-73505380D01*
X180594857Y-73505380D01*
X180690095Y-73553000D01*
X180737714Y-73600619D01*
X180785333Y-73695857D01*
X180785333Y-73838714D01*
X180737714Y-73933952D01*
X180690095Y-73981571D01*
X180594857Y-74029190D01*
X180213904Y-74029190D01*
X181737714Y-74505380D02*
X181166285Y-74505380D01*
X181452000Y-74505380D02*
X181452000Y-73505380D01*
X181356761Y-73648238D01*
X181261523Y-73743476D01*
X181166285Y-73791095D01*
%TO.C,J2*%
X145208666Y-81800380D02*
X145208666Y-82514666D01*
X145161047Y-82657523D01*
X145065809Y-82752761D01*
X144922952Y-82800380D01*
X144827714Y-82800380D01*
X145637238Y-81895619D02*
X145684857Y-81848000D01*
X145780095Y-81800380D01*
X146018190Y-81800380D01*
X146113428Y-81848000D01*
X146161047Y-81895619D01*
X146208666Y-81990857D01*
X146208666Y-82086095D01*
X146161047Y-82228952D01*
X145589619Y-82800380D01*
X146208666Y-82800380D01*
%TO.C,J1*%
X184324666Y-81800380D02*
X184324666Y-82514666D01*
X184277047Y-82657523D01*
X184181809Y-82752761D01*
X184038952Y-82800380D01*
X183943714Y-82800380D01*
X185324666Y-82800380D02*
X184753238Y-82800380D01*
X185038952Y-82800380D02*
X185038952Y-81800380D01*
X184943714Y-81943238D01*
X184848476Y-82038476D01*
X184753238Y-82086095D01*
%TO.C,D1*%
X164122380Y-89892095D02*
X163122380Y-89892095D01*
X163122380Y-89654000D01*
X163170000Y-89511142D01*
X163265238Y-89415904D01*
X163360476Y-89368285D01*
X163550952Y-89320666D01*
X163693809Y-89320666D01*
X163884285Y-89368285D01*
X163979523Y-89415904D01*
X164074761Y-89511142D01*
X164122380Y-89654000D01*
X164122380Y-89892095D01*
X164122380Y-88368285D02*
X164122380Y-88939714D01*
X164122380Y-88654000D02*
X163122380Y-88654000D01*
X163265238Y-88749238D01*
X163360476Y-88844476D01*
X163408095Y-88939714D01*
%TD*%
M02*
