M48
; DRILL file {KiCad (5.1.8)-1} date 03/12/21 16:58:40
; FORMAT={-:-/ absolute / inch / decimal}
; #@! TF.CreationDate,2021-03-12T16:58:40+08:00
; #@! TF.GenerationSoftware,Kicad,Pcbnew,(5.1.8)-1
; #@! TF.FileFunction,Plated,1,2,PTH
FMAT,2
INCH
T1C0.0080
T2C0.0157
T3C0.0394
%
G90
G05
T1
X5.5997Y-2.2875
X5.5997Y-2.3225
X5.5997Y-2.3575
X5.6347Y-2.2875
X5.6347Y-2.3225
X5.6347Y-2.3575
X5.6697Y-2.2875
X5.6697Y-2.3225
X5.6697Y-2.3575
X5.7047Y-2.2875
X5.7047Y-2.3225
X5.7047Y-2.3575
X5.7397Y-2.2875
X5.7397Y-2.3225
X5.7397Y-2.3575
X5.7747Y-2.2875
X5.7747Y-2.3225
X5.7747Y-2.3575
X5.8097Y-2.2875
X5.8097Y-2.3225
X5.8097Y-2.3575
X5.8447Y-2.2875
X5.8447Y-2.3225
X5.8447Y-2.3575
X5.8797Y-2.2875
X5.8797Y-2.3225
X5.8797Y-2.3575
X6.3947Y-2.7275
X6.3947Y-2.7625
X6.3947Y-2.7975
X6.4297Y-2.7275
X6.4297Y-2.7625
X6.4297Y-2.7975
X6.4647Y-2.7275
X6.4647Y-2.7625
X6.4647Y-2.7975
X6.4997Y-2.7275
X6.4997Y-2.7625
X6.4997Y-2.7975
X6.5347Y-2.7275
X6.5347Y-2.7625
X6.5347Y-2.7975
X6.5697Y-2.7275
X6.5697Y-2.7625
X6.5697Y-2.7975
X7.1247Y-2.2925
X7.1247Y-2.3275
X7.1247Y-2.3625
X7.1597Y-2.2925
X7.1597Y-2.3275
X7.1597Y-2.3625
X7.1947Y-2.2925
X7.1947Y-2.3275
X7.1947Y-2.3625
X7.2297Y-2.2925
X7.2297Y-2.3275
X7.2297Y-2.3625
X7.2647Y-2.2925
X7.2647Y-2.3275
X7.2647Y-2.3625
X7.2997Y-2.2925
X7.2997Y-2.3275
X7.2997Y-2.3625
X7.3347Y-2.2925
X7.3347Y-2.3275
X7.3347Y-2.3625
X7.3697Y-2.2925
X7.3697Y-2.3275
X7.3697Y-2.3625
X7.4047Y-2.2925
X7.4047Y-2.3275
X7.4047Y-2.3625
T2
X5.6811Y-3.1063
X5.7947Y-3.0975
X5.8197Y-2.9625
X5.9047Y-3.0175
X6.1997Y-2.8625
X6.3366Y-3.1713
X6.6673Y-3.1713
X6.8547Y-3.1325
X6.878Y-2.9764
X7.2104Y-3.1281
X7.2797Y-3.1275
X7.3697Y-3.0975
T3
X5.55Y-3.66
X5.55Y-3.76
X5.65Y-3.66
X5.65Y-3.76
X5.75Y-3.66
X5.75Y-3.76
X5.85Y-3.66
X5.85Y-3.76
X5.95Y-3.66
X5.95Y-3.76
X6.05Y-3.66
X6.05Y-3.76
X6.15Y-3.66
X6.15Y-3.76
X6.25Y-3.66
X6.25Y-3.76
X6.35Y-3.66
X6.35Y-3.76
X6.45Y-3.66
X6.45Y-3.76
X6.55Y-3.66
X6.55Y-3.76
X6.65Y-3.66
X6.65Y-3.76
X6.75Y-3.66
X6.75Y-3.76
X6.85Y-3.66
X6.85Y-3.76
X6.95Y-3.66
X6.95Y-3.76
X7.05Y-3.66
X7.05Y-3.76
X7.15Y-3.66
X7.15Y-3.76
X7.25Y-3.66
X7.25Y-3.76
X7.35Y-3.66
X7.35Y-3.76
X7.45Y-3.66
X7.45Y-3.76
T0
M30
