%TF.GenerationSoftware,KiCad,Pcbnew,(5.1.8)-1*%
%TF.CreationDate,2020-12-05T14:41:01+08:00*%
%TF.ProjectId,DoubleCam,446f7562-6c65-4436-916d-2e6b69636164,rev?*%
%TF.SameCoordinates,Original*%
%TF.FileFunction,Soldermask,Bot*%
%TF.FilePolarity,Negative*%
%FSLAX46Y46*%
G04 Gerber Fmt 4.6, Leading zero omitted, Abs format (unit mm)*
G04 Created by KiCad (PCBNEW (5.1.8)-1) date 2020-12-05 14:41:01*
%MOMM*%
%LPD*%
G01*
G04 APERTURE LIST*
%ADD10O,1.700000X1.700000*%
%ADD11R,1.700000X1.700000*%
G04 APERTURE END LIST*
D10*
%TO.C,J3*%
X140970000Y-92964000D03*
X140970000Y-95504000D03*
X143510000Y-92964000D03*
X143510000Y-95504000D03*
X146050000Y-92964000D03*
X146050000Y-95504000D03*
X148590000Y-92964000D03*
X148590000Y-95504000D03*
X151130000Y-92964000D03*
X151130000Y-95504000D03*
X153670000Y-92964000D03*
X153670000Y-95504000D03*
X156210000Y-92964000D03*
X156210000Y-95504000D03*
X158750000Y-92964000D03*
X158750000Y-95504000D03*
X161290000Y-92964000D03*
X161290000Y-95504000D03*
X163830000Y-92964000D03*
X163830000Y-95504000D03*
X166370000Y-92964000D03*
X166370000Y-95504000D03*
X168910000Y-92964000D03*
X168910000Y-95504000D03*
X171450000Y-92964000D03*
X171450000Y-95504000D03*
X173990000Y-92964000D03*
X173990000Y-95504000D03*
X176530000Y-92964000D03*
X176530000Y-95504000D03*
X179070000Y-92964000D03*
X179070000Y-95504000D03*
X181610000Y-92964000D03*
X181610000Y-95504000D03*
X184150000Y-92964000D03*
X184150000Y-95504000D03*
X186690000Y-92964000D03*
X186690000Y-95504000D03*
X189230000Y-92964000D03*
D11*
X189230000Y-95504000D03*
%TD*%
M02*
