M48
; DRILL file {KiCad (5.1.8)-1} date 12/05/20 14:41:14
; FORMAT={-:-/ absolute / inch / decimal}
; #@! TF.CreationDate,2020-12-05T14:41:14+08:00
; #@! TF.GenerationSoftware,Kicad,Pcbnew,(5.1.8)-1
; #@! TF.FileFunction,Plated,1,2,PTH
FMAT,2
INCH
T1C0.0157
T2C0.0394
%
G90
G05
T1
X5.6989Y-3.12
X5.747Y-3.1201
X5.7795Y-3.062
X5.8957Y-3.1093
X6.0236Y-3.2087
X6.111Y-3.0069
X6.1122Y-3.1093
X6.249Y-3.127
X6.2949Y-2.8657
X6.2992Y-2.9724
X6.6486Y-3.1112
X6.9291Y-3.2185
X7.2441Y-3.1279
X7.2736Y-3.1004
X7.435Y-3.1112
X7.626Y-3.002
T2
X5.55Y-3.66
X5.55Y-3.76
X5.65Y-3.66
X5.65Y-3.76
X5.75Y-3.66
X5.75Y-3.76
X5.85Y-3.66
X5.85Y-3.76
X5.95Y-3.66
X5.95Y-3.76
X6.05Y-3.66
X6.05Y-3.76
X6.15Y-3.66
X6.15Y-3.76
X6.25Y-3.66
X6.25Y-3.76
X6.35Y-3.66
X6.35Y-3.76
X6.45Y-3.66
X6.45Y-3.76
X6.55Y-3.66
X6.55Y-3.76
X6.65Y-3.66
X6.65Y-3.76
X6.75Y-3.66
X6.75Y-3.76
X6.85Y-3.66
X6.85Y-3.76
X6.95Y-3.66
X6.95Y-3.76
X7.05Y-3.66
X7.05Y-3.76
X7.15Y-3.66
X7.15Y-3.76
X7.25Y-3.66
X7.25Y-3.76
X7.35Y-3.66
X7.35Y-3.76
X7.45Y-3.66
X7.45Y-3.76
T0
M30
